<svg id="603f5aac-aa1c-4b33-9ac1-40a5077459e5" data-name="svg2602" xmlns="http://www.w3.org/2000/svg" viewBox="0 0 850 1200">
  <defs>
    <style>
      .\30 588604d-1751-4131-b1a6-0b9135a703c4 {
        fill: #efa;
        stroke: #7f8080;
        stroke-miterlimit: 10;
      }
    </style>
  </defs>
  <title>Taiwan_ROC_political_division_map_Taipei_County</title>
  <path class="0588604d-1751-4131-b1a6-0b9135a703c4" d="M661.22,347.48l-1.61-1.07-1.07-1.79-2.14-1.07-7.15.9-1.78.89-2.32.36L643.54,347l-1.25,1.6-2.68.36-1.78-.9-4.11-7H628.9l-2-.71-2.67-2.68.89-7.15-.54-2.14-.89-1.79-1.25-1.42-.39-.22-1.73.91-.63,1.38-1.27.76-5.8-.12-1.27.63-6.52-.23-.07.81L603,330l-2,1.6-1.43,1.79-.18,2.5L596,341.41v2.67l-2.15.54h-2.68l-1.78-2.5.89-1.43-2.68-1.07-2,.89-.72,2.15-1.25,1.78-2.32.72-4.82,6.78-2,.72h-5.36l-1.79,1.25-.71,2-.71.18-2,2.14-.36,2.5-2.14.54-3.39,2.86-2.15.53-5-.53-4.46,1.6-5.36,6.79-2.68.18-2-1.07-3.22-3-.35-2.5-1.79-1.25-2.68-3.93-1.6.36h-2.68l-2-.9-5-.35-6.07-2.15-4.82-.17-2.14.89L502.82,360v2.68l.89,2,.36,5-.89,2L501.39,373l-2.14.72-10.36-.36-2,.9h-5.36l-5.18-1.61-3.21-3-1.08-2-1.6-1.25-11.25-2.14-3.4-2.86-2.5-.71-1.42-2-3.58-2-1.42-1.61-2.15-.71-1.25-1.61-.89-.36-3-.35-1.25-1.79-3.21-2.14-7.5-9.64h-.36l-.89-1.79L421.92,335l-2.32-3.75-.35-2-3.62-4.73-1.73.42-.25,2.29-9.09,12.62-1.91,4.66.25,3.81-.12.5-1.25,1.62-.53,1.41-2.75,1.25-1,1.78-4.66,3.16.12,1.37.5,1.16.13,2.12-.88,1L390,363l2.8,1.28.5,1.25-1,1.41-.91.75-2.25-2.91-.9.5-1.13,1.25L385,367.65l.12,1.75-.75,1.28-2.78,1.62-.87,1.41,4.15,5.69-.12,1.62-.88,1.28-.37,1.5-1-1.9.15-1.63-1.53,1.63-1.5-.13-.4-1.87.9-1.78-.12-1.75-1.28,1.25-2.25,6.44,1.62,1.28.63,1.37.62.5.13-.25,1.78,1.13V390l-.63,1.53-3.9,5.66-1.16.9-1.5,3.79.11,2,4.43,2,2.15,3.39.35,2.32,1.07,2.68.36,2.68,3.22,3.39-1.25,1.61-.18,2.5,1.25,1.61,1.78,1.25h.54l1.43,2.32,2,.89,1.61,1.25,2.14.54,2,1.07,10.17,2.32h2.5l1.61,1.25.36.89v5.36l1.6,2.14,1.79,1.43v2.86l-.89,2,1.43,7,2.5.18,1.6,1.43,3.57-.36,1.07-.71,5.72,4.82,8.93,3.21,2.14-.53h5.36l2.5.53,1.78,1.61,2.15-.18,4.28-1.43,6.43-7,3.75-9.82,3.22-3.21,4.46-1.25,1.25-1.61-.36-6.6,3.75-7.5,1.61-1.08,2.32.72,1.07,1.61,4.65.89,1.6,1.43v5.35l1.07.54.72-1.61,1.43-1.25L495,435l1.07-4.29,1.61,1.43.36.54,2.85,1.43,2.5.35,2.5-.53,6.07-5.18,2.32-.36,1.43,1.25,2.32.54,5.18-.18,1.79-1.07,2.68-2.68,2-6.25,1.43-1.43,2.5-.54,4.29.54,1.6-1.07h4.11l3.93-2,1.25-2,2-1.25,1.25-1.61,1.79-1.07,1.25-2,.53-2.15,1.79-.89,10.53-.18,1.43-1.25,1.25-2,.72-2,2.5-.18,1.25-1.6,1.6-1.07,2,.89,1.25,1.43,4.28,1.25.9-1.79,1.78-1.07h2.68l4.11-1.78,1.6,1.07,2.5.89,2-.71,1.25-2.15.53-2.14,2.32-3.75h.9l3.21,2.32,1.07,1.61,4.65,1.07h2.68l1.07-1.61,4.82.54,1.25,1.25,6.43,1.78,1.78-1.43.9-1.78-.18-2.5,3.75-1.61,1.07-1.61,2.68.18,1.43-1.25.53-2.32-.89-4.64,1.25-2,2.32-.89,1.61-1.07,1.78-4.11,1.43-1.6h2.68l1.78-1.25,1.43-1.79,2.15-4.28.71-7.33.9-2,2.32-1.25,1.25-1.46ZM467.08,414.9h-7.57l-1.77,2-6.31,1.51h-7.07l-2.78-1.26-3.28-.5L436,418.18l1.77,2.27,2.78,1v3.29l-.76,3L437.29,429,431,430.56l-2.52,1.26-1.77,2-3.28.25-1.27-3.28-5.8,1-3-.76-2-1.76-2.78-1L405,423.74l-2.78-1-1.76-3,5.05-10.35v-3.79l2-7.07,3.79,1,2.78,1.77,5.55,1.77,2.53-1.77h3l2.27,1.52h7.07l1.52,2.27,2.52,1.26,3.53-.25,6.07-1.77,2.27-1.52,4-4.79H458l4.3,3.28,2.77,1,2.28,1.52Z"/>
  <path class="0588604d-1751-4131-b1a6-0b9135a703c4" d="M508.64,641.66l-2.78-1-11.11-1-5.56,2.27-11.36-1.26-2-2.27-2.53-5.81-.5-7.32-2.27-2L469,620.7v-3.79l2.78-2.27.76-3.28-.26-8.59L471,600.25l-3.28-.76h-3.79l-11.62-4.29-6.44.63-1.64,2.4,1.52,2.27.76,3v3.53l-1.27,2.53-3.53-.51-2.78-1.51-3.53-.25-2.78,1-3,.25-2-2-3.29.76-2,2-2-3.29.51-3.78L415.2,602l-1.77,2-2.77,1.52L396.76,604l-3-1-2.28-1.76-3.53-.26-2.53-1.51-1.51-2.28-4.3-3.53-1.51-5L373,587.37l-5.31,2.77h-7.57l-5.81,2.27-2.78-1-2.27-1.76-2.78-1.27-1.77,2.27-2.27,1.77-1,2.78L335.65,597l-1,3-2.52,1.26-4-.25-1.52,2.52-1.77,6.06L322,608.07l-6.31,2.52-1.77,2-.76,3.54-4.79,2.78-1,2.77-3.53-1.26v-3.28h-3.28l-2,2,.75,3-.25,3.53L297.26,628,295,629.78l-3.79-.5L284.89,627l-2.78,1.26h-3.79L276.81,626H273l-5.81-2.27-3.85-.13-1.57.87-.37,9.09.87,1.53,1.75.63,5.69-.38,1.4.63v1.91l-.78,1.37-.5,1.78-.87,1.13v2l-.75,1.5.37,2,1.63.87h1.65l-2.15,4.19-.13,1.75,1.53.38v1.65l-1,3.16.13,1.87.78,1.53,1.25,1,1.4-1.25.63.88.25,3.53-1,1.65-1.28,5-3.66,1.54-1.4-.13-3,6.94-.16,5.06.41,1.5h3.78l1.62.63.2,1.65,2.72,1.77,3.79.75,1,3,2.27,2,2.52.26v-2.76l1.27,2,4.54,1.26,3-1.26,3.28-4.8.76-3,9.6-4.8.5-1.77-1-2.78,2-2,2.53,1.52,1.77-1.52,1.26-2.52.51-3.29,7.07-.5-.26-3,6.32.25,1.51-2.52.26-.25,6.06-3.54H341l5.31-2.52,3.28-.51,2,2,3.28-.25,2.28-1.52.25-.5,3.79,1,1.77,2.27,3.28,1,2.52,2,3,.76,2.27-1.26,2,1.76-1.52,2.28L372,672v3.29l7.82.5.26,3.28-2.53,1.77,1,2.28,3.79,1.26,3.54.25,1,2.78-.26,3-2.27,1.77L382.88,695l.25,3.53,1,2.78-1.26,2.52.5,2.53,2,3.28.76,2.52-3.28,4.8,1,2.53,6.06,1.76,4.29,3,3.29.26,3-.76,3.78-5.56,3.54,2.53,3,1,6.31-1.26,2.53,1.26,2-1.77v-3.79l-2-2.52-1.27-2.78,1.27-11.62,7.83.26,2.27,2,8.08.25,1.26-6.56,6.57-.51,1-2.78,5.05-2.52,2.27-5.81,7.07-.51,4-4,1.52-2.52,2-2h3.79l2.77-1,.26-3.54,1.76-2,1-2.78,1.76-1.51,1.77-4.3,2.27-2.52,3.29-.51,2.27-1.76,2.78-1.27,1.51-2.52,4.3-3.54L504.6,646l2.27-1.52,6.57-1,2.52-1.26,1.22-.28ZM375.7,644.72l-.76,2.53-4.54-1.52-2-1.77-4.55,3.54L362.57,650,360,651.54l-2.52-1.26-2-2.78-1-2.78-10.1-1.51,2-4.55-3-3-.51-3.29,4.8-1.26,3,.76,7.07-5.05,3-.76,2.53,1.27,1.77,2.52,2,1.77,2.77-1,2.28,1.51,1.26,2.53,3,.76.76,3,2,2Z"/>
  <path id="3b56c709-c516-48b3-9d81-43f0d6c95bcc" data-name="path2421" class="0588604d-1751-4131-b1a6-0b9135a703c4" d="M343.07,632.33l.51,3.28,3,3-2,4.55,10.1,1.52,1,2.77,2,2.78,2.53,1.26,2.52-1.51,1.26-2.53,4.55-3.53,2,1.77,4.55,1.51.75-2.52,3.54-4.3-2-2-.76-3-3-.76-1.26-2.52-2.27-1.52-2.78,1-2-1.77-1.77-2.52L361,626l-3,.76-7.07,5.05-3-.76-4.81,1.26Z"/>
  <path id="0d5e0a53-b7d8-4dc5-8154-cad142c61df7" data-name="path2417" class="0588604d-1751-4131-b1a6-0b9135a703c4" d="M407.47,398.48l-2,7.07v3.79l-5.05,10.35,1.77,3,2.78,1,3.53,4.54,2.78,1,2,1.76,3,.76,5.81-1,1.26,3.28,3.29-.25,1.76-2,2.53-1.26,6.31-1.52,2.53-1.26.75-3v-3.29l-2.77-1L436,418.17l2.27-1.51,3.28.5,2.78,1.26h7.07l6.31-1.51,1.77-2h7.58l.25-11.11-2.27-1.52-2.78-1L458,398h-3.54l-4,4.8-2.27,1.51-6.06,1.77-3.54.25L436,405l-1.52-2.27h-7.07l-2.27-1.52h-3L419.6,403,414,401.25l-2.78-1.77-3.79-1Z"/>
  <path id="5354f7b7-d890-4dca-b80c-26208e31287b" data-name="path3635" class="0588604d-1751-4131-b1a6-0b9135a703c4" d="M766.92,99.07l.08-1.15-1.07-1.13.5-3.4-1.78.12L762.28,95l-2.16-2-1.91-.15-.87-.63V90.11l-1.63-.41-.78,1.41-1.5.37-.37-1.5h-1.28l.5,1.5,1.4,2-1.78,2.25-2.78,2-1.25.13,2.28-2.16-.78-1.37V91.23l-1.5-.12-1.37-.75-1.78-.25-2-2h-3.9l-1.13-.75.26-1.35-.43-.9-1.81,1.15-2,.71-1.07,1.61-2.32.53-1.25,1.61L725,92.47l-2.5.18-2,.71-1.79,1.25-4.82.54v2.67l1.07,2,2.32.71,1.43,1.61.18,2.5,3,6.79,2.32,1.6,1.6,2.15,2.32.53,1.43-1.25v2l1.61,1.78,7,1.79,5.36,4.64,5.18.36,4.64-2.32,2.5-.18,1.07-1.79.72-2.14L753,114.07v-4.82l-.54-2.14,2.32-.54,2.86-3,2.5.53,1.78,1.25.9.18,1.78-2.85,1.43-1.43.89-2.15Z"/>
  <path id="64a544e9-12bd-4c94-bb0f-77c7f93a1275" data-name="path2861" class="0588604d-1751-4131-b1a6-0b9135a703c4" d="M495.2,1042.67l-3,1-2,1.76-3.28,1.27-2.78-4.8-3-.76h-4l-1.26-2.77-2.78-1-2.27-1.51-4.29.25-.51-2.27.76-3.28,1.77-1-2.78-1-1-2.53-4.8-2.78,1.77-2.27,2.53-1.26-.26-7.58-2.52-1.51-1.26-2.53h-2.78l-3.79-4-3.54-1.77,4.8-14.64,6.57-1,1.26-2.78-.76-3.29-2.77-2-2.53-5.31-4-2.52-.25-3-1-3,4.29-3.29v-3.78l-4-8.09-.5-4.29-1.77-1-1-3,.5-3.53,2.78-5.06-1.26-2.77,1.51-2.27,1-2.78-.25-3.54,1-2.52,2-2,.76-3,1.77-2,.25-1,4-5.56.25-3.54,1.77-2.27.25-2.52,3.29.5,3.53-1.76,6.06-1.27,3-6.31,11.1-.51,2-2.27.25-3.54,1.77-2,.5-9.85,2-2-1-2.27V861.6l-1-3.28-2.52-1.26-3.29-.26-2.77-2.52-.76-1.52-1-8.33-3.79-2.52-2.27.75-.26-1.26L477,840.14l-1-.26h-3.28l-1.52,2.28-5.05,2.52L464.4,847l-2.77,1.52L458.85,847l-6.32-7.57L444,834.07h-3.79l-3,.76-3.28,4.8-3,.76-1,1H427l-2.78-1.27v-3.78l-1.77-2-3-1.27-3,.76-2.77,2-3.54.25-6.56,4.55-1.27.51-4,3.28-.25,1.26L395.46,849l-2.27,1.77-3.53.25-6.06-1.51-2.78,1.26H377l-1.52-2.27-4.54-.25-1.77-.76-2.52,1.26-1.52,9.85-1.26,2.53-.51,3.28-1.26,2.78.25,15.15-.76,1.26.26,4.55-1.77,6.81-1.77,2.28-2,6.06-.26,18.18,3.54,4.3-2.78,16.41-1.26,2.78-2.46,2.2-.19,1.84-.75,1.13-.13,3.78-.5,1.28.75,1.75.13,9.1,2.9.25,2,1.9-.12,1.78-.88.25,1.78,2.38,5,3.69.9,1.25,1.38.62.62.13-.15,0,.15.41,3,1.28,1.16,1.25,1.5,1,2.9,1,1.13,1,1.53.75,1,.91,1.65.75,1.13,1,9.59,5.19,1.13,1.37,1.65.53,10.85,8.69.9,1.28,2,5.41-.37.78,5.44,3.65,5.81,7.32.5,1.53v4.78l1.78,2.9.75,3.41-.12,1.78-.5,1.5.12,1.53,4,3.41.88,1.25,1.28,1,.75,1.25,1,3.53,3.28,3.4-.88,1.78v1.91l.38,1.75,1.15,1.25,1.63,4.94.12,5.56,1,3.28v1.91l.66,1.25.5,2.15,1.25,1.13.75,1.25.28,1.78,1.38,1.37.25,3.57.75,1.25-.13,1.9-.75,1.25-5.19,1.5.25,1.66,1.78.37.5,1.28-.12.63.37,1.62.63,1.29-.63,1.25-.87,1-2.53,1.53-.25,1.62,1,1.16-3.78,3.53v3.65l1.53.88v1.9l1.25,1.13-.38,1.53,3.91,3.4.37,1.38,1.28,1.28.75,1.25.5,2.53-.87,3,.12,5.94-1.12,2.66.87,1.12,1.75.25.91,3.28,1,1.66,3.91.37,1.53-2.4,1.12-.88.25-1.65-.75-3.16.63-1.37,1.4-.63,2-2.16,1.28-.62h1.88l.5,1.37,4.19,2.91.5.13,2.28-.13,1.62.38.63,1.28,1.53.37,1.37.88,1.91.62,1.9.13,3.79,3.81.12,1.75,1.88.62.9.79.63,1.25.12,1.75,2.66,2.53h1.87l1.28-.88-.25-1.65-1-.88-.37-1.62.12-1.79-.5-1.37-4.9-7.47v-7.31l.5-1.41-.63-1.37.5-3,1-.38.13-1.66,3.4-.5,1.66-.62.62-1.25,1.5-.38,1.28-1,.5-1.5.13-1.78.87-1,1.78-.12.38-3.41,3.65-2.4.38-1.41-2-2.5-.13-9.34-1.15-1.66V1094l2.65-4.47,1-1.07V1087l-1.5-.62-2-2.16-.62-1.62-.25-4.81.25-.69.87-.07.5-.62.72-.5.32-.72-.88-1.37.06-3.66-.84-1.28.25-.63.53-.56.31-.62.19-.75-.19-.79v-1.87l-.31-1-.4-.56.06-1.13-.63-.81-.31-.85.19-1.62,1.4-1.16.38-.62.19-.69.06-1.84-.25-.82v-.68l.19-.5-.88-1,.75-3.29,1-1.12.5-1.38-1-1.15-.16-.92"/>
  <path id="63927f1d-c775-4eb0-86c7-81c7daaf283a" data-name="new_taipei" class="0588604d-1751-4131-b1a6-0b9135a703c4" d="M824.53,135.81l-1.41.12L822,137l-1.16-2.15-1.37-.5-.88-1-1.47-.34-1.81.06-.84.85-1.69,1.06-4-.38-4.94-4-.37-1.4v-5.69l-.63-.75,1.38-1-.25-.63-4.16-4.19-1.28-3,1.53-4.53,1.5-1,.38-1.5-.63-1.25-1-.9-.62-.88.75-1.25,1.25-.78V99.85l-1.75-.13-1.66.38-1,1-3.41,1.15h-1.9L786,101l-1.5.63-1.41-.63-4.4-.12-2.91-.88-1.37.75L773.13,102H771.5l-1-1.25.38-1.62.78-1.29.62-.62h-1.9l-1.63.62h-1.81l0,1.16-.89,2.14-1.43,1.43-1.79,2.86-.89-.18L760.14,104l-2.5-.54-2.85,3-2.32.54.53,2.14V114l4.65,4.46-.72,2.15-1.07,1.78-2.5.18-4.64,2.32-5.18-.35-5.36-4.65-7-1.78-1.61-1.79v-2l-1.43,1.25-2.32-.54-1.61-2.14-2.32-1.61-3-6.78-.18-2.5-1.43-1.61L715,99.69l-1.07-2V95l4.82-.53,1.78-1.25,2-.72,2.5-.18,4.11-1.78L730.33,89l2.32-.53,1.07-1.61,2-.71L737.17,85l-2.92-2.09-1.53-.5-1.62-1.12L730.57,80l.65-1.5,2.91-1.41-.28-.75-1.13-1,1-1.13,1.41-.78,1.25-1.12L736,71.19l-4.53,3.91-6.31.37-4.94-5.06L720,69.16l1.25-1.28-.62-1.25h-2L717.19,66l-2-2,.53-3.79-.38-1.78-.65-1.25-1.12-1L709.88,51l-3.16-1-1.78-2.29-1.37-.75h-1.91l-1.37-.9-1-1.13L698,44.16l-.44-.09-1.35.22-1,1.12-.5,1.53h-6.06l-1.91-2-1.12.75v1.91l-1.13.75-5.06.75-.62-1.62-.63.62-.25,1.78L676.54,51l-3.41.87-1.37,1-1.66.5-3.53,7.44-.63.13-3.68-.5-1.25,1-.13,1.78-1,1.12-.37,1.53-1.28,2.53L658,70.29l-.88,1.28-1.28.75-2.13,2.16-.25,1.87-2,3.91-1.9.53-1.13-.13.25,1.13L652,84.94l1.9.13,3.54,1.65,1.5,2.63,1.4,1,1,1.25,2.16,4.44.25,7.56-.88.75-.25-1.62-.78-1.66-.25-1.63-2-2.65L659.51,95l-.66-1.75L656.6,91l-5.81-3.78h-1.91l-1.12,1-.63,2.4-3.69,3.53-1.62.5L639,96.32l-1.5.37-4.19,2.78-5.16,1.63-1.28.87-12,.13-2.4,2.28-1,1.4,1.81,2.48,1.25.36,1.25,1.6,5,.54,9.29,4.46-.54,3.57,2,1.79,5.18,1.25h5.35l1.25.89,1.79,2.15.54,2.32v.71l-.9,1.79.36,2.32,1.25,1.43,2.32,1.6-.89,1.61-2,1.25-2,.71,2.14,1.61.18,2.14-1.61,1.07-2.14.72-2,3.57-2.86,2-11.25-.35-1.79.89-.53,2.15,1.07,2-.54,5-1.43,1.43-.89,2,1.25,2.33,2.14.17,1.61,1.25-2.14,1.43-1.25,1.43-.9,2,.9,4.28,4.46,2.68,3.4,5.18-1.25,1.61.35,2.14.18.18,2.5,1.61-1.61,1.25-4.64.89-.18,2.14,2.5.36,1.61-1.25,1.6,1.61,1.79,1.07,2.86.71,2.67-.18,2-1.07,5.36-.36,1.25.72.35.89,1.43,1.43.72,2,2.85,2.85,1.61.9,1.61,1.78.17,2.5.9,2.5,2.32.72v2.68l-1.61,1.07-1.07,1.6-3.21,2.68-1.07,2,.35,2.32.9,1.78v1.08l2,5,3.21,3-.53,2,2.5,1.06.18,1.79,2.5.71,1.43,2,2,1.43.54,5,1.47.62,4.78.27,2.32-1.43,4.64-.71,5.18-3.4.54-2.5,5.89-3.21,2.68-.18,2.14-.71,1.08-1.61,1.6-1.25,2.32-.36,1.43-4.28v-2.68l-.71-2.15-1.43-1.42-.36-2.5,2-1.61.35-2.32-.18-2.5.9-2,2.14-.53,1.79-1.07,2.5.71,2.32-1.78.53-2.15-1.43-1.25,10.54-1.25,3.57-1.78,1.6,1.78.72-2,2.14-.72,1.07-1.78,1.79-1.61.53-1.69L740,194l2.67-3.22,2-1.07,2.32-.35,7.5,1.06,1.79-.89,2.5-.53-.18-1.25.18-2.15,1.42-1.78.18-2.15-.53-2.32,2.5-3.21,3-2.5,2.32-.36,5.36.36,5.89-3.93,1.43-4.29-4.1-5.89.89-1.79.54-2.14,1.78-1.43,5.18.36,2.32.89h2.86l1.43-1.6L798,149l5.36-.35,6.25-2.32,2.5-.18,3.71.69,1.12-.5.77-1.54,1.76-.12.75-1.12,2.78-1.28.77-1.32,1.88-.18.69-1.44.06-1.47Zm-100.84-.9-6.78-.36-2.15.54-1.6,1.07-5-.36-1.79,1.07-1.25,2v2.32l1.25,4.1-.18,2.15.36,2.5,4.82,2.32-.18,1.78h-2.86l-2.14.9-10-1.07-3.75-2.5-1.07-4.29-2.5-.18-2.32-1.6-1.25-2.15v-2.68l-.72-2-1.6-1.25L680.12,136l-1.25.18-1.25,1.78-2,1.07-2.15.18-1.07-2.14-.53-5.18.89-2,1.79-1.6,2.68-3.75-.18-8.21-1.43-2.69-3.57-3.39-5.72-.71-1.78-1.25-.72-2.32.36-2.32,1.78-1.07V99.91l1.25-1.43.36-.72,1.25-1.25,1.25-2.68,2.32-.7.89-2.33,3-3.57,2-.89,2.5-.18,1.61-1.07.89-2.32,3.75-2.14.9-2,2-.89,2.5-3.93,1.43,1.6,2,3.58,4.64-.36v2.68l-.71,2V86l2.85,2.86L702.8,94l1.07,1.61,2.86,2.5.53,1.78-1.42,1.61-.54,2.32,7.68,6.6.53,4.65-2.32,4.82-1.07,1.25,1.43,1.43.36,2-1.25,1.61.89,2,4.82,3.57,3.93,1.79,2.32-.72,1.61.72Z"/>
  <path id="854e2d81-a31d-467a-be06-3c2b5fcf4966" data-name="taipei" class="0588604d-1751-4131-b1a6-0b9135a703c4" d="M670.12,93.83l-1.25,2.68-1.25,1.25-.36.72L666,99.91v2.68l-1.78,1.07-.36,2.32.72,2.32,1.78,1.25,5.72.71,3.57,3.4,1.43,2.68.18,8.21-2.68,3.75-1.79,1.61-.89,2,.53,5.18,1.07,2.14,2.15-.18,2-1.07,1.25-1.78,1.25-.18,2.86,1.25,1.6,1.25.72,2v2.68l1.25,2.15,2.32,1.6,2.5.18,1.07,4.29,3.75,2.5,10,1.07,2.14-.9h2.86l.18-1.78-4.82-2.32-.36-2.5.18-2.15-1.25-4.1v-2.32l1.25-2,1.79-1.07,5,.36,1.6-1.07,2.15-.54,6.78.36.54-1.43-1.61-.72-2.32.72-3.93-1.79-4.82-3.57-.89-2,1.25-1.61-.36-2-1.43-1.43,1.07-1.25,2.32-4.82-.53-4.65-7.68-6.6.54-2.32,1.42-1.61-.53-1.78-2.86-2.5L702.8,94l-.18-5.18L699.77,86V83.3l.71-2V78.66l-4.64.36-2-3.58-1.43-1.6-2.5,3.93-2,.89-.9,2-3.75,2.14-.89,2.32-1.61,1.07-2.5.18-2,.89-3,3.57-.89,2.33-2.32.7Z"/>
  <path id="6fa11d4e-ee21-4f37-be13-4703937ab251" data-name="path3690" class="0588604d-1751-4131-b1a6-0b9135a703c4" d="M669.8,248.29l-.47,1.15-1.64.51-3.54.25-1.26.76-1.77,2.4-.63,5.05-2.27,3-.38,1.51-.63,1.27-.38,1.51L653.42,271l-.26,1.64H651.4l-1.39.63-1.14.89-.39.71-.85.92.1.64,1.14.76.63,1.39.13,1.77.5,1.39-1.26,1.13-.51.26-.5.75-1.26.76-1.39,1.52-.38,1.64.63,1.26.13,7.32-.76,1.78-1.14,1.38-1.39,1-1.64,2.53-1.77,1.39-.51,1.26-1.39-.12-3.4,4.92-1.27.76-1.89-.38L629,313.73l-1.39.75-1.14,2.91-.88,1.14-1.52,1.26-1.26,2.52.1,1.57-.7,1,1.44,1.69.9,1.78.53,2.15-.89,7.14,2.68,2.68,2,.71h4.82l4.11,7,1.79.89,2.68-.36,1.25-1.6,1.6-1.25,2.32-.36,1.79-.89,7.14-.9,2.15,1.08,1.07,1.78,1.6,1.07,1.28,2.11,12,7.7h8.08l3,1.26,4,.51,8.08,5.56,8.34,1,3-.76-3-2.52.75-3,3.29-.76,2.27-1.52,2.27,1,2-1.77-.76-1.51-2-1.77.26-3.28,2-.76,4.29,3.79,4.8,1.51,4.54,3.54,9.1,3.78,7.32.51,8.08,4,4.13.5-.23-4-.75-1.25.13-3.66,2.53-4.81.37-1.5,1.54-2.53.5-10.88.5-1.62.87-1.16v-2.12l1-3.53,1.78-2.41.5-1.78,2.66-1.63,1-1.15,1.28-2.63.12-1.78,4.53-4.28,4.57-1.9h1.87l.53-.25-1.4-.75-1-1-.75-1.25v-1.91l-2.53-1.5-.5-4.94,1.75-1.12.87-1.28,3.28-.63,2.78-1.75,1.66-.37.5-1.66-.13-1.5-.62-1.78-.13-1.78-.75-1.12-.28-3.54.78-1.12-.9-1.41.65-1.5h1.88l-.25-1.4-1-.88-.25-.5,1.5-.65-1.25.28-1.78-.66-.13-1.25-2.4-2.15.4-1.63,1.75-.12,1.53.87.25,1.78,1.75-.12,1.53-.78-3.65-3.66-3-1-.41-.75-.5-.15-1.62-2.25-.13-1.29-3.65-9.09-.13-3.78-.78-1.13.38-.62v-2l-.5-1.66.5-10.22-2.91-3.15-.88-1.5v-1.66L771.85,227l-.63-3.41.13-1.78-1-1,.5-14,.65-2.16v-1.87l1.25-2.78-.25-3.66,1-3,.13-1.78,2.41-5.16.25-1.78,1.28-2.15,1.5-.75,1-2.91.9-1.12,1.38-.5,3.78-4.44,1.28-.63,3.15-3.65.25-3.53.5-1.53,2.79-1.63,1.5-.37,1.53-2.16,1.18-.94,1.22-.59,2.5-3.53.28-1.87,1.75-1,1.79-.25,1.24-.51,1.13-1.12,1.66-.25,1.25-.78,1.9-.13,2.7-1.23-3.62-.71-2.5.17-6.25,2.33-5.36.35-6.79,4.82-1.42,1.61H786.9l-2.32-.9-5.18-.35-1.79,1.43-.53,2.14-.9,1.79,4.11,5.89-1.43,4.28L773,173.76l-5.36-.36-2.32.36-3,2.5-2.5,3.21.53,2.32-.18,2.14-1.43,1.79-.18,2.14.18,1.25-2.5.54-1.78.89-7.5-1.07-2.32.36-2,1.07-2.68,3.21-4.82,2.59-.53,1.7L732.79,200l-1.07,1.78-2.14.72-.72,2-1.6-1.79-3.58,1.79-10.53,1.25,1.43,1.25-.54,2.14-2.32,1.79-2.5-.72-1.78,1.08-2.15.53-.89,2,.18,2.5-.36,2.31-2,1.61.35,2.5,1.43,1.43.72,2.15v2.67l-1.43,4.29-2.32.35-1.61,1.25-1.07,1.61-2.14.72-2.68.17-5.9,3.22-.53,2.5-5.18,3.39-4.64.72-2.33,1.43-5.13-.29Z"/>
  <path id="7dcc9eef-e5d2-4a6f-bd0d-ba72863c2839" data-name="path2707" class="0588604d-1751-4131-b1a6-0b9135a703c4" d="M669.88,248.27l-.55,1.17-1.64.51-3.54.25-1.26.76-1.77,2.4-.63,5.05-2.27,3-.38,1.51-.63,1.27-.38,1.51L653.42,271l-.26,1.64H651.4l-1.39.63-1.14.89-1.52,1.94-.75.45-1.77.38-3.66-.5-1.52-.89-1.26-1.89h-.89l-.76-1-.5-1.52-1.39-.5v-3.92l.76-1.39.38-1.77-1.52-.75-1.64-.26-1.26-.75-.13-3.79,1-1,.13-1.9.5-1.51-.25-1.9-1.64-.76h-1.9l-.63-1.26-.25-1.77-.76-1.26-1.14-.89-2.27-2.9-2.9-1.39-3,1-1.38-.5V238.2l1.13-1.14.63-1.26V232l-2.14-.38.13-4.42.5-1.39.88-1.26.38-1.65-1.26-1.26-.63-1.51-1.77-.38-1.26-1.27-1.39-.5-1.77-.13-.51-.76h-.25l-1.64-.88-1-1.26-1.52-.89-.38-.63-.12-1.14-.89-2.4-1.51-.63-2.15-.37V207l-1.52-.51-3.91,1.77H593.3l-5.68-4.54-1.39-.63L585.09,202l-2-.76V199.8l-1.9-.25-1.77-.63-3.53-2.78-.63-.89-3-1.89.38-1.64,1.76-2.78-.5-5.56-1.39-1-11.74-1-.76-1.51-.25-1.9,1-.88-1.39-.76-1.26.88-1.65.63-1.89.13-1.64-1.26-2-.63H549l-1.26-1.39-3-1.14.13-3.66.63-1.52-1.13-3-.13-1.77-1.77-.12-2.14-2.15-3.67-.25-4.29,1.26L530,160.78l-4.29,2.52-3.11-.83.46-.8,1.25-1,3-4,.62-1.37,1.28-1.29,1.25-.75,1.78-1.9v-3.66l-.9-1.25.12-1.78,3-3.78,1-2.9,1.13-.88,2.4-3.53,4.66-4.06,3.94-1.75,1.62-.25,1.16-1.16,1.5-.5,2.53-1.62,1.25-1.41,1.65-1,1.75-.5,2.79-2.16,1.53-.62h2l12.12-3.16,1.53-1.28,3.53-1.62,3.66-3.66,1.65-1,2.13-.12,8.34-3.41h1.91l1-1,3.53-.75,1.53.5,2.5,2,2.35.08.79,1.87,1.25,1.43,1.25.36,1.25,1.6,5,.54,9.28,4.46-.53,3.58,2,1.78,5.18,1.25h5.36l1.25.89L645.1,125l.54,2.32V128l-.89,1.79.35,2.32,1.25,1.43,2.32,1.61-.89,1.6-2,1.25-2,.72,2.14,1.6.18,2.15-1.6,1.07-2.15.71-2,3.57-2.86,2-11.25-.36-1.78.89-.54,2.15,1.07,2-.53,5-1.43,1.43-.9,2,1.25,2.32,2.15.18,1.6,1.25L625.1,168l-1.25,1.42-.89,2,.89,4.28,4.47,2.68,3.39,5.18-1.25,1.61.36,2.14,2.67,1.79-1.6,1.25-4.65.89-.17,2.15,2.5.35,1.6-1.25,1.61,1.61,1.78,1.07,2.86.71,2.68-.18,2-1.07,5.36-.35,1.25.71.36.9,1.43,1.42.71,2L654,202.1l1.6.89,1.61,1.78.18,2.5.89,2.5,2.32.72v2.68l-1.6,1.07L658,215.85l-3.22,2.67-1.07,2,.36,2.32.89,1.79v1.07l2,5,3.21,3-.54,2,2.5,1.07.18,1.78,2.5.72,1.43,2,2,1.43.53,5,1.21.64Z"/>
  <path id="b598e80c-966c-49df-b5fd-d1b8a6c747f0" data-name="path2732" class="0588604d-1751-4131-b1a6-0b9135a703c4" d="M492.1,228.44l.2,1.05,1.26.63h2l1.39-.5,1.14-.88,1.39.5,1.89,2.27.51,1.64v1.52l4.87,1.26.69-.5,2-2.4.38-3.66,1.26-2.91,1.64-.37,1-1.52,1.52-.63,1.13-.89.51-1.51.89-1.39,5.42-1.27-.5-1.39,1.14-1.76,1.51-.51h1.9l7.07,7.2,1.51-1v-3.79l-3.28-11.11-1.89-2.65L527.29,201l-3.66-.38-.13-.63-.51-1-1.39-.88h-1.89l-7.7-1.9-1.9-2.65-.5-1.39L508,191l-1,.78-1.53.62-5.06,7-1.25,1.12.62,3-.25,1,.5.53,1.91.12.25,1.63-.75,1.53-.37,3.53-.79,1.12-.12,3.91-1.88,2.53-.5,1.53,1.38,1.12-.75,1-.63,1.79L495.47,227l-1.78,1-1.59.47Z"/>
  <path id="fe0c6edd-4217-442b-98c6-6e138b028beb" data-name="path2726" class="0588604d-1751-4131-b1a6-0b9135a703c4" d="M622,324.94l-1.69.89-.63,1.39-1.27.76-5.81-.12-1.26.63-5.68-.13-.89-1-.12-2.15.25-1.26-.63-.76V319.4l-.89-1.27-1.51-.88L600.76,316l-.63-1.51-2.15-2.4-.63-1.52-1.52-.75-.75-1.14-1.65-.89-.5-1.26.25-2.9L592,302.09l-3.66-.25-1.51.51-2.65,1.76h-4.3l-1.39.76h-1.89l-1.26-1.14-7.58-.37-1.39.5-1.51-.38H563l-2.14,1.9-3.41,1.39L554,306H548.1v-2.15l-.88-1.89v-2l.76-1.52,2.14-2.27.51-1.52-.13-1.89L549,289.84l-2.65-2.14,2-3.28,1.13-4.17,1.14-1.39.13-1.77.88-1.26.38-1.65-1.39-.75L549.49,270l-1.89-.51-1.39-3.15-.89-.38-2,.5-1.51.89-2.4-1.9L538.5,264l-1.64-.37-1.26-.89-2-3.15-1.77-.26-1.77-.75-.13-1.77-1.13-1.27-1.77-.25-3.29-2.14-.88-1.52-1.39-1.39-1.64-2.9-.25-1.77-2-.76.38-1.27.89-1.38.25-1.65,1-1.26-1.39-.76.89-1.14-3.54.26-1.26,1-1.52.63-.88-1.14h-2.91l-1.51-.76-1-1.2,2.5-3.09.38-3.66,1.27-2.9,1.64-.38,1-1.52,1.52-.63,1.13-.88.51-1.52.88-1.39,5.43-1.26-.5-1.39,1.13-1.77,1.52-.51h1.9l7.07,7.2,1.51-1V217.6l-3.28-11.11-1.9-2.65-3.4-2.9-3.67-.38-.12-.63-.51-1-1.39-.88h-1.89L512,196.14l-1.89-2.66-.51-1.38L508,190.83l.56-1.5,2-2.53.5-1.78,1-.87.63-3.41,5.56-6.94-.75-1.53-.37-1.91,5.47-7.89,3.11.84,4.29-2.53,2.27,1.52,4.3-1.27,3.66.26,2.14,2.14,1.77.13.13,1.77,1.14,3-.63,1.51-.13,3.66,3,1.14,1.26,1.39h1.9l2,.63,1.64,1.27,1.9-.13,1.64-.63,1.26-.89,1.39.76-1,.89.25,1.89.76,1.52,11.74,1,1.39,1,.51,5.55-1.77,2.78-.38,1.64,3,1.9.63.88,3.54,2.78,1.77.63,1.89.25v1.4l2,.75,8.21,6.31H595l3.91-1.76,1.52.5v1.9l2.15.38,1.51.63.89,2.4.12,1.13.38.63L607,215l1,1.26,1.64.89h.25l.51.75,1.77.13,1.39.51,1.26,1.26,1.77.38.63,1.51,1.27,1.27-.38,1.64-.89,1.26-.5,1.39-.13,4.42,2.15.38v3.79l-.63,1.26-1.14,1.14V242l1.39.5,3-1,2.9,1.39,2.27,2.9,1.14.89.76,1.26.25,1.77.63,1.27h1.9l1.64.75.25,1.9-.5,1.51-.13,1.9-1,1,.13,3.79,1.26.76,1.64.25,1.52.75-.38,1.78-.76,1.38v3.92l1.39.5.51,1.52.76,1h.88l1.26,1.89,1.52.89,3.66.51,2.6-.72,1.44,1,.63,1.39.13,1.77.5,1.39-1.26,1.13-.5.26-.51.75-1.26.76-1.39,1.52-.38,1.64.63,1.26.13,7.32-.76,1.78-1.14,1.38-1.39,1-1.64,2.53-1.77,1.39-.5,1.26-1.39-.12-3.41,4.92-1.27.76-1.89-.38-1.39,2.78-1.39.75-1.14,2.91-.88,1.14-1.52,1.26-1.26,2.52-.13,1.77-.7.86"/>
  <path id="ece12d14-ec66-402d-a633-af47d4b395e6" data-name="path2781" class="0588604d-1751-4131-b1a6-0b9135a703c4" d="M508,237.32l1.51.76h2.91l.88,1.14,1.52-.64,1.26-1,3.54-.25-.89,1.14,1.39.76-1,1.26-.25,1.64-.89,1.39-.38,1.26,2,.76.25,1.77,1.64,2.91,1.39,1.38.88,1.52,3.29,2.15,1.76.25,1.14,1.26.13,1.77,1.77.76,1.77.25,2,3.16,1.26.88,1.64.38.89,1.52,2.39,1.89,1.52-.88,2-.51.89.38,1.39,3.16,1.89.5,1.14,3.41,1.39.76-.38,1.64-.89,1.27-.12,1.77-1.14,1.38-1.13,4.17-2,3.28,2.66,2.15,1.51,2.9.13,1.9-.51,1.51L548,298.45l-.76,1.51v2l.88,1.9V306h5.94l3.41.76,3.41-1.39L563,303.5h1.9l1.51.38,1.39-.51,7.58.38,1.26,1.14h1.9l1.39-.76h4.29l2.65-1.77,1.52-.51,3.66.26,1.14,1.51-.26,2.91.51,1.26,1.64.88.76,1.14,1.51.76.64,1.51,2.14,2.4.63,1.52,1.14,1.26,1.52.89.88,1.26v3.79l.63.76-.25,1.26.1,3.87L603,330l-2,1.61-1.43,1.78-.18,2.5-3.39,5.54v2.68l-2.14.53h-2.69l-1.78-2.5.89-1.43-2.67-1.07-2,.9-.72,2.14-1.25,1.79-2.31.71L576.58,352l-2,.71h-5.36l-1.78,1.25-.72,2-.71.17-2,2.15-.35,2.5-2.15.53-3.39,2.86-2.14.54-5-.54-4.47,1.61-5.36,6.78-2.67.18-2-1.07-3.21-3-.36-2.5-1.79-1.25-2.67-3.92-1.61.35h-2.68l-2-.89-5-.36-6.07-2.14-4.83-.18-2.14.89L502.83,360v2.68l.9,2,.35,5-.89,2L501.4,373l-2.14.71-10.36-.35-2,.89h-5.36l-5.18-1.6-3.21-3-1.07-2-1.61-1.25-11.25-2.15-3.39-2.85-2.5-.72-1.43-2-3.57-2-1.43-1.6-2.15-.72-1.25-1.61-.89-.35-3-.36-1.25-1.78-3.21-2.15-7.5-9.64h-.36l-.89-1.79L421.94,335l-2.33-3.75-.35-2-3.77-4.72,1.58-.71,3.78-3.15,3-3.94.63-1.38,5.19-6.81,1.25-3.15,1.4-1.91,9.47-28.16,2.25-2.9.13-.75,1.15-1.25,3.16-.78,2.65,2.28,1.13,1.65.37-1.53-.37-2,2.65-1.62h1.38l1,.25-.13-1.66-1.65-.75-1.5-1.12,1-.88.62-3.28,3-5.31,1.66-.25,2-2.41,5.56-.25,4.41-2h2.41l3.9,1.41,1,1,2.25.5,1.28-.75-.75-1-1.9-.25-1.5-.66-.78-1.62-1.75-.25.12-1.78,1-1.13,1.53-.75,5.53-4.69.53-1.62.88-1.16.37-1.5v-1.9l1.25-2.78,1.28-1.13.88-1.28,1.93-.84.47,1,1.26.63h2l1.39-.51,1.14-.88,1.39.5,1.9,2.28.5,1.64v1.51l4,1.14,2,1.49Z"/>
  <path id="c9c705ff-a7b9-4390-a4c0-8839516f8586" data-name="path2785" class="0588604d-1751-4131-b1a6-0b9135a703c4" d="M304.54,522.44l6.31,2.27,3.79.25,5.81,1.77,16.16-.76,2.78-1,14.64.25,2.53-1.26,5.05,2.78.76,1.26,4.29.51,8.08,4,6.31,1.51,7.33-.25,3-.76L422,538.09l5.8-1.76,2-1.77,1.26-2.53v-3.28l-2-.51-2.52,1.27h-3.29l-2.52-1.27-7.33-7.82.26-2.27,1.26-2.53-1.77-2,1.52-2.53.5-3.28,1.27-2.52,1.26-9.6-.51-2.78.51-2.27-1-5.56,1.52-2.27,2-1.77,1.26-2.52.25-3.54-1.26-2.77-1.77-2-.5-.26.25-3.78H426l4-2.27-5.76-4.78-1.07.71-3.57.36L418,458.72l-2.5-.18-1.43-7,.89-2v-2.85l-1.78-1.43-1.61-2.15v-5.35l-.35-.9-1.61-1.25h-2.5l-7.5-2.14-2.68-.18-2-1.07-2.15-.54-1.6-1.25-2-.89-1.43-2.32h-.53L385.5,426l-1.25-1.61.18-2.5,1.25-1.6-3.21-3.4-.36-2.68L381,411.57l-.36-2.32-2.14-3.39-4.43-2-1.51.37.5,1.5.65.87-1.53.79L369,411.57l0,.13L366.29,416l-1.25.78-5.57.12.25,1.5,1.53,1.28-.12,3.66-1,.87-.63,1.38-.37,1.78-.88,1.25-.12,3.81-.13.38-1,1.5v1.9l.63,1.25-.25,1.91-1.38,1.25-3,1.16-.75,1.75-2.28,2.4-.25,3.53-.62,1.41-2.66.5-1.41,1.12-1.62.25-2.41,1.78-1.37.5-.38,1.63-4.06,3-.75,3v2.16l-.87,1.53-.25,1.62-1.28.88-.63,3.28-2.41.15-1.87-.4-1.41,1.15-1,4.91.38,1.16h3.78V480L324,487.19l-.25-.13-.41,2-.87,1.13-.38,1.53-1,1-1.28,4.81-2.12,2.38-.53,1.84-1.88,2.53-.62,1.5-.91,1-.25,2.19-1.25.66-1.12,1-1.41.75-.88,1.28-1.4.75v1.37l.9,1.29-.65.5h-1.88l-.87,1.25-.28,3.65-.38,1"/>
  <path id="15f5890f-528a-491e-adf7-956403df2ca9" data-name="path2812" class="0588604d-1751-4131-b1a6-0b9135a703c4" d="M446,595.93v-3l-2.27-2-3.29-.51-1,2.78-2.77.5-3.29-.75-.75,3-3,.5-3.54-.25-2.27-1.52-1.52-2.77-.75-3-4.8,3.54-.25-7.32,2-5.81.25-.25,1.77-4,.5-3.29-.25-3.53-1.52-2.53-.25-7.32.76-3,2.78.51.5-7.08-5.05-10.85-20.71-3-3.79-1.52-2-.25-10.35,1-14.4-5.56-4.29-.5-.76-1.27L356.56,524,354,525.22,339.39,525l-7.57,2-11.37-.26L314.64,525l-3.79-.26-6.44-2.2-3.91.07-1.25-.66-1.41-.25-.5,1.53-1.75.13-6.06,10.84-.13.66-2.15-.13-1.28.75-2,2.41-.63,1.62-.25,3.78-1,1.16-.25,1.62,1.66,2.41-.25,1.78-1.66,2.37-3.16.13-.37,1.53v1.88l-2.16,1.15v2.41l-.12-.13-.5.25-.38,1.63v1.9l.5,1.38,1.91.12,1.37,2-2.28,2.78L275,572.44l-.38,1.5-1.9,3.16-1,3.53-1.28,1.91L267.81,590l.25,7.47-.37,1.5.12,1.41,1.75.87-.12,1.66-1.5.63-2.16,1.62.5,2.15,1.13.63,1.53.25.12,1.91-1,1.25v3.78l1.25.9,2,2.78,1.38,1.13-1.25.75-.91,1.65-1.75.13-.5-1.41-1-.87-1.5.87-2.21,2.54,3.85.13,5.81,2.27H277l1.52,2.27h3.78L285.1,627l6.31,2.27,3.79.5,2.27-1.77,1.77-2.27.25-3.53-.75-3,2-2H304v3.28l3.54,1.26,1-2.77,4.79-2.78.76-3.54,1.77-2,6.31-2.52,2.78,1.51,1.77-6.06,1.52-2.52,4,.25,2.52-1.26,1-3,5.81-1.77,1-2.78,2.27-1.77,1.77-2.27,2.78,1.26,2.27,1.77,2.78,1,5.81-2.27h7.57l5.31-2.77,5.05,1.26,1.51,5,4.3,3.53,1.51,2.28,2.53,1.51,3.53.25L394,603l3,1,13.89,1.52,2.77-1.52,1.77-2,5.56.26-.51,3.78,2,3.29,2-2,3.28-.76,2,2,3-.25,2.78-1,3.53.26,2.78,1.51,3.53.51,1.27-2.53V603.5l-.76-3-1.52-2.27,1.51-2.27Z"/>
  <path id="945aa11a-8326-4c05-9ae7-c9673fea18e3" data-name="path2843" class="0588604d-1751-4131-b1a6-0b9135a703c4" d="M675.34,655,672,654l-2.27-1.77-3-.76h-3.79l-2.77,1-4.3,3.54-7.32,13.13-.25.25.5,4.55,2,2.27,3.28,1.77v.25l-12.12,18.44-.5,8.84-1.77,2.27-2.27,1.52-1.26,2.52-1.52,6.06-2.27,1.77v3.79l-1.52,2.78-.25,2.78-3,5.8-4.3,3.54-1,2.78.76,3.53V756l-1,2.78-9.85,1.52-2.52,1.77-2-.26-.26-3.53L605.57,755l-2-1.77L599,753l-1-.76L596.22,750l-3-1-2.52-1.51v-2.78l-3.79-5.3v-4.3l-1.27-2.77L583.85,730l-5.06-3.29-5.3,2.53-.5,1.26h-1l-2.77-1.26-1.27-2.53-3.53-4-3.54-.25-5.3-3.28h-4.29L550,716.64l-.75-.76-3.79-9.09.25-3.79-3.79-4.79-.76-2.53.76-3-.25-3.53-15.4-10.61-3-.76,1-3.53,1.77-2.53,3.28-1-.51-2.27,1.52-2.27,3.28-.51,1.52-2.27v-7.07l-2.27-1.51-.51-1.65,1.26-1.14,3-.75,3-2,3-.76.76-3.54-1-3-2.27-1.76,1.77-2,.75-3.28,2-2.27L547,631l.76-3,2.27-1.51,3.53.25,2.78-1.26h3.79l1.26-.51,2.53,1.52,3,.75,4.79-4v-7.58l.76-3,2.27-1.52-2.27-6.31,2.53-1.26,3.78,1,2.78-1.27,1.52-2.27,3.28-1.51,4.55-.26,3.78-8.33L596,580.53l1.26-2.53v-3.79l2-5.55v-9.35L596.73,557l-.26-3.54.76-2.77-8.08-5.81.26-3.54,3.28-.76,3-2.27v-1.51l-.76-3,.5-3.54,2.28-1.51,1-3.29.25-3.79,1-3,2-2.53.25-3.79,2.27-2.27,3-.76-.51-5.55-1.77-3,4.29-3.79-.25-3-1-3.28v-3.79l.76-2v-7.58l-2-2.52-1-.26v-3.53l6.06-12.88.25-7.32,2.28-2.28,2.52-1.26,1.52-2.52,2.52-1.27,2-3.53.76-2.53.25-3.53-1.51-2.27L619.2,431l-1-2.78-1.77-2L612.63,425l-.75-1-.26-6.32,2.78-6.56,3-.76,2-1.77,2.78-1.26L626,403.5h3.78l1.52-2.27-1.75-5.6,2-1.55.9-1.78-.18-2.5,3.75-1.61,1.07-1.61,2.68.18,1.43-1.25.53-2.32-.89-4.64,1.25-2,2.32-.89,1.61-1.07,1.78-4.11,1.43-1.6h2.68l1.78-1.25,1.43-1.79,2.15-4.28.71-7.32.9-2,2.32-1.25,1.27-1.46,12,7.7h8.09l3,1.26,4,.51,8.08,5.55,8.33,1,3-.76-3-2.53.76-3,3.28-.75,2.27-1.52,2.27,1,2-1.77-.75-1.51-2-1.77.25-3.29,2-.75,4.29,3.78,4.8,1.52,4.55,3.54,9.09,3.78,7.32.51,8.08,4,4.16.49-.13,1.28-.62,1.25-1.5.65-.91,1.5-2.25,2-2.65,3.91-.13,5.56-1.16.88L748,386.33l-1.5.63-.78,1.9-.25.13-3.53.37-3,5.44-1.25,1-1.66.25L732.71,399l-1.5.37-.91,1.13-1.25.78-3.9,5.28-1,3.28v5.69l2.4,4.31-.75.75-.5,5.19-.25.5-.37-.25-1.41,2.44-1.37.47-3.22,3.72-1.53.81-4.35,4.69-.62,1.37.12,11.88.63,1.25.5,3.28,7.19,7.47v1.87l-1,3.41-1.41-.38-.37,1.66.65,1.25-1.53.5-1.12,2.53h1.62l-.75,3-1.9.12-.75-1.12h-1.5l-1,.87-.62,1.66-1.13,1.12-1,3,1.41,3,.12,5.56-1,3.41-.12,5.28-.53,1.65-.13,5.57-.62,1.25-.38,3.4-1.9,4.32v1.87l-.63,1.41-.25,1.62-1.87,3.94-.28,1.75-3.28,4.81-.63,2.13v10.5l.5,1.37-1.37,6.44-3.53,5.44-1.66,1.12v1.78l-.63,1.38-.12,1.78.87.62.75,2.54-.87,1.12-.25,1.66-.63,1.25-.87,6.93-.91,1,.13,1.25.78,1.16-1,1.12-1.5.63-.5,3.41L686.5,588l-.13,12.75-.87,1.75-.13,3.93-.87,3-1.41,1.25-.37,1.65-1.63,2.38-.15,1.9-1.25,3.28-.13,3.66-.87,1.4-.25,2.13.5.37.62,1.66v3.78l1.66,2.53-.13,3.66-.53,1.53-1,1.12-1.5.63-1.78.12.38.5,1.65,1-.78,1.5v1.91l-.87,3.28v1.91l-.63,1.5-.69.82Z"/>
  <path id="d82ca305-6f5b-4b18-a666-0a8b5147117d" data-name="path2425" class="0588604d-1751-4131-b1a6-0b9135a703c4" d="M417.93,537.84,423,548.7l-.51,7.07-2.77-.5-.76,3,.25,7.32,1.52,2.52.25,3.54-1.52,6.06-.76,1.27-.25.25-2,5.81.25,7.32,4.8-3.54.76,3,1.52,2.77,2.27,1.52,3.53.25,3-.51.76-3,3.28.75,2.78-.5,1-2.78,3.28.51,2.28,2,.09,3,6.47-.74,11.62,4.29h3.79l3.28.76,1.26,2.52.26,8.59-.76,3.28-2.78,2.28v3.78l1.52,2.53,2.27,2,.5,7.32,2.53,5.81,2,2.27,11.36,1.27,5.56-2.28,11.11,1,2.78,1,11.87.75,6.31,2.28h.5l2.53,1.76,1.26,6.32,1,.5,1.27-1.26,3-.76,3-2,3-.76.75-3.53-1-3-2.27-1.77,1.77-2,.76-3.28,2-2.28L547,631l.76-3,2.27-1.52,3.54.25,2.77-1.26h3.79l1.26-.5,2.53,1.51,3,.76,4.8-4v-7.58l.76-3,2.27-1.51-2.27-6.32L575,603.5l3.79,1,2.78-1.26,1.51-2.27,3.28-1.52,4.55-.25,3.79-8.34L596,580.52l1.26-2.53v-3.78l2-5.56v-9.34L596.72,557l-.25-3.53.76-2.78-8.08-5.81.25-3.53,3.28-.76,3-2.27v-1.52l-.76-3,.51-3.53,2.27-1.52,1-3.28.25-3.79,1-3,2-2.52.25-3.79,2.27-2.27,3-.76-.51-5.56-1.76-3,4.29-3.79-.25-3-1-3.28v-3.79l.75-2v-7.57l-2-2.53-1-.25v-3.54L612.13,458l.25-7.32,2.27-2.27,2.52-1.27,1.52-2.52,2.52-1.26,2-3.54.76-2.52.26-3.54-1.52-2.27L619.2,431l-1-2.77-1.76-2L612.63,425l-.76-1-.25-6.31,2.77-6.57,3-.75,2-1.77,2.77-1.27L626,403.5h3.79l1.51-2.28-1.71-5.63-1.44-.8-4.82-1.07-1.25-1.25-4.82-.53-1.07,1.6-5.18-.35-2.14-.72-1.07-1.6-3.22-2.32h-.89l-2.32,3.75-.54,2.14-1.25,2.14-2,.72-2.5-.9-1.61-1.07-4.1,1.79h-2.68L585,398.19l-.89,1.78-4.29-1.25-1.25-1.42-2-.9L575,397.47l-1.25,1.61-2.5.18-.71,2-1.25,2-1.43,1.25-10.54.18-1.78.89-.54,2.14-1.25,2-1.78,1.07-1.25,1.61-2,1.25-1.25,2-3.93,2h-4.1l-1.61,1.08-4.29-.54-2.5.54L529.59,420l-2,6.26L525,428.9,523.17,430l-5.18.17-2.32-.53-1.43-1.25-2.32.36-6.08,5.17-2.5.54-2.5-.36L498,432.65l-.36-.53L496,430.69,495,435l-.89,1.78L492.63,438l-.71,1.61-1.07-.54v-5.36l-1.61-1.43-4.64-.89-1.07-1.61-2.32-.71-1.61,1.07-3.75,7.5.36,6.61-1.25,1.6-4.47,1.25-3.21,3.22-3.75,9.82-6.43,7-4.29,1.43-2.14.18-1.79-1.61-2.5-.53H441l-2.15.53-9-3.3L426,466.13h-7.58l-.25,3.78.5.26,1.77,2,1.26,2.77-.25,3.54L420.2,481l-2,1.77-1.52,2.27,1,5.56-.5,2.27.5,2.78-1.26,9.6-1.27,2.52-.5,3.28-1.51,2.53,1.76,2-1.26,2.53-.25,2.27,7.32,7.82,2.53,1.27h3.28l2.52-1.27,2,.51V532l-1.26,2.53-2,1.77L422,538.09l-4-.25Z"/>
  <path id="3d8d2341-e36a-469b-97d8-660f7d6aeab8" data-name="path2856" class="0588604d-1751-4131-b1a6-0b9135a703c4" d="M675.24,655,673,661.82v1.91l-1.4.87-1.75,7-.13,5.78-1.78,3.82.13,5.53-1.13,5.56-1.53,1h-1.87l-1.53.38-1.25,1-1.13,3.15-.78,1.25-1.37,1.28-.63,1.38-.12,1.66-1.16,1.12-.38,4.06-1,1.25-2.4,9.72.87,1.13.53,1.4-.78,1.25-1.5,1.16-1.4-.25-.88-1.41-1.12.5,1,1,.12,1.38-3,2,.32,7.94,1.9,3.78.38,1.78-.25,3.65-1.41,1.41.13,5.41,3,3.15-.88,2.91-3.65.12-1.25,1-2.16,4.16-1.28.62-3.78.13-.87,1.16-1.38.75v1.9l-.78,1.25v1.91l-2,2.87-1.41,4.94-1,1.38-.87,5.68-1.16,1.66L627,789l-1.12.79-1,1.12-1,2.9-1,1.63-1.28,5.06-.75.88-.5,1.53v1.87l-3.28,3.44-.5,1.38-1.79.12-1.12,1-.88,1.53-.65.25-.25,3.16-3.41,7.44-2.15,2-2.13,4.4-.62,3.16-1.16,1-1.5.38-2.4,2.53-.13,3-3.16-.78-1.4.53-3.41.5-5.81,4.78-.75,1.15-.25,1.63.63,1.28,1.78,2,.37,1.28h-1.9l-.75,1.25.62,1.25,1.28.66,1,1.12-.37,1.78,1.12,2.75-.5,1.66-2.12,1.9-1.66.25L581.73,866l-1.28,8-2.16,2-2.75,1.15-1.16,1-.75,1.25-2.53,2-.75,1.13-1.12.78-1.53.62-3.78,4.54L561.26,890l-1.53.37-1,.88-1.38.62-1.9.28-1,1-1.78.13-.88,1.12-2.4,1.41-1,1-2.66,1.25-.37,1.53-1,1.25-1.78.12-1.13,1-4.06,1.75-1.13,1-1.65,2.63-.88,3.15-1.12,1.29-.25,1.62-.91,1.16-.12,1.75-.75,1.53.12,1.75-.19.59-.18,5.22-.75,1.47-.07,1.37-2,2.85L524,934.3l-.87,1.29-1.66.87-.75,1.25-.25,1.66-.87,1.25-.13,1.78-.65,1.62v1.91l-1.25.75v2.53L514.67,956v1.91l-.88.87v3.78l-2.15,4.19.12,2.13-1.25,1.65-.53,3.53-.87,1.13-.25,3.53-1,1.28-.38,1.75-1.9,2.53-.5,1.41-.88,1.12-3.56,10.1-.88,1.28-.5,5-2.53,2.53-2.9,9.09v3.53l-.63,1.41.25,5.4,1.28,1.66v7.81l.88,3.16.09,4.65-3.51,1.17-2,1.77-3.28,1.26-2.78-4.8-3-.75h-4l-1.26-2.78-2.78-1-2.27-1.52-4.29.25-.51-2.27.76-3.28,1.77-1-2.78-1-1-2.53-4.8-2.77,1.77-2.28,2.53-1.26-.26-7.57-2.52-1.52-1.26-2.52h-2.78l-3.79-4-3.54-1.77,4.8-14.65,6.57-1,1.26-2.78-.76-3.28-2.77-2-2.53-5.31-4-2.52-.25-3-1-3,4.29-3.28v-3.79l-4-8.08-.5-4.3-1.77-1-1-3,.5-3.53,2.78-5.05-1.27-2.78,1.52-2.27,1-2.78-.25-3.53,1-2.53,2-2,.76-3,1.77-2,.25-1,4-5.56.25-3.53,1.77-2.27.25-2.53,3.29.51,3.53-1.77,6.06-1.26,3-6.32,11.12-.5,2-2.28.25-3.53,1.77-2,.5-9.85,2-2-1-2.28v-3.78l-1-3.29L493.72,857l-3.29-.25-2.77-2.53-.76-1.51-.76-3v-3.79l.45-1,.72-6.79-2.86-3.93-5.35-.35-2.86-8.57.36-5-1.43-1.43L473.38,815v-5.36l1.07-4.28,10-12.86.72-1.79v-3.93l6.43-4.64-1.43-4.28-2.5-2.5,1.78-4.29,3.57-3.93L492,744.59l3.22-2.14,2.14-5,3.57-1.79-1.07-3.93V727.8l1.43-3.92-.36-1.79-1.07-.71,2.86-3.58,3.57-1.42,6.78-5.72,5-6.43H522l7.86-2.14,2.86-2.86,8.37-3.57.91,2.52,3.79,4.8-.25,3.79,3.79,9.09.75.76,1.27,2.52h4.29l5.3,3.28,3.54.26,3.54,4,1.26,2.52,2.78,1.27h1l.5-1.27,5.31-2.52,5,3.28,1.77,2.27,1.26,2.78v4.29l3.79,5.31v2.77l2.52,1.52,3,1,1.77,2.27,1,.76,4.55.25,2,1.77,1.76,3.28.26,3.54,2,.25,2.52-1.77,9.85-1.51,1-2.78V744.65l-.75-3.54,1-2.77,4.29-3.54,3-5.81.25-2.78,1.52-2.77v-3.79l2.27-1.77,1.52-6.06,1.26-2.53,2.27-1.51,1.77-2.27.5-8.84,12.13-18.44V678l-3.29-1.77-2-2.27-.5-4.55.25-.25L655.85,656l4.3-3.54,2.77-1h3.79l3,.76L672,654l3.23,1Z"/>
  <path id="84d21880-5f75-4cc8-ac9a-69291f87c8b0" data-name="path2905" class="0588604d-1751-4131-b1a6-0b9135a703c4" d="M420.92,720.93l-1,.76-2.53-1.26-6.31,1.26-3-1-3.54-2.52-3.79,5.55-3,.76-3.29-.25-4.29-3-6.06-1.77-1-2.52,3.28-4.8-.76-2.53-2-3.28-.51-2.52,1.27-2.53-1-2.78-.26-3.53,1.52-2.78,2.27-1.77.25-3-1-2.78-3.54-.25-3.79-1.26-1-2.27L380.3,679l-.26-3.29-7.83-.5V672l2.53-1.77,1.51-2.27-2-1.77L372,667.4l-3-.76-2.52-2-3.29-1-1.76-2.27-3.79-1-.25.5L355,662.35l-3.28.25-2-2-3.28.51-5.31,2.52h-7.57l-6.06,3.54-.26.25-1.51,2.52-6.32-.25.25,3-7.07.51-.5,3.28L310.85,679l-1.77,1.52L306.55,679l-2,2,1,2.78-.5,1.77-9.6,4.8-.76,3-3.28,4.8-3,1.26-4.55-1.26-1.26-2V699l-2.52-.25-2.27-2-1-3L273,692.9l-2.76-1.79-.78-1-7.19-1.29-3.91,6.82L259,697l1,.12-.63,1.88-1.28.9-.25,1.75,2.78,1.66,1.16.25,1.62-.5-2.15,3.15-3.41,1.25-.87,1.29.25,1.75.75,1.53-2.5,2.37L255,716l-.75,1.37-2.4-.62-.63,1.28-.75,3.4.13,3.78-4.94,9.22-.5,3.53-1.5,2.54,1.12-1.41,1.53-.63,1.5-.12.63,8,1.15.87,1.5.63-.87,5.31L247,754.51h-.25l-3.53,1.15L240,758.57l-3.28,1.5-.25,3.53.25.5.25,3.69.75.87h1.91l-.13,5.94.75,2.41,2.13,2.5.28.78,1.87-.66,1.28-.87,1.13-1.2,1.51-2.84,5.56-6.31,3-2L277,764.61l1,1,.76,3,6.81-.26.51,2.78,3,.51,2.52-1.27L298,773.2l1.51,2.52-2,2.53-3.28,1.26-5.3,7.58,3.78,2.52L300,799l-3.28,8.33h-3.78l-2.78,1.26-.25,3.54-2.78.5-4.45,8.26,8.49,3.11,2.52-1.26,1.77,1,3.79,4h3.54l.5-.76,2.78,1.26,2,.26,1.51-2,17.94,4,3.78-.26,6.32-5.81,1.77-2.52,3-1,3.53-.26,2.53,1.52h3l1.51-6.31,1.52-.76,1-1.26.5-3.29,3.79-8.84,3-.75,1-3,.26-3.54,5.55-.25.25-3.54,9.1-6.56,3.53-5.56,10.35-7.07,2.28-2.52,3.78-2.27.51-3,.25-.25,1.27-.76.5-3.53,1.26-2.53L403,753l5.55-6.82,1.77-.25,8.08-10.86.26-3.79,4-5,.75-3-2.27-1.77-.29-.5Z"/>
  <path id="f39291f6-4dae-40c2-a9ba-06e8929a8e0b" data-name="path2891" class="0588604d-1751-4131-b1a6-0b9135a703c4" d="M420.88,721l.33.44,2.27,1.77-.75,3-4.05,5-.25,3.79-8.08,10.85-1.77.26L403,753l-.26,3.53-1.26,2.53L401,762.6l-1.26.76-.25.25-.51,3-16.41,11.87L379,784.07l-9.09,6.56-.25,3.54-5.56.25-.25,3.53-1,3-3,.76-3.79,8.84-.5,3.28-1,1.27-1.52.76-1.52,6.31h-3L346,820.68l-3.54.26-3,1-8.08,8.33-3.78.25-10.11-3.28-7.83-.76-1.51,2-2-.25L303.27,827l-.51.75h-3.53l-3.79-4-1.77-1L291.15,824l-8.45-3.19-1.65.66-3.23,3,1.2,1.4.75,4.19,3,6.31v1.88h.66l.25-1.63.62-1.28,1.91-.12,2.12,5.06-.25,1.63-1.87.25-1.41-.88-.75-1.25-.37.88.12,1.78.75,2.25.13,1.78,1.78,3.4v1.38l8.94,21.09.15,1.78,1.5,3.41,1.38,1.75,3.1,6.6,2.86-2.93,8.21-2.15,3.21,2.15,2.15-1.43,3.93-.72,1.07-4.28,1.43-1.79,2.14,5-.71,4.65-2.15,3.21-1.07,4.29-2.86,1.78,2.15,3.93,4.64,4.29-1.78,3.57v1.07l4.64,2.5-1.78,7.5-1.43,2.86L323,920.68l.72,1.78,2.85.36v1.78L321.92,926v3.57l4.64-.35,4.65.71,5-.35,2.5,1.42,3.21,3.93,1.79,3.57v5l-8.93,8.58-1.47,3.31,6.84,5.56,1.75.75,2.78,2.53,5.44,1.62.25-.62-.88-14.53.88-2.91.87-1.12,1.85.44,2.46-2.21,2-5.81.25-3.53,1.77-6.07v-3.78l-3.53-4.3.25-18.18,2-6.06,1.77-2.27,1.77-6.82-.26-4.55.76-1.26-.25-15.15,1.26-2.78.51-3.28,1.26-2.53,1.52-9.85,2.52-1.26,1.77.76,4.55.25,1.51,2.27h3.79l2.78-1.26,6.06,1.51,3.53-.25,2.28-1.77,2.52-3.28.25-1.26,4-3.28,1.27-.51,6.56-4.55,3.54-.25,2.78-2,3-.76,3,1.27,1.76,2v3.78l2.78,1.27h2.78l1-1,3-.76,3.28-4.8,3-.76h3.79l8.59,5.31,6.31,7.57,2.78,1.52,2.77-1.52,1.77-2.27,5-2.52,1.52-2.28H476l1,.26,2.53,1.26.25,1.26,2.27-.75,4.5,3,.71-6.75-2.86-3.93-5.35-.36-2.86-8.57.36-5-1.43-1.43L473.35,815v-5.35l1.07-4.29,10-12.85.72-1.79v-3.93l6.43-4.64-1.43-4.29-2.5-2.5,1.78-4.28,3.57-3.93-1.07-22.5,3.22-2.15,2.14-5,3.57-1.78-1.07-3.93v-3.93l1.43-3.93-.36-1.79-1.07-.71,2.86-3.57,3.57-1.43,6.79-5.71,5-6.43h3.92l7.86-2.15,2.86-2.85,8.49-3.57.79-3-.25-3.53-15.4-10.61-3-.76,1-3.53,1.77-2.53,3.28-1-.51-2.27,1.52-2.27,3.28-.51,1.52-2.27v-7.07l-2.27-1.51-.6-1.75-.92-.28-1.26-6.31-2.53-1.77H527l-9.85-2.77-1,.25-2.53,1.26-6.56,1-2.28,1.52-6.31,1.26-4.29,3.54-1.52,2.52-2.77,1.27-2.28,1.76-3.28.51-2.27,2.52-1.77,4.3-1.77,1.51-1,2.78-1.77,2-.25,3.54-2.78,1H469l-2,2L465.41,679l-4,4-7.07.51L452,689.37,447,691.89l-1,2.78-6.56.5-1.26,6.57-8.09-.25-2.27-2-7.83-.26-1.26,11.62,1.26,2.78,2,2.52v3.79l-1.1,1.08Z"/>
  <path id="66224f7a-f8ec-47cf-8a08-473313a2bf40" data-name="path2887" class="0588604d-1751-4131-b1a6-0b9135a703c4" d="M333.31,955.42l-1.51-.75-3.9-3.28-.63-1.41L325,947.45l-1.37-.75-3.31-3.53-.63-.13-3.28.13-1.62-.38v-.62l.5-.66,2.65-.5-2.78-4.53-1-1-.66-1.37-1-1.13-1.12-.78-1.28-1.75-.63-1.4-2.65-2.63L305.56,923,304,922.2l-.75-1.12,1.12-.75.13-1.91-.88-1v-1.9l-.87-1.38L300,911.61l-.5-1.78.5-1.62.25-4.19,4-3.91-2.5-6.06,3.9,3.9,2.13-2.5-4.53-5.56-1.71-3.77,2.85-2.93,8.22-2.15,3.21,2.15,2.15-1.43,3.93-.72,1.07-4.28,1.43-1.79,2.14,5-.71,4.64-2.15,3.22-1.07,4.28-2.86,1.79,2.15,3.93,4.64,4.28-1.78,3.58v1.07l4.64,2.5-1.79,7.5-1.43,2.85L323,920.68l.71,1.79,2.86.36v1.78L321.93,926v3.57l4.64-.35,4.64.71,5-.36,2.5,1.43,3.22,3.93,1.78,3.57v5l-8.92,8.57-1.48,3.31Z"/>
  <path id="c5f5430b-c909-4f31-a457-d6e8226be808" data-name="path2899" class="0588604d-1751-4131-b1a6-0b9135a703c4" d="M246.88,777.68l.33,1.58L247,781l4.66,2.78.9.25,1.75,1.63,3.16,1.65,3.94,4.16,1.5.75,5.31,4.94.12.5,3.41,3.28,2.41,3.66,1.62-.38,2.28-2.12,1.38-.79-1,2.16-.88,1.13v1.27l3.28.88-1.65,1.41-1.88-.13-1-1.41-.87-.5.75,1.91,1.15,1.5.5,1.66-.5,9.59-.53,1.38,1,2,1.27-.77,2-2,1.54-.57,4.52-8.27,2.78-.5.25-3.54,2.78-1.26h3.79L300,799l-7.32-9.34-3.79-2.53,5.3-7.57,3.28-1.26,2-2.53L298,773.21l-6.31-2.78-2.53,1.26-3-.5-.5-2.78-6.82.25-.76-3-1-1-19.95,1.77-3,2-5.56,6.31-1.59,3Z"/>
</svg>
