<svg version="1.1" id="mabi15th" xmlns="http://www.w3.org/2000/svg" xmlns:xlink="http://www.w3.org/1999/xlink" x="0px" y="0px" viewBox="0 0 1200 802">
    <!-- 圖片 -->
    <defs>
        <!-- 切好圖片 在每一塊路徑上做一塊 圖樣樣式 -->
        <!-- width 100% height 100% -->
        <pattern id="image-01" patternUnits="objectBoundingBox" patternContentUnits="userSpaceOnUse" width="100%" height="100%">
            <!-- 放入圖片 設定好寬度 -->
            <!-- 可製作圖片雪碧圖 -->
            <image xlink:href="images15th-sm/images-sm-01.png" width="152" height="118" x="0" y="0" />
        </pattern>
        <pattern id="image-02" patternUnits="objectBoundingBox" patternContentUnits="userSpaceOnUse" width="100%" height="100%">
            <image xlink:href="images15th-sm/images-sm-02.png" width="121" height="178" x="0" y="0" />
        </pattern>
        <pattern id="image-03" patternUnits="objectBoundingBox" patternContentUnits="userSpaceOnUse" width="100%" height="100%">
            <image xlink:href="images15th-sm/images-sm-03.png" width="160" height="202" x="0" y="0" />
        </pattern>
        <pattern id="image-04" patternUnits="objectBoundingBox" patternContentUnits="userSpaceOnUse" width="100%" height="100%">
            <image xlink:href="images15th-sm/images-sm-04.png" width="141" height="264" x="0" y="0" />
        </pattern>
        <pattern id="image-05" patternUnits="objectBoundingBox" patternContentUnits="userSpaceOnUse" width="100%" height="100%">
            <image xlink:href="images15th-sm/images-sm-05.png" width="106" height="280" x="0" y="0" />
        </pattern>
        <pattern id="image-06" patternUnits="objectBoundingBox" patternContentUnits="userSpaceOnUse" width="100%" height="100%">
            <image xlink:href="images15th-sm/images-sm-06.png" width="121" height="340" x="0" y="0" />
        </pattern>
        <pattern id="image-07" patternUnits="objectBoundingBox" patternContentUnits="userSpaceOnUse" width="100%" height="100%">
            <image xlink:href="images15th-sm/images-sm-07.png" width="113" height="286" x="0" y="0" />
        </pattern>
        <pattern id="image-08" patternUnits="objectBoundingBox" patternContentUnits="userSpaceOnUse" width="100%" height="100%">
            <image xlink:href="images15th-sm/images-sm-08.png" width="134" height="262" x="0" y="0" />
        </pattern>
        <pattern id="image-09" patternUnits="objectBoundingBox" patternContentUnits="userSpaceOnUse" width="100%" height="100%">
            <image xlink:href="images15th-sm/images-sm-09.png" width="56" height="320" x="0" y="0" />
        </pattern>
        <pattern id="image-10" patternUnits="objectBoundingBox" patternContentUnits="userSpaceOnUse" width="100%" height="100%">
            <image xlink:href="images15th-sm/images-sm-10.png" width="138" height="266" x="0" y="0" />
        </pattern>
        <pattern id="image-11" patternUnits="objectBoundingBox" patternContentUnits="userSpaceOnUse" width="100%" height="100%">
            <image xlink:href="images15th-sm/images-sm-11.png" width="108" height="312" x="0" y="0" />
        </pattern>
        <pattern id="image-12" patternUnits="objectBoundingBox" patternContentUnits="userSpaceOnUse" width="100%" height="100%">
            <image xlink:href="images15th-sm/images-sm-12.png" width="170" height="204" x="0" y="0" />
        </pattern>
        <pattern id="image-13" patternUnits="objectBoundingBox" patternContentUnits="userSpaceOnUse" width="100%" height="100%">
            <image xlink:href="images15th-sm/images-sm-13.png" width="164" height="180" x="0" y="0" />
        </pattern>
        <pattern id="image-14" patternUnits="objectBoundingBox" patternContentUnits="userSpaceOnUse" width="100%" height="100%">
            <image xlink:href="images15th-sm/images-sm-14.png" width="138" height="248" x="0" y="0" />
        </pattern>
        <pattern id="image-15" patternUnits="objectBoundingBox" patternContentUnits="userSpaceOnUse" width="100%" height="100%">
            <image xlink:href="images15th-sm/images-sm-15.png" width="155" height="376" x="0" y="0" />
        </pattern>
        <pattern id="image-16" patternUnits="objectBoundingBox" patternContentUnits="userSpaceOnUse" width="100%" height="100%">
            <image xlink:href="images15th-sm/images-sm-16.png" width="165" height="298" x="0" y="0" />
        </pattern>
        <pattern id="image-17" patternUnits="objectBoundingBox" patternContentUnits="userSpaceOnUse" width="100%" height="100%">
            <image xlink:href="images15th-sm/images-sm-17.png" width="104" height="224" x="0" y="0" />
        </pattern>
        <pattern id="image-18" patternUnits="objectBoundingBox" patternContentUnits="userSpaceOnUse" width="100%" height="100%">
            <image xlink:href="images15th-sm/images-sm-18.png" width="128" height="320" x="0" y="0" />
        </pattern>
        <pattern id="image-19" patternUnits="objectBoundingBox" patternContentUnits="userSpaceOnUse" width="100%" height="100%">
            <image xlink:href="images15th-sm/images-sm-19.png" width="91" height="456" x="0" y="0" />
        </pattern>
        <pattern id="image-20" patternUnits="objectBoundingBox" patternContentUnits="userSpaceOnUse" width="100%" height="100%">
            <image xlink:href="images15th-sm/images-sm-20.png" width="122" height="228" x="0" y="0" />
        </pattern>
        <!-- 20 -->
        <pattern id="image-21" patternUnits="objectBoundingBox" patternContentUnits="userSpaceOnUse" width="100%" height="100%">
            <image xlink:href="images15th-sm/images-sm-21.png" width="110" height="270" x="0" y="0" />
        </pattern>
        <pattern id="image-22" patternUnits="objectBoundingBox" patternContentUnits="userSpaceOnUse" width="100%" height="100%">
            <image xlink:href="images15th-sm/images-sm-22.png" width="86" height="334" x="0" y="0" />
        </pattern>
        <pattern id="image-23" patternUnits="objectBoundingBox" patternContentUnits="userSpaceOnUse" width="100%" height="100%">
            <image xlink:href="images15th-sm/images-sm-23.png" width="108" height="198" x="0" y="0" />
        </pattern>
        <pattern id="image-24" patternUnits="objectBoundingBox" patternContentUnits="userSpaceOnUse" width="100%" height="100%">
            <image xlink:href="images15th-sm/images-sm-24.png" width="144" height="132" x="0" y="0" />
        </pattern>
        <pattern id="image-25" patternUnits="objectBoundingBox" patternContentUnits="userSpaceOnUse" width="100%" height="100%">
            <image xlink:href="images15th-sm/images-sm-25.png" width="120" height="184" x="0" y="0" />
        </pattern>
        <pattern id="image-26" patternUnits="objectBoundingBox" patternContentUnits="userSpaceOnUse" width="100%" height="100%">
            <image xlink:href="images15th-sm/images-sm-26.png" width="154" height="168" x="0" y="0" />
        </pattern>
        <pattern id="image-27" patternUnits="objectBoundingBox" patternContentUnits="userSpaceOnUse" width="100%" height="100%">
            <image xlink:href="images15th-sm/images-sm-27.png" width="96" height="310" x="0" y="0" />
        </pattern>
        <pattern id="image-28" patternUnits="objectBoundingBox" patternContentUnits="userSpaceOnUse" width="100%" height="100%">
            <image xlink:href="images15th-sm/images-sm-28.png" width="122" height="190" x="0" y="0" />
        </pattern>
        <pattern id="image-29" patternUnits="objectBoundingBox" patternContentUnits="userSpaceOnUse" width="100%" height="100%">
            <image xlink:href="images15th-sm/images-sm-29.png" width="134" height="230" x="0" y="0" />
        </pattern>
        <pattern id="image-30" patternUnits="objectBoundingBox" patternContentUnits="userSpaceOnUse" width="100%" height="100%">
            <image xlink:href="images15th-sm/images-sm-30.png" width="108" height="146" x="0" y="0" />
        </pattern>
        <pattern id="image-31" patternUnits="objectBoundingBox" patternContentUnits="userSpaceOnUse" width="100%" height="100%">
            <image xlink:href="images15th-sm/images-sm-31.png" width="171" height="124" x="0" y="0" />
        </pattern>
        <pattern id="image-32" patternUnits="objectBoundingBox" patternContentUnits="userSpaceOnUse" width="100%" height="100%">
            <image xlink:href="images15th-sm/images-sm-32.png" width="109" height="226" x="0" y="0" />
        </pattern>
        <pattern id="image-33" patternUnits="objectBoundingBox" patternContentUnits="userSpaceOnUse" width="100%" height="100%">
            <image xlink:href="images15th-sm/images-sm-33.png" width="153" height="284" x="0" y="0" />
        </pattern>
        <pattern id="image-34" patternUnits="objectBoundingBox" patternContentUnits="userSpaceOnUse" width="100%" height="100%">
            <image xlink:href="images15th-sm/images-sm-34.png" width="61" height="314" x="0" y="0" />
        </pattern>
        <pattern id="image-35" patternUnits="objectBoundingBox" patternContentUnits="userSpaceOnUse" width="100%" height="100%">
            <image xlink:href="images15th-sm/images-sm-35.png" width="86" height="310" x="0" y="0" />
        </pattern>
        <pattern id="image-36" patternUnits="objectBoundingBox" patternContentUnits="userSpaceOnUse" width="100%" height="100%">
            <image xlink:href="images15th-sm/images-sm-36.png" width="134" height="270" x="0" y="0" />
        </pattern>
        <pattern id="image-37" patternUnits="objectBoundingBox" patternContentUnits="userSpaceOnUse" width="100%" height="100%">
            <image xlink:href="images15th-sm/images-sm-37.png" width="114" height="322" x="0" y="0" />
        </pattern>
        <pattern id="image-38" patternUnits="objectBoundingBox" patternContentUnits="userSpaceOnUse" width="100%" height="100%">
            <image xlink:href="images15th-sm/images-sm-38.png" width="64" height="278" x="0" y="0" />
        </pattern>
        <pattern id="image-39" patternUnits="objectBoundingBox" patternContentUnits="userSpaceOnUse" width="100%" height="100%">
            <image xlink:href="images15th-sm/images-sm-39.png" width="134" height="368" x="0" y="0" />
        </pattern>
        <pattern id="image-40" patternUnits="objectBoundingBox" patternContentUnits="userSpaceOnUse" width="100%" height="100%">
            <image xlink:href="images15th-sm/images-sm-40.png" width="54" height="402" x="0" y="0" />
        </pattern>
        <!-- 40 -->
        <pattern id="image-41" patternUnits="objectBoundingBox" patternContentUnits="userSpaceOnUse" width="100%" height="100%">
            <image xlink:href="images15th-sm/images-sm-41.png" width="112" height="276" x="0" y="0" />
        </pattern>
        <pattern id="image-42" patternUnits="objectBoundingBox" patternContentUnits="userSpaceOnUse" width="100%" height="100%">
            <image xlink:href="images15th-sm/images-sm-42.png" width="97" height="228" x="0" y="0" />
        </pattern>
        <pattern id="image-43" patternUnits="objectBoundingBox" patternContentUnits="userSpaceOnUse" width="100%" height="100%">
            <image xlink:href="images15th-sm/images-sm-43.png" width="73" height="258" x="0" y="0" />
        </pattern>
        <pattern id="image-44" patternUnits="objectBoundingBox" patternContentUnits="userSpaceOnUse" width="100%" height="100%">
            <image xlink:href="images15th-sm/images-sm-44.png" width="88" height="230" x="0" y="0" />
        </pattern>
        <pattern id="image-45" patternUnits="objectBoundingBox" patternContentUnits="userSpaceOnUse" width="100%" height="100%">
            <image xlink:href="images15th-sm/images-sm-45.png" width="81" height="248" x="0" y="0" />
        </pattern>
        <pattern id="image-46" patternUnits="objectBoundingBox" patternContentUnits="userSpaceOnUse" width="100%" height="100%">
            <image xlink:href="images15th-sm/images-sm-46.png" width="102" height="172" x="0" y="0" />
        </pattern>
    </defs>
    <!-- 區塊 -->
    <g>
        <path id="path-01" data-name="我愛咩咩" data-server="安黛莉" data-no="01" fill="url(#image-01)" d="M981.1,1.8c-50.4,0-100.8,0-151.2,0c1,6,3.4,11.8,6.7,16.9c5.4,6.9,11.9,11.1,18.9,13.8c2.3-3.9,2.3-3.9,0,0c17.5,6.8,38.6,4.2,57.1,9.2c6.4,2.1,10.8,9.9,11.3,17.8c16.8,0.2,33.7,0.6,49.7-9.8c2.6-1.9,5.1-3.9,7.5-6.1C981.1,29.6,981.1,15.7,981.1,1.8z" />
        <path id="path-02" data-name="hoholiyam123" data-server="安黛莉" data-no="02" fill="url(#image-02)" d="M981.2,123.2c0-26.6-0.1-53.1-0.1-79.7c-2.4,2.2-4.9,4.2-7.5,6.1c-16,10.5-32.9,10-49.7,9.8c0.2,3.2,0.2,3.2,0,0c-13.7-0.1-27.3-0.1-40.3,6.2c-24.3,11.7-28.2,46.6-11.8,66.4c33.5,0,67,0,100.5,0C982.1,132,981.2,132.8,981.2,123.2z" />
        <path id="path-03" data-name="Nymphss" data-server="安黛莉" data-no="03" fill="url(#image-03)" d="M912.6,41.7c-18.6-5-39.7-2.4-57.1-9.2c-4.6,7.6-15.2,12.5-21.9,15.2c-31,16-74,32-68,74c0.4,3.5,1.4,7,2.7,10.4c34.5,0,69,0,103.5,0c-16.4-19.8-12.4-54.7,11.8-66.4c13-6.3,26.7-6.3,40.3-6.2C923.5,51.6,919.1,43.8,912.6,41.7z" />
        <path id="path-04" data-name="一染墨" data-server="安黛莉" data-no="04" fill="url(#image-04)" d="M730.6,59.7c8.4,28-0.8,51.5-15,72.4c17.6,0,35.1,0,52.7,0c-1.3-3.4-2.2-6.9-2.7-10.4c-6-42,37-58,68-74c6.6-2.7,17.2-7.5,21.9-15.2c-7-2.7-13.4-7-18.9-13.8c-3.4-5.1-5.7-10.9-6.7-16.9c-27.3,0-54.6,0-81.9,0C733.4,18.5,724.6,40.2,730.6,59.7z" />
        <path id="path-05" data-name="羽鏈" data-server="安黛莉" data-no="05" fill="url(#image-05)" d="M748,1.8c-15.9,0-31.9,0-47.8,0c2.6,15.4-0.1,32.4-5.6,44.9c-8,20-31,27-44,44c-12.1,14.9-7.7,35.1,3.5,50.7c0-0.8,0-1.6,0-2.4c0-6.8,0-6.8,6.9-6.8c18.2,0,36.4,0,54.7,0c14.2-20.9,23.4-44.4,15-72.4C724.6,40.2,733.4,18.5,748,1.8z" />
        <path id="path-06" data-name="星曜之夜" data-server="安黛莉" data-no="06" fill="url(#image-06)" d="M700.2,1.8c-22.7,0-45.5,0-68.2,0c3.9,30-16.1,59-37.3,81.9c-7.8,8.9-12.2,21-12.6,33.4c3.2,1.9,3.2,1.9,0,0c-0.3,9.8,1.8,19.8,6.6,28.6c14.3,25.8,42,29.5,65.5,19.1c0-7.8,0-15.6,0-23.4c-11.2-15.6-15.6-35.8-3.5-50.7c13-17,36-24,44-44C700.1,34.2,702.8,17.2,700.2,1.8z" />
        <path id="path-07" data-name="苧麻" data-server="安黛莉" data-no="07" fill="url(#image-07)" d="M582,117c0.4-12.4,4.8-24.5,12.6-33.4c21.3-22.9,41.2-51.8,37.3-81.9c-14.3,0-28.6,0-42.8,0c-8.1,2.9-16.6,5-24.3,8.7c-25.2,12-41.3,31.1-43.4,59.9c-0.7,10.1-0.1,20.2-0.1,30.3c0,14.2,0,28.3,0,42.5C540.8,131,561.3,104.9,582,117z" />
        <path id="path-08" data-name="海藍月影" data-server="安黛莉" data-no="08" fill="url(#image-08)" d="M570,201.4C574.3,196.8,574.3,196.8,570,201.4c13.3,21.9,30.9,43.9,57.6,42.3c9.4-0.6,18.5-4,26.5-9.3c0-23.2,0-46.4,0-69.6c-23.5,10.4-51.2,6.8-65.5-19.1c-4.9-8.8-7-18.8-6.6-28.6c-20.7-12.1-41.2,14-60.7,26.2c0,13.4,0,26.7,0,40.1c3.6-2.7,7.7-5,12.3-6.7c12-5,23,2,29,12C564.9,192.8,567.4,197.1,570,201.4z" />
        <path id="path-09" data-name="梅露可星語" data-server="安黛莉" data-no="09" fill="url(#image-09)" d="M574.9,269.3C570.8,267.1,570.8,267.1,574.9,269.3c-3-13.2-9.1-26.4-14.3-38.7c-3.9-9.8,1.2-20.5,9.4-29.3c-2.6-4.3-5.1-8.6-7.4-12.7c-6-10-17-17-29-12c-4.6,1.7-8.7,3.9-12.3,6.7c0,49.9,0,99.8,0,149.7c18.3,3.1,34.6-5.8,46.3-20.3C577.7,298.9,578.2,284.1,574.9,269.3z" />
        <path id="path-10" data-name="翠希" data-server="安黛莉" data-no="10" fill="url(#image-10)" d="M689.6,286.7c3.3-8.7,6.3-19.7,7-30.6c-12.1,2.6-24.1,5.6-36.1,8.2c-1.8,0.4-3.5,1-5.9,1.7c-0.2-2.5-0.5-4.5-0.5-6.6c0-8.3,0-16.7,0-25c-7.9,5.3-17.1,8.7-26.5,9.3c-26.7,1.7-44.4-20.4-57.6-42.3c-8.2,8.7-13.3,19.4-9.4,29.3c5.2,12.3,11.3,25.5,14.3,38.7c4.3,2.4,7.7,6.2,9.7,10.3c5.6,13.6,13.2,27.8,23.2,38.1c2.7-4.9,2.7-4.9,0,0c10.9,11.3,24.8,18,42.2,14.4c-6.6-5.9-6.6-5.9,0,0c0.9-0.2,1.7-0.4,2.6-0.6C672.6,325.7,683.6,304.7,689.6,286.7z" />
        <path id="path-11" data-name="蘋果子子" data-server="安黛莉" data-no="11" fill="url(#image-11)" d="M607.9,317.8c-10.1-10.4-17.6-24.6-23.2-38.1c-2.1-4.1-5.4-8-9.7-10.3c3.3,14.8,2.8,29.6-7.3,43.3c-11.6,14.5-28,23.4-46.3,20.3c0,6.6,0,13.1,0,19.7c0,27.2,21.3,58.2,46.1,66.3c20.8,6.8,41.2,7.2,61.1,0c-1-23.5-19.1-43.6-26.9-66.3C597.4,341.4,601.6,329.2,607.9,317.8z" />
        <path id="path-12" data-name="Elixir" data-server="貝婷" data-no="12" fill="url(#image-12)" d="M722.4,333.8C722.6,337.1,722.6,337.1,722.4,333.8c-7.6-0.8-15.4-0.4-22.8,0.8c-14,1-28,8-42,2c-2.9-1-5.4-2.5-7.6-4.4c-17.4,3.6-31.3-3.2-42.2-14.4c-6.3,11.5-10.4,23.6-6.2,34.9c7.8,22.6,25.9,42.8,26.9,66.3c4.1-1.5,8.3-3.3,12.4-5.4c26-13.6,52.8-25.5,81.4-32.2c16-3.8,31.8-5.3,47.4-4.4c-0.7-5.8-2.3-11.7-5.1-17.2C755.6,343.1,739.5,335.6,722.4,333.8z" />
        <path id="path-13" data-name="Sugarxxsugar" data-server="貝婷" data-no="13" fill="url(#image-13)" d="M813.3,255.7c-5.7-1-11.4-2-17.1-2.8c-26.4-3.8-52.9-4.3-79.2-0.6c-6.8,1-13.6,2.2-20.4,3.7c-0.7,11-3.7,21.9-7,30.6c-6,18-17,39-37,45c-0.9,0.2-1.7,0.4-2.6,0.6c2.1,1.9,4.6,3.4,7.6,4.4c14,6,28-1,42-2c7.4-1.2,15.2-1.6,22.8-0.8c-0.4-11.2,5.5-22.7,13.2-31.2c9.4-10,22.8-13.4,36.3-16.5c-3-2.7-3-2.7,0,0c6.7-1.6,13.4-3.1,19.7-5.5C803.1,276.6,810,266.7,813.3,255.7z" />
        <path id="path-14" data-name="丁義" data-server="貝婷" data-no="14" fill="url(#image-14)" d="M858.6,393.7c7-53-41-82-82-104c-1.7-1-3.2-2.2-4.7-3.5c-13.5,3.2-26.9,6.5-36.3,16.5c-7.7,8.5-13.6,19.9-13.2,31.2c17,1.7,33.2,9.2,42.2,25.8c2.8,5.6,4.4,11.4,5.1,17.2c18.7,1.1,37,5.7,54.9,14.2c10.8,5.1,20.4,11.2,29,18.1C856.2,404.4,858,399.2,858.6,393.7z" />
        <path id="path-15" data-name="手殘帝影君" data-server="貝婷" data-no="15" fill="url(#image-15)" d="M916.6,413.7c4.9-9,7.8-18.9,8.4-28.8c-1.1-0.8-1.1-0.8,0,0c0.9-14.2-3-28.4-12.4-40.2c-17-19-40-26-59-43c-12.5-11-13.1-25.8-5.8-37.6c-11.3-3.5-22.9-6.2-34.5-8.3c-3.3,10.9-10.2,20.9-21.6,24.9c-6.3,2.3-13,3.9-19.7,5.5c1.5,1.3,3.1,2.6,4.7,3.5c41,22,89,51,82,104c-0.7,5.5-2.4,10.7-5.1,15.5c11.4,9.3,20.8,20.2,28.1,32.7C896,436.7,908.7,427.4,916.6,413.7z" />
        <path id="path-16" data-name="拉姆啦姆" data-server="貝婷" data-no="16" fill="url(#image-16)" d="M912.6,344.7c9.4,11.8,13.3,26,12.4,40.2c18.5,12.6,35.7,32.5,58.1,25.5c-2.2-11-2.2-11,0,0c1.5-0.5,3-1,4.5-1.7c6.6-2.8,13.6-7.2,19.7-12.7c-7.6-14.5-17.2-27.9-27.5-40.9c-29.7-37.6-67.2-64.7-111.1-83.3c-6.9-2.9-13.9-5.5-21-7.6c-7.3,11.8-6.6,26.6,5.8,37.6C872.6,318.7,895.6,325.7,912.6,344.7z" />
        <path id="path-17" data-name="伊娜芳" data-server="貝婷" data-no="17" fill="url(#image-17)" d="M898.9,495.7c5.3-8.2,12.3-14.9,21.8-19.1c19-9,49-1,59-23c5.7-13.2,6.5-28.4,3.5-43.3c-22.4,7-39.6-12.9-58.1-25.5c-0.6,9.9-3.5,19.7-8.4,28.8c-7.9,13.8-20.6,23-35,28.3c7.5,12.9,12.7,27.4,15.6,43.7C897.8,489,898.4,492.4,898.9,495.7z" />
        <path id="path-18" data-name="咖哩芝麻" data-server="貝婷" data-no="18" fill="url(#image-18)" d="M1026,450.3c-2.4-9.2-4.9-18.4-7.6-27.5c-2.8-9.4-6.6-18.3-11-26.8c-6.1,5.5-13.1,9.9-19.7,12.7c-1.5,0.7-3,1.3-4.5,1.7c3,14.9,2.2,30.1-3.5,43.3c-10,22-40,14-59,23c-9.5,4.2-16.5,10.9-21.8,19.1c1.5,9.8,2.5,19.7,3.1,29.5c0.6,9.9,0.2,19.9-2.1,29.5c31.7-5,64.5-8,91-27.2c-2.4-9.2-2.4-9.2,0,0c4.4-3.2,8.6-6.8,12.7-10.9C1022,499,1026.1,474.9,1026,450.3z" />
        <path id="path-19" data-name="滑鼠左鍵" data-server="貝婷" data-no="19" fill="url(#image-19)" d="M1032.5,476.7c-2.1-8.8-4.2-17.6-6.5-26.4c0.1,24.6-4.1,48.7-22.4,66.4c-4,4.1-8.3,7.8-12.7,10.9c4.5,17.2,3.4,35.6-8.3,46.1c-18,16-41,35-36,62c0.3,1.6,0.6,3.1,1,4.6c2.3-0.1,2.3-0.1,0,0c2.9,10.4,9.4,20.3,19,26.4c6.7,5,14.7,8.5,23.1,10.1c4.4-6.8,8.6-13.8,12.4-21.1c16.6-31.6,27.9-64.9,30.9-100.8c0.7-8.4,2-16.8,3.1-25.1c0-9,0-18,0-27C1034.9,494,1034.5,485.2,1032.5,476.7z" />
        <path id="path-20" data-name="柱壹" data-server="貝婷" data-no="20" fill="url(#image-20)" d="M990.9,527.6c-26.6,19.2-59.3,22.1-91,27.2c-0.7,3-1.6,5.9-2.7,8.9c-4.8,12.5-9.1,25.6-15.9,37.1c-2.8,4.8-5.8,9.4-9,13.7c7.4-0.6,15.1,0.1,21.3,1.3c5.3,1.2,9.6,4.5,13.7,8c2.6-5,2.6-5,0,0c2.8,2.4,5.5,4.9,8.3,7c10,7.5,20.7,10.1,32,9.6c-0.4-1.5-0.8-3.1-1-4.6c-5-27,18-46,36-62C994.4,563.2,995.5,544.7,990.9,527.6z" />
        <path id="path-21" data-name="蕥蘿" data-server="貝婷" data-no="21" fill="url(#image-21)" d="M989.7,676.8c-8.4-1.6-16.3-5.1-23.1-10.1c-9.6-6.1-16.1-16-19-26.4c-11.4,0.5-22-2.2-32-9.6c-2.8-2-5.5-4.6-8.3-7c-4.9,9.5-12.7,18.1-16.7,28c-6,18-13,35-10,54c3.3,20,12.2,38.5,27.2,51.7c5.7-3.6,11.3-7.5,16.8-11.6C950.5,726.5,972.3,703.5,989.7,676.8z" />
        <path id="path-22" data-name="璽那" data-server="貝婷" data-no="22" fill="url(#image-22)" d="M880.6,705.7c-3-19,4-36,10-54c3.9-9.9,11.8-18.4,16.7-28c-4.1-3.5-8.3-6.8-13.7-8c-6.3-1.2-13.9-1.9-21.3-1.3c-7.6,10.3-16.2,19.2-25.8,26.8c12.3,25.6-1.6,59.6-16.9,83.5c-2.2,3.8-4,8.1-5.1,12.7c12.2-3.6,12.2-3.6,0,0c-3.9,15.9-0.2,34.5,16.1,42.3c2.8,1.4,6.6,3.3,10.6,4.9c19.8-6.9,38.7-15.9,56.6-27.2C892.8,744.2,884,725.6,880.6,705.7z" />
        <path id="path-23" data-name="雜果軟糖" data-server="貝婷" data-no="23" fill="url(#image-23)" d="M846.5,641.2c-16.6,13-36.1,22-58.7,26.7c-14.3,3-28.6,4.6-42.9,4.3c0.2,0.8,0.4,1.7,0.7,2.5c5,16,22,22,35,34c8.2,7.6,10.6,19.4,6.9,28.8c10.3,1,20.6,2.1,31.1,1.2c2-0.3,3.9-0.7,5.9-1.3c1.1-4.6,2.8-8.9,5.1-12.7C845,700.8,858.8,666.8,846.5,641.2z" />
        <path id="path-24" data-name="雪融痕" data-server="貝婷" data-no="24" fill="url(#image-24)" d="M840.6,779.7c-16.3-7.8-20-26.4-16.1-42.3c-2,0.6-4,1-5.9,1.3c-10.5,0.9-20.8-0.2-31.1-1.2c-2.6,6.6-2.6,6.6,0,0c-13.2-1.3-26.4-2.6-39.9,0.2c-10.1,2-18.3,7-24.6,13.6c7.3,6.1,7.3,6.1,0,0c-11.5,12.2-16.3,30.2-13.2,46.5c3.2,0.5,6.4,1,9.7,1.4c6.9,0.9,13.8,1.6,20.7,2.4c10,0,20,0,30,0c7.7-1,15.4-2.1,23.1-3.2c20-2.9,39.4-7.5,58-13.9C847.2,783,843.5,781.1,840.6,779.7z" />
        <path id="path-25" data-name="笨呆鬼鬼" data-server="貝婷" data-no="25" fill="url(#image-25)" d="M780.6,708.7c-13-12-30-18-35-34c-0.3-0.8-0.5-1.7-0.7-2.5c-10.7-0.3-21.3-1.6-31.8-4.4c-7-1.8-13.7-4.1-20-6.7c-5.9,10.1-15,19.4-19.5,29.7c-5,9-4,20,2,29c2.3,3.2,5,5.9,8.1,8.4c1.3-0.4,1.3-0.4,0,0c11.9,9.5,28.7,14.5,39.3,23.3c6.3-6.7,14.5-11.6,24.6-13.6c13.5-2.8,26.7-1.5,39.9-0.2C791.2,728,788.8,716.3,780.6,708.7z" />
        <path id="path-26" data-name="可可梅" data-server="迪恩" data-no="26" fill="url(#image-26)" d="M723,751.3c-10.6-8.8-27.3-13.8-39.3-23.3c-21.1,6.6-45.4-1.9-66.1-10.4c-0.1,0-0.1-0.1-0.2-0.1c-2.2,3.2-2.2,3.2,0,0c-18.2-7.6-37.8,0-47.6,15.2c19.5,16.9,41.7,30.8,66.2,42.2c23.7,11,48.2,18.7,73.7,22.9C706.7,781.5,711.5,763.5,723,751.3z" />
        <path id="path-27" data-name="狼羽" data-server="迪恩" data-no="27" fill="url(#image-27)" d="M675.6,719.7c-6-9-7-20-2-29c4.6-10.2,13.6-19.5,19.5-29.7c-32.4-13.5-55.6-37.5-67.4-73.6c-1.2-3.6-2.3-7.2-3.4-10.8c-10.3,7.7-18.3,19.8-22.7,31.1c-3,10-2,22,6,29c4.2,3.7,7.8,7.8,10.8,12.1c0.1,0,0.1-0.1,0.2-0.1c5-3,5-3,0,0c-0.1,0-0.1,0.1-0.2,0.1c14.9,21.2,15.5,48.2,1,68.8c0.1,0,0.1,0.1,0.2,0.1c20.7,8.5,45,16.9,66.1,10.4C680.7,725.6,677.9,722.8,675.6,719.7z" />
        <path id="path-28" data-name="冽玥" data-server="迪恩" data-no="28" fill="url(#image-28)" d="M616.4,648.8c-22,10.9-47.8,5.9-68.8-6.1c-15-7.9-29.5-2-40.3,8.7c3.3,6.4,6.8,12.8,10.5,19.1c14.3,24.3,31.7,44.9,51.9,62.4c9.7-15.2,29.4-22.8,47.6-15.2C631.9,696.9,631.3,670,616.4,648.8z" />
        <path id="path-29" data-name="羽源季美" data-server="凱琳" data-no="29" fill="url(#image-29)" d="M594.6,547.7c-12,17-15,41-36,47c-25.9,6.1-52.4-7-64.4-29.1c-4.1,10.5-5.7,22.2-4,34.4c2.5,18.4,9,35.2,17.2,51.4c10.8-10.7,25.2-16.6,40.3-8.7c20.9,12,46.8,17,68.8,6.1c-3-4.3-6.6-8.4-10.8-12.1c-8-7-9-19-6-29c4.4-11.3,12.4-23.4,22.7-31.1c-2.8-8.6-5.9-17.2-11.3-25c-3-4.3-6.3-8.1-9.8-11.4C598.8,542.5,596.6,545,594.6,547.7z" />
        <path id="path-30" data-name="葉紀" data-server="迪恩" data-no="30" fill="url(#image-30)" d="M494.2,565.5c12,22.1,38.5,35.2,64.4,29.1c21-6,24-30,36-47c2-2.6,4.2-5.2,6.5-7.5c-11.6-10.8-26-15.9-42.7-16.5C528.8,522.5,504.1,540.3,494.2,565.5z" />
        <path id="path-31" data-name="加西" data-server="愛麗沙" data-no="31" fill="url(#image-31)" d="M312.6,44.7c23,10,60,32,77,4c9-14,11-29.9,8-46.9c-41.5,0-83,0-124.5,0c-4.7,1.5-9.5,2.7-14.1,4.4c-11.7,4.5-21.9,10.6-29.5,19.1c5.3,10.3,14.2,18.7,24,23.3c9.2,4.6,19.3,5.6,29,7C289,45.3,301.8,40.5,312.6,44.7z" />
        <path id="path-32" data-name="愛斯恩 " data-server="凱琳" data-no="32" fill="url(#image-32)" d="M301.6,132.1c0,1.6,0,3.2,0,4.9c10.5-4.6,18.9-11.9,21-24.2c2-11.4,1.3-23.6-3.5-34.1c-4,1.5-4,1.5,0,0c-2.4-5.2-5.8-10-10.5-13.9c-7.8-5.8-16.8-7.7-26-9c-1.3,2.1-1.3,2.1,0,0c-9.7-1.4-19.8-2.4-29-7c-9.9-4.6-18.7-13-24-23.3c-5.9,6.6-10.3,14.8-12.7,24.8c-0.5,2.2-1.1,4.4-1.7,6.7c0,4.3,0,8.7,0,13c0.4,1.9,1,3.9,1.2,5.8c2,14.5,6.4,28.1,17.5,38.3c12.4,11.4,27.3,17.6,44.2,18.2C285.7,132.3,293.3,132.1,301.6,132.1z" />
        <path id="path-33" data-name="乂花都千月乂" data-server="愛麗沙" data-no="33" fill="url(#image-33)" d="M434.6,130.7c0-23.1-0.9-46.3-1.3-69.4c-0.4-19.8-0.7-39.6-1.1-59.4c-11.5,0-23,0-34.5,0c3,16.9,1,32.9-8,46.9c-17,28-54,6-77-4c-10.8-4.1-23.6,0.7-30,11c9.2,1.4,18.2,3.2,26,9c4.6,4,8.1,8.7,10.5,13.9c13.2-5.1,30.8,1.6,41.9,10.8c3.4-2.6,3.4-2.6,0,0c1.7,1.4,3.3,2.8,4.6,4.3c19.9,19.9,41.2,44.6,69,48.5C434.6,138.3,434.6,134.5,434.6,130.7z" />
        <path id="path-34" data-name="名字是祕密" data-server="愛麗沙" data-no="34" fill="url(#image-34)" d="M353.6,97.7c1.9-2.8,4.4-6.1,7.4-8.3c-11.1-9.1-28.7-15.8-41.9-10.8c4.8,10.5,5.5,22.7,3.5,34.1c-2.1,12.3-10.5,19.6-21,24.2c0,32.1,0,64.1,0,96.1c17-2.9,33.1-9,44-25.4c12.4-18.2,18.4-40.1,15-61.1c-5.7-1.6-5.7-1.6,0,0c-1.3-7.9-3.9-15.6-8-22.9C347.6,115.7,349.6,105.7,353.6,97.7z" />
        <path id="path-35" data-name="羽漾娃" data-server="愛麗沙" data-no="35" fill="url(#image-35)" d="M360.6,146.6c30.4,8.3,37.5,56.8,56,82.1c4.1,5.2,10.7,10.5,18,14.3c0-33.6,0-67.2,0-100.8c-27.8-3.9-49.1-28.6-69-48.5c-1.4-1.5-2.9-2.9-4.6-4.3c-3,2.2-5.5,5.5-7.4,8.3c-4,8-6,18-1,26C356.7,131,359.3,138.7,360.6,146.6z" />
        <path id="path-36" data-name="羽漾娃" data-server="愛麗沙" data-no="36" fill="url(#image-36)" d="M425.6,279.7c3-0.5,6.1-1.3,9-2.3c0-11.5,0-23,0-34.5c-7.3-3.8-13.9-9.1-18-14.3c-18.5-25.2-25.7-73.8-56-82.1c3.4,21-2.6,42.9-15,61.1c-10.9,16.4-27,22.5-44,25.4c0,9.7,0,19.3,0,29c0.7-0.5,1.3-0.9,2-1.4c8-6,17-7,26-4c14.2,3.5,27.6,10,41.2,15.5c-8.4-9.6-8.4-9.6,0,0C388,278.9,405.6,284.1,425.6,279.7z" />
        <path id="path-37" data-name="name37" data-server="server37" data-no="37" fill="url(#image-37)" d="M399.6,384.7c-15-28-12-59-18-91c-1.5-8.5-5.5-15.5-10.8-21.5c-13.7-5.4-27.1-11.9-41.2-15.5c-9-3-18-2-26,4c-0.6,0.5-1.3,0.9-2,1.4c0,14.7,0,29.3,0,44c5.4-0.8,10.9-0.3,16,1.6c9,3,18,12,19,22c4,29,3,61,29,79c14.7,11,37.8,7.7,50-6.1C409.3,398.3,403.8,392.5,399.6,384.7z" />
        <path id="path-38" data-name="name38" data-server="server38" data-no="38" fill="url(#image-38)" d="M399.6,384.7c4.2,7.9,9.6,13.7,16,17.9c1.1-1.2,1.1-1.2,0,0c5.7,3.8,12.2,6.4,19.1,8c0-44.4,0-88.8,0-133.2c-3,1-6,1.7-9,2.3c-20,4.5-37.6-0.7-54.8-7.5c5.3,6,9.2,13,10.8,21.5C387.6,325.7,384.6,356.7,399.6,384.7z" />
        <path id="path-39" data-name="name39" data-server="server39" data-no="39" fill="url(#image-39)" d="M434.7,410.6c-6.9-1.6-13.3-4.2-19.1-8c-12.2,13.8-35.3,17.1-50,6.1c-26-18-25-50-29-79c-1-10-10-19-19-22c-5.1-1.9-10.6-2.4-16-1.6c0,24.2,0,48.5,0,72.7c15.8,0.2,26.7,16.5,33.6,33.3c1.4-1.9,1.4-1.9,0,0c2.7,6.4,4.8,12.9,6.3,18.5c11.6,38.8,51.4,63.4,93,57.6C434.7,462.4,434.7,436.5,434.7,410.6z" />
        <path id="path-40" data-name="name40" data-server="server40" data-no="40" fill="url(#image-40)" d="M346.6,560.7c7.8-13.3,9.3-26.4,7.3-39.4c-4.9-6.8-4.9-6.8,0,0c-3.9-25.1-20.7-49.5-29.3-72.6c-4.3-12.8,2.4-25.6,10.7-36.5c-7-16.8-17.8-33.1-33.6-33.3c0,66,0,132.1,0,198c12.3,4.2,26,1.9,36.1-5.9c-4.8-2.9-4.8-2.9,0,0C341.2,568.2,344.3,564.7,346.6,560.7z" />
        <path id="path-41" data-name="name41" data-server="server41" data-no="41" fill="url(#image-41)" d="M341.6,430.7c-1.6-5.7-3.7-12.1-6.3-18.5c-8.3,10.9-14.9,23.7-10.7,36.5c8.6,23.1,25.4,47.5,29.3,72.6c14.4,20,40.4,30.4,65.7,27.4c5.1-0.7,10.3-2.1,15-4.3c0-18.7,0-37.4,0-56.1C393.1,494.1,353.3,469.4,341.6,430.7z" />
        <path id="path-42" data-name="name42" data-server="server42" data-no="42" fill="url(#image-42)" d="M434.7,544.4c-4.8,2.2-10,3.6-15,4.3c-25.4,3-51.3-7.4-65.7-27.4c2,13,0.5,26.1-7.3,39.4c-2.4,4.1-5.4,7.5-8.9,10.2c6.3,3.8,11.9,9.6,15.9,14.8c7,8.7,13.4,18.4,20.6,26.7c7.7-8.3,7.7-8.3,0,0c9.3,10.7,19.8,19.2,34.4,20.3c8,0.9,17.4,2.3,26,1.6C434.7,604.3,434.7,574.3,434.7,544.4z" />
        <path id="path-43" data-name="name43" data-server="server43" data-no="43" fill="url(#image-43)" d="M346.8,666.6C342.9,661.6,342.9,661.6,346.8,666.6c0.7-1.6,1.3-3.3,1.8-4.9c5-16.7,13-35.8,25.6-49.3c-7.2-8.3-13.6-18-20.6-26.7c-4-5.1-9.6-10.9-15.9-14.8c-10,7.8-23.8,10.1-36.1,5.9c0,41,0,82,0,123C321.4,696.6,339.3,683.6,346.8,666.6z" />
        <path id="path-44" data-name="name44" data-server="server44" data-no="44" fill="url(#image-44)" d="M434.7,726.8c0-30.8,0-61.7,0-92.5c-8.7,0.7-18-0.7-26-1.6c-14.7-1.1-25.2-9.6-34.4-20.3c-12.6,13.5-20.6,32.5-25.6,49.3c-0.5,1.7-1.1,3.3-1.8,4.9c0.3,0.4,0.6,0.7,0.8,1.1c10.6,13.9,21.8,26.9,34.6,37.2c1.1-7.9,1.1-7.9,0,0c13.9,11.2,29.7,19.2,48.4,21.8C431.9,726.7,433.3,726.8,434.7,726.8z" />
        <path id="path-45" data-name="name45" data-server="server45" data-no="45" fill="url(#image-45)" d="M333.6,777.7c4-18,17-30,30-42c9.5-8.3,16.9-19.2,18.6-30.8c-12.8-10.3-24.1-23.3-34.6-37.2c-0.3-0.3-0.6-0.7-0.8-1.1c-7.5,17-25.4,30-45.1,33.3c0,30.1,0,60.2,0,90.2c10.5,0,21.1,0,31.5,0C332.6,786.1,332.7,781.9,333.6,777.7z" />
        <path id="path-46" data-name="name46" data-server="server46" data-no="46" fill="url(#image-46)" d="M434.7,783.4c0-18.9,0-37.7,0-56.6c-1.4,0-2.8-0.1-4-0.2c-18.7-2.6-34.5-10.6-48.4-21.8c-1.7,11.6-9.1,22.5-18.6,30.8c-13,12-26,24-30,42c-1,4.3-1.1,8.5-0.4,12.5c33.9,0,67.5,0,101.5,0C434.7,787.7,434.7,785.5,434.7,783.4z" />
    </g>
</svg>