<?xml version="1.0" encoding="UTF-8"?>
<svg id="_圖層_1" data-name=" 圖層 1" xmlns="http://www.w3.org/2000/svg" version="1.1" viewBox="0 0 490 120">
  <defs>
    <style>
      .cls-1 {
        fill-opacity: .5;
      }

      .cls-1, .cls-2, .cls-3, .cls-4 {
        fill: #dcc1a8;
        stroke-width: 0px;
      }

      .cls-1, .cls-3, .cls-4 {
        fill-rule: evenodd;
      }

      .cls-4 {
        fill-opacity: .8;
      }
    </style>
  </defs>
  <path class="cls-3" d="M16.8,111.4l-8.4-8.4L0,111.4l8.4,8.4,8.4-8.4ZM13.2,111.4l-4.8-4.8-4.8,4.8,4.8,4.8,4.8-4.8Z"/>
  <path class="cls-2" d="M8.4,108.6l2.8,2.8-2.8,2.8-2.8-2.8,2.8-2.8Z"/>
  <path class="cls-3" d="M16.8,8.4L8.4,0,0,8.4l8.4,8.4,8.4-8.4ZM13.2,8.4l-4.8-4.8-4.8,4.8,4.8,4.8,4.8-4.8Z"/>
  <path class="cls-2" d="M8.4,5.6l2.8,2.8-2.8,2.8-2.8-2.8s2.8-2.8,2.8-2.8Z"/>
  <path class="cls-3" d="M489.8,8.4l-8.4-8.4-8.4,8.4,8.4,8.4,8.4-8.4ZM486.2,8.4l-4.8-4.8-4.8,4.8,4.8,4.8,4.8-4.8Z"/>
  <path class="cls-2" d="M481.4,5.6l2.8,2.8-2.8,2.8-2.8-2.8s2.8-2.8,2.8-2.8Z"/>
  <path class="cls-3" d="M489.8,111.4l-8.4-8.4-8.4,8.4,8.4,8.4,8.4-8.4ZM486.2,111.4l-4.8-4.8-4.8,4.8,4.8,4.8,4.8-4.8Z"/>
  <path class="cls-2" d="M481.4,108.6l2.8,2.8-2.8,2.8-2.8-2.8,2.8-2.8Z"/>
  <path class="cls-4" d="M215,4l30,16.2,30-16.2h-60ZM227,7.6l18,9.6,18-9.6s-36,0-36,0Z"/>
  <path class="cls-2" d="M245,14.8l-20-10.8h40l-20,10.8Z"/>
  <path class="cls-1" d="M4,84.4l28.8-24.6L4,35.2v49.2ZM6.5,78.7l21.9-18.9L6.5,40.9v37.8Z"/>
  <path class="cls-4" d="M4,76.8l20-17L4,42.8v34.1h0ZM6.5,71.2l13.1-11.4-13.1-11.4v22.7h0Z"/>
  <path class="cls-2" d="M15.3,59.8l-11.3,9.5v-18.9l11.3,9.5h0Z"/>
  <path class="cls-1" d="M485.8,35.2l-28.8,24.6,28.8,24.6v-49.2ZM483.3,40.9l-21.9,18.9,21.9,18.9v-37.8Z"/>
  <path class="cls-4" d="M485.8,42.8l-20,17,20,17v-34.1h0ZM483.3,48.4l-13.1,11.4,13.1,11.4v-22.7h0Z"/>
  <path class="cls-2" d="M474.5,59.8l11.3-9.5v18.9l-11.3-9.5h0Z"/>
  <path class="cls-4" d="M275,116l-30-16.2-30,16.2h60ZM263,112.4l-18-9.6-18,9.6h36Z"/>
  <path class="cls-2" d="M245,105.2l20,10.8h-40l20-10.8Z"/>
  <path class="cls-2" d="M25,4v3h-1.2c-.3,5-1.8,9-4.8,11.9-2.9,2.9-7,4.4-12,4.6v1.4h-3v-4.4h1.5c5.1,0,8.9-1.4,11.4-3.8s3.9-6.2,3.9-11.3v-1.5h4.2Z"/>
  <rect class="cls-2" x="25" y="4" width="440" height="3"/>
  <path class="cls-2" d="M465,4v3h1.2c.3,5,1.8,9,4.8,11.9,2.9,2.9,7,4.4,12,4.6v1.4h3v-4.4h-1.5c-5.1,0-8.9-1.4-11.4-3.8s-3.9-6.2-3.9-11.3v-1.5h-4.2Z"/>
  <rect class="cls-2" x="4" y="25" width="3" height="70"/>
  <rect class="cls-2" x="483" y="25" width="3" height="70"/>
  <path class="cls-2" d="M25,116v-3h-1.2c-.3-5-1.8-9-4.8-11.9-2.9-2.9-7-4.4-12-4.6v-1.4h-3v4.4h1.5c5.1,0,8.9,1.4,11.4,3.8s3.9,6.2,3.9,11.3v1.5h4.2Z"/>
  <rect class="cls-2" x="25" y="113" width="440" height="3"/>
  <path class="cls-2" d="M465,116v-3h1.2c.3-5,1.8-9,4.8-11.9,2.9-2.9,7-4.4,12-4.6v-1.4h3v4.4h-1.5c-5.1,0-8.9,1.4-11.4,3.8s-3.9,6.2-3.9,11.3v1.5h-4.2Z"/>
</svg>