<?xml version="1.0" encoding="UTF-8"?><svg id="_圖層_1" xmlns="http://www.w3.org/2000/svg" viewBox="0 0 34.63 55.22"><path d="M8.14,9.94l-1.73,15.91,8.5-4.46c2.74,0,5.3.35,7.7,1.04,2.4.7,4.49,1.73,6.26,3.1,1.77,1.37,3.18,3.05,4.21,5.04,1.03,1.99,1.55,4.28,1.55,6.88,0,1.73-.23,3.28-.68,4.64-.46,1.37-1.04,2.57-1.76,3.6-.72,1.03-1.52,1.92-2.41,2.66-.89.74-1.76,1.36-2.63,1.84l-9.58,5.04c-3.6,0-6.91-.55-9.94-1.66-3.02-1.1-5.57-2.71-7.63-4.82l3.38-11.74h.36l2.95,7.67c.96,2.44,2.12,4.18,3.49,5.23,1.37,1.05,3.2,1.58,5.51,1.58,3.02,0,5.44-1.1,7.24-3.3,1.8-2.2,2.7-5.22,2.7-9.05,0-4.64-.94-8.11-2.81-10.41-1.87-2.3-4.25-3.45-7.13-3.45-.91,0-1.91.16-2.99.47-1.08.31-2.21.72-3.38,1.22-1.18.5-2.39,1.08-3.64,1.73-1.25.65-2.5,1.29-3.74,1.91h-.36L4.32,2.38h23.76l3.38-2.38.29.14-2.59,9.79H8.14Z" style="fill:#000; stroke-width:0px;"/></svg>