<?xml version="1.0" encoding="UTF-8"?><svg id="_圖層_1" xmlns="http://www.w3.org/2000/svg" viewBox="0 0 34.49 53.78"><path d="M14.47,0c6,0,10.45.94,13.36,2.82,2.9,1.88,4.36,4.43,4.36,7.65,0,1.4-.36,2.75-1.08,4.05-.72,1.3-1.67,2.52-2.84,3.65-1.18,1.13-2.54,2.13-4.1,3-1.56.87-3.18,1.56-4.86,2.09v.29c2.35-.1,4.46.14,6.34.72s3.47,1.42,4.79,2.52c1.32,1.1,2.33,2.44,3.02,4,.7,1.56,1.04,3.3,1.04,5.22,0,1.73-.22,3.28-.65,4.64-.43,1.37-1,2.58-1.69,3.64-.7,1.06-1.48,1.96-2.34,2.7-.86.75-1.73,1.33-2.59,1.76l-9.72,5.04c-3.6,0-6.9-.56-9.9-1.69-3-1.12-5.53-2.75-7.6-4.86l3.31-11.74h.43l2.95,7.7c.96,2.45,2.12,4.2,3.49,5.26,1.37,1.06,3.2,1.58,5.51,1.58,1.44,0,2.76-.31,3.96-.93,1.2-.62,2.22-1.47,3.06-2.55.84-1.08,1.5-2.37,1.98-3.88.48-1.51.72-3.17.72-4.99,0-4.12-1.08-7.12-3.24-9.01-2.16-1.89-5.4-2.84-9.72-2.84l-2.52.94-2.16-3.53.22-.29c.77.29,1.54.43,2.3.43,1.44.05,2.94-.3,4.5-1.04,1.56-.74,2.98-1.7,4.25-2.88,1.27-1.18,2.33-2.48,3.17-3.92.84-1.44,1.26-2.88,1.26-4.32,0-2.26-.66-4.07-1.98-5.44-1.32-1.37-3.13-2.05-5.44-2.05-1.68,0-3.2.49-4.57,1.48-1.37.98-2.41,2.2-3.13,3.64l-3.74,7.7h-.36L1.8,7.2,14.47,0Z" style="fill:#000; stroke-width:0px;"/></svg>