<?xml version="1.0" encoding="UTF-8"?><svg id="_圖層_1" xmlns="http://www.w3.org/2000/svg" viewBox="0 0 10.94 34.56"><path d="M0,5.4c0-1.68.5-3,1.51-3.96C2.52.48,3.84,0,5.47,0s2.95.48,3.96,1.44c1.01.96,1.51,2.28,1.51,3.96s-.5,3-1.51,3.96c-1.01.96-2.33,1.44-3.96,1.44s-2.95-.48-3.96-1.44c-1.01-.96-1.51-2.28-1.51-3.96ZM0,29.16c0-1.68.5-3,1.51-3.96,1.01-.96,2.33-1.44,3.96-1.44s2.95.48,3.96,1.44c1.01.96,1.51,2.28,1.51,3.96s-.5,3-1.51,3.96c-1.01.96-2.33,1.44-3.96,1.44s-2.95-.48-3.96-1.44c-1.01-.96-1.51-2.28-1.51-3.96Z" style="fill:#000; stroke-width:0px;"/></svg>