<?xml version="1.0" encoding="UTF-8"?><svg id="_圖層_1" xmlns="http://www.w3.org/2000/svg" viewBox="0 0 35.5 55.3"><path d="M9.5,55.01c2.11-1.82,4.03-3.85,5.76-6.08s3.24-4.55,4.54-6.95c1.3-2.4,2.39-4.83,3.28-7.31.89-2.47,1.6-4.83,2.12-7.09l-7.7,4.18c-2.45,0-4.74-.29-6.88-.86-2.14-.58-4-1.46-5.58-2.63-1.58-1.18-2.82-2.65-3.71-4.4-.89-1.75-1.33-3.84-1.33-6.24,0-1.73.2-3.26.61-4.58.41-1.32.94-2.48,1.58-3.46.65-.99,1.39-1.83,2.23-2.53.84-.7,1.69-1.29,2.56-1.77L16.63,0c6.1,0,10.76,1.62,14,4.87,3.24,3.24,4.86,7.75,4.86,13.52,0,3.22-.5,6.59-1.51,10.09-1.01,3.51-2.56,6.91-4.64,10.2-2.09,3.29-4.75,6.38-7.99,9.26-3.24,2.88-7.12,5.33-11.63,7.35l-.22-.29ZM18.36,3.74c-3.02,0-5.34.98-6.95,2.92-1.61,1.95-2.39,5.12-2.34,9.5,0,1.59.19,3.11.58,4.55.38,1.44.94,2.71,1.66,3.79.72,1.08,1.58,1.94,2.59,2.56,1.01.63,2.11.94,3.31.94,1.3,0,2.75-.4,4.36-1.19,1.61-.79,3.04-1.65,4.28-2.56.14-.87.24-1.72.29-2.56.05-.84.07-1.63.07-2.35,0-2.36-.17-4.49-.5-6.39-.34-1.9-.84-3.54-1.51-4.91-.67-1.37-1.5-2.43-2.48-3.18-.98-.75-2.1-1.12-3.35-1.12Z" style="fill:#000; stroke-width:0px;"/></svg>