<?xml version="1.0" encoding="UTF-8"?><svg id="_圖層_1" xmlns="http://www.w3.org/2000/svg" viewBox="0 0 35.14 54"><path d="M29.45,48.38l-10.15,5.62c-3.02,0-5.74-.36-8.14-1.08-2.4-.72-4.43-1.73-6.08-3.02-1.66-1.3-2.92-2.84-3.78-4.64s-1.3-3.76-1.3-5.87c0-1.58.29-3.02.86-4.32.58-1.3,1.34-2.45,2.3-3.46.96-1.01,2.1-1.86,3.42-2.56,1.32-.7,2.72-1.26,4.21-1.69-2.88-1.58-5.2-3.36-6.95-5.33-1.75-1.97-2.63-4.46-2.63-7.49,0-2.35.48-4.24,1.44-5.65.96-1.42,2.28-2.6,3.96-3.56L16.13,0c3.02,0,5.66.35,7.92,1.04,2.26.7,4.14,1.62,5.65,2.77,1.51,1.15,2.64,2.48,3.38,4,.74,1.51,1.12,3.08,1.12,4.72,0,1.44-.23,2.71-.68,3.82-.46,1.1-1.14,2.1-2.05,2.99-.91.89-2.08,1.7-3.49,2.45-1.42.75-3.06,1.48-4.93,2.2,1.73.96,3.34,1.98,4.82,3.06,1.49,1.08,2.77,2.22,3.85,3.42,1.08,1.2,1.92,2.48,2.52,3.85.6,1.37.9,2.8.9,4.28,0,2.54-.53,4.58-1.58,6.12-1.06,1.54-2.42,2.76-4.1,3.67ZM12.96,28.58c-1.25,1.15-2.17,2.68-2.77,4.57-.6,1.9-.9,3.9-.9,6.01,0,1.68.22,3.22.65,4.61.43,1.39,1.02,2.58,1.76,3.56.74.98,1.63,1.75,2.66,2.3,1.03.55,2.17.83,3.42.83,2.54,0,4.58-.83,6.12-2.48,1.54-1.66,2.3-3.83,2.3-6.52,0-1.34-.25-2.54-.76-3.6-.5-1.06-1.19-2.02-2.05-2.88-.86-.86-1.9-1.67-3.1-2.41-1.2-.74-2.47-1.48-3.82-2.2l-2.88-1.51c-.1-.05-.2-.1-.32-.14-.12-.05-.23-.1-.32-.14ZM20.81,22.82c1.25-1.34,2.24-2.94,2.99-4.79.74-1.85,1.12-3.92,1.12-6.23,0-1.1-.18-2.16-.54-3.17-.36-1.01-.86-1.88-1.51-2.63-.65-.74-1.43-1.34-2.34-1.8-.91-.46-1.9-.68-2.95-.68s-2.03.21-2.92.61c-.89.41-1.66,1-2.3,1.76-.65.77-1.16,1.67-1.55,2.7-.38,1.03-.58,2.15-.58,3.35,0,.86.11,1.68.32,2.45.22.77.62,1.54,1.22,2.3.6.77,1.43,1.55,2.48,2.34,1.06.79,2.45,1.62,4.18,2.48l2.38,1.3Z" style="fill:#000; stroke-width:0px;"/></svg>