<?xml version="1.0" encoding="UTF-8"?><svg id="_圖層_1" xmlns="http://www.w3.org/2000/svg" viewBox="0 0 35.57 55.22"><path d="M18.94,55.22c-6.1,0-10.78-1.62-14.04-4.86-3.27-3.24-4.9-7.74-4.9-13.5,0-3.22.5-6.58,1.51-10.08,1.01-3.5,2.57-6.9,4.68-10.19,2.11-3.29,4.79-6.37,8.03-9.25,3.24-2.88,7.12-5.33,11.63-7.34l.22.29c-2.16,1.83-4.09,3.86-5.8,6.1-1.7,2.24-3.22,4.57-4.54,7.01-1.32,2.43-2.44,4.89-3.35,7.37-.91,2.48-1.61,4.85-2.09,7.1l7.78-4.25c2.45,0,4.74.29,6.88.86,2.14.57,4,1.45,5.58,2.62,1.58,1.17,2.82,2.65,3.71,4.42.89,1.77,1.33,3.83,1.33,6.18,0,1.72-.21,3.25-.61,4.56-.41,1.32-.95,2.47-1.62,3.45-.67.98-1.43,1.82-2.27,2.51-.84.7-1.69,1.28-2.56,1.76l-9.58,5.24ZM17.21,51.48c3.02,0,5.34-.97,6.95-2.91,1.61-1.94,2.39-5.08,2.34-9.44,0-1.58-.2-3.09-.61-4.52-.41-1.44-.97-2.69-1.69-3.77-.72-1.08-1.58-1.93-2.59-2.55-1.01-.62-2.11-.93-3.31-.93-1.34,0-2.81.41-4.39,1.22-1.58.81-3,1.68-4.25,2.58-.14.86-.24,1.7-.29,2.51-.05.81-.07,1.58-.07,2.3,0,2.35.18,4.46.54,6.35.36,1.89.88,3.52,1.55,4.88.67,1.36,1.5,2.42,2.48,3.16.98.74,2.1,1.11,3.35,1.11Z" style="fill:#000; stroke-width:0px;"/></svg>