<?xml version="1.0" encoding="UTF-8"?><svg id="_圖層_1" xmlns="http://www.w3.org/2000/svg" viewBox="0 0 35.42 52.85"><path d="M32.9,11.97c0,2.55-.48,4.98-1.44,7.28-.96,2.31-2.19,4.52-3.67,6.64-1.49,2.12-3.16,4.13-5,6.06-1.85,1.92-3.64,3.75-5.36,5.48l-7.85,7.86h19.73l5.76-4.32.36.22-3.82,11.66H.5l-.5-2.16,8.57-10.08c2.16-2.5,4.15-5.03,5.98-7.6,1.82-2.57,3.41-5.09,4.75-7.56,1.34-2.47,2.4-4.86,3.17-7.16.77-2.3,1.15-4.46,1.15-6.48,0-2.64-.77-4.64-2.3-6.01-1.54-1.37-3.79-2.05-6.77-2.05-1.68,0-3.22.48-4.61,1.44-1.39.96-2.42,2.18-3.1,3.67l-3.53,8.28h-.43L.36,7.2,13.03,0c6.53,0,11.47,1.11,14.83,3.32,3.36,2.21,5.04,5.1,5.04,8.65Z" style="fill:#000; stroke-width:0px;"/></svg>