<?xml version="1.0" encoding="UTF-8"?><svg id="_圖層_1" xmlns="http://www.w3.org/2000/svg" viewBox="0 0 37.51 53.71"><path d="M18.79,53.71c-3.07,0-5.77-.62-8.1-1.87-2.33-1.25-4.28-3.04-5.87-5.36-1.58-2.33-2.78-5.15-3.6-8.46-.82-3.31-1.22-7.03-1.22-11.16,0-3.22.23-6.01.68-8.39.46-2.38,1.08-4.4,1.87-6.08.79-1.68,1.7-3.06,2.74-4.14,1.03-1.08,2.15-1.96,3.35-2.63L18.79,0c3.07,0,5.77.62,8.1,1.87,2.33,1.25,4.28,3.04,5.87,5.36,1.58,2.33,2.77,5.15,3.56,8.46s1.19,7.03,1.19,11.16c0,3.22-.23,6.01-.68,8.39-.46,2.38-1.08,4.4-1.87,6.08-.79,1.68-1.7,3.06-2.74,4.14-1.03,1.08-2.15,1.96-3.35,2.63l-10.08,5.62ZM18.79,49.68c1.63,0,3.05-.52,4.25-1.55,1.2-1.03,2.18-2.53,2.95-4.5.77-1.97,1.33-4.37,1.69-7.2.36-2.83.54-6.05.54-9.65,0-7.15-.76-12.73-2.27-16.74-1.51-4.01-3.9-6.01-7.16-6.01s-5.66,2-7.2,6.01c-1.54,4.01-2.3,9.59-2.3,16.74,0,3.6.19,6.82.58,9.65.38,2.83.96,5.23,1.73,7.2.77,1.97,1.75,3.47,2.95,4.5,1.2,1.03,2.62,1.55,4.25,1.55Z" style="fill:#000; stroke-width:0px;"/></svg>