<?xml version="1.0" encoding="UTF-8"?><svg id="Elements" xmlns="http://www.w3.org/2000/svg" viewBox="0 0 202.69 202.69"><rect x="1" y="1" width="200.69" height="200.69" style="fill:none; stroke:#000; stroke-miterlimit:10; stroke-width:2px;"/><polygon points="1 39.52 10.68 49.2 10.68 101.35 10.68 153.49 1 163.17 1 39.52" style="fill:none; stroke:#000; stroke-miterlimit:10;"/><polygon points="201.69 163.17 192.01 153.49 192.01 101.35 192.01 49.2 201.69 39.52 201.69 163.17" style="fill:none; stroke:#000; stroke-miterlimit:10;"/><polygon points="163.17 1 153.49 10.68 101.35 10.68 49.2 10.68 39.52 1 163.17 1" style="fill:none; stroke:#000; stroke-miterlimit:10;"/><polygon points="39.52 201.69 49.2 192.01 101.35 192.01 153.49 192.01 163.17 201.69 39.52 201.69" style="fill:none; stroke:#000; stroke-miterlimit:10;"/><polyline points="155.6 8.7 193.99 8.7 193.99 47.09" style="fill:none; stroke:#000; stroke-miterlimit:10;"/><polyline points="8.7 155.6 8.7 193.99 47.09 193.99" style="fill:none; stroke:#000; stroke-miterlimit:10;"/><line x1="144.07" y1="10.68" x2="153.51" y2="1.24" style="fill:none; stroke:#000; stroke-miterlimit:10;"/><line x1=".53" y1="154.22" x2="9.98" y2="144.77" style="fill:none; stroke:#000; stroke-miterlimit:10;"/><line x1="192.01" y1="58.62" x2="201.45" y2="49.18" style="fill:none; stroke:#000; stroke-miterlimit:10;"/><line x1="48.47" y1="202.16" x2="57.92" y2="192.71" style="fill:none; stroke:#000; stroke-miterlimit:10;"/></svg>