<?xml version="1.0" encoding="UTF-8"?>
<svg id="Elements" xmlns="http://www.w3.org/2000/svg" version="1.1" viewBox="0 0 270 270">
  <defs>
    <style>
      .cls-1 {
        fill: #000;
        stroke-width: 0px;
      }
    </style>
  </defs>
  <path class="cls-1" d="M270.1,57.4l-8.4,6.7V8.3h-73.5L193.7.2h-117.5l5.6,8.1H8.3v55.5L.1,57.4v158.2l8.2-6.5v52.5h73.6l-5.7,8.4h117.5l-5.7-8.4h73.6v-52.7l8.4,6.7V57.4ZM184.4,10.3l-2.5,3.7h-93.7l-2.5-3.7-1.4-2-4.2-6.1h109.9l-4.2,6.1-1.4,2ZM8.3,206.5l-6.2,4.9V61.5l6.2,4.9,2,1.6,4,3.1v130.7l-4,3.1-2,1.6ZM190,268h-109.9l4.4-6.4,1.4-2,2.4-3.5h93.7l2.4,3.5,1.4,2,4.4,6.4ZM259.6,259.6h-73l-3.8-5.5h-95.8l-3.8,5.5H10.3v-52.1l6-4.7V70.2l-6-4.7V10.3h72.8l3.9,5.7h95.8l3.9-5.7h72.8v55.3l-5.8,4.6v132.6l5.8,4.6v52.3ZM259.6,204.8l-3.8-3V71.1l3.8-3,2-1.6,6.4-5.1v150l-6.4-5.1-2-1.6Z"/>
</svg>