<?xml version="1.0" encoding="UTF-8"?>
<svg id="_圖層_1" data-name="圖層 1" xmlns="http://www.w3.org/2000/svg" version="1.1" viewBox="0 0 301 300">
  <defs>
    <style>
      .cls-1 {
        fill: #000;
        stroke-width: 0px;
      }
    </style>
  </defs>
  <path class="cls-1" d="M150.9,300c-36.2,0-71.3-12.8-98.8-36.1C24.9,240.8,6.8,209,1.1,174.3v-.8c-.1,0,23.7-23.5,23.7-23.5h0S1.1,125.7,1.1,125.7v-.8C7.1,90.4,25.3,58.7,52.4,35.9,79.8,12.7,114.8,0,150.9,0s71.6,12.9,99.1,36.4c27.2,23.2,45.3,55.3,50.8,90.2v.8c.1,0-22.8,22.6-22.8,22.6l23,21.8v.8c-5.5,35.1-23.5,67.3-50.8,90.7-27.6,23.6-62.8,36.7-99.4,36.7ZM4.2,174.5c12.1,71,73.6,122.5,146.7,122.5s135.7-53.3,146.9-124.1l-24.1-22.9,24-23.7C286,54.8,224.4,3,150.9,3S16.7,54.1,4.3,124.7l24.7,25.4-24.8,24.5Z"/>
</svg>