<svg id="圖層_1" data-name="圖層 1" xmlns="http://www.w3.org/2000/svg" viewBox="0 0 384 384"><path d="M0,181.15H41.72V203.6H0Z"/><path d="M180.4,384V342.28h22.45V384Z"/><path d="M135.8,309.16c2.55-3,5.19-5.71,7.3-8.76s3.52-6.26,5.39-9.66c29.32,12,58.77,12.28,87.9-1a104.33,104.33,0,0,0,49.94-47.16c23-43.2,13.9-95.64-22.08-129.1C229.32,81,175.88,76.23,135.28,101c-37.52,22.88-68.08,79.4-40.56,138.12L77,252.5C53.16,211.31,53.85,142.11,105.06,95.88c49.12-44.34,124.19-44.23,173.32.16A129.18,129.18,0,0,1,296.14,269C255,324.94,184.39,333.67,135.8,309.16Z"/><path d="M234.47,202.41l22.86-5.88c2.5,19.72-16.88,47.32-40.79,57.19-27.08,11.18-58.94,2.65-77.07-20.62a66,66,0,0,1-1.07-80c18.52-25,49.43-31.54,72.06-23.87-2.55,3-5.36,5.86-7.57,9.11s-3.66,6.75-5.69,10.58c-14.64-1.43-27.65,3-38,14.2A42.32,42.32,0,0,0,148,190.89c-.8,21.49,14,40.05,35.64,44.43C202,239,227,229.92,234.47,202.41Z"/><path d="M158.54,358.44v22.34C83.64,369.9,15.12,305,3.14,225.31c6.88,0,13.73-.11,20.56.15.91,0,2.25,1.89,2.53,3.1,4.61,20.38,12.36,39.46,24.06,56.78,25.64,37.94,60.73,62.24,105.48,72.39C156.6,357.92,157.43,358.16,158.54,358.44Z"/><path d="M380,159.29H358c-2.06-7.18-3.66-14.49-6.23-21.45Q319.21,49.6,227.78,27.1c-2.37-.58-3.34-1.21-3.28-3.77.18-6.46.06-12.93.06-19.44C303.05,15.5,369,83.36,380,159.29Z"/><path d="M224.57,380.92c0-7-.09-14,.12-20.94,0-.76,1.65-1.91,2.7-2.14a165.13,165.13,0,0,0,62.38-27.7c35-25.44,57.48-59.24,67.15-101.48.24-1.07.51-2.14.8-3.35h19.67c.86,0,1.72.08,2.59.12C369.59,299.29,305.14,368.62,224.57,380.92Z"/><path d="M25.53,159.3H3.35C12.8,88.35,75.33,17,158.68,3.81c0,7,.11,13.94-.13,20.88,0,.81-1.83,2-3,2.28A167.52,167.52,0,0,0,79,66.25q-40.72,36.63-52.69,90.13C26.06,157.33,25.79,158.27,25.53,159.3Z"/><path d="M236.33,142.14a18.73,18.73,0,0,1,18.77,18.73,19,19,0,0,1-18.93,18.68,18.71,18.71,0,0,1-18.46-18.65A18.49,18.49,0,0,1,236.33,142.14Z"/><path d="M91.19,277.8A18.59,18.59,0,0,1,109.81,259a18.7,18.7,0,1,1-18.62,18.8Z"/><path d="M180.58,43.58V1h22V43.58Z"/><path d="M383.09,181.42v22H340.38v-22Z"/><path d="M180.57,203.34v-22h22v22Z"/></svg>