<svg id="圖層_1" data-name="圖層 1" xmlns="http://www.w3.org/2000/svg" viewBox="0 0 375.51 375.51"><path d="M183,0h9.51c4.45,1.84,9.19,3.21,13.31,5.61q56.55,32.92,112.9,66.17,21.43,12.6,42.74,25.39c10.64,6.4,15.23,16.71,12.55,27.89-1.75,7.28-6.24,12.54-12.61,16.31-6.57,3.9-13.12,7.84-20,12,1.52.95,2.64,1.67,3.77,2.35,6.08,3.61,12.3,7,18.2,10.86A24.42,24.42,0,0,1,374,193.26c-1.76,7.27-6.27,12.52-12.64,16.28-6.56,3.88-13.08,7.81-20,12,1.72,1,3,1.78,4.2,2.51,6,3.55,12.08,6.89,17.87,10.7A24.37,24.37,0,0,1,374,261.45c-1.88,7.7-6.9,12.9-13.61,16.85Q283.64,323.39,207,368.65c-13.27,7.86-26,7.84-39.25,0Q93.2,324.45,18.39,280.78C9.74,275.73,2.64,269.9,0,259.85V251.8a28.74,28.74,0,0,1,15.08-19.5c4.39-2.34,8.61-5,12.9-7.53,1.71-1,3.4-2,5.48-3.29-5.67-3.37-10.66-6.63-15.91-9.4-8.8-4.63-15.35-11-17.55-21v-7.32c2-4.11,3.39-8.64,6.09-12.2,2.33-3.07,5.95-5.3,9.29-7.43,5.78-3.68,11.78-7,18.12-10.72-5.76-3.44-10.84-6.78-16.2-9.6C8.58,139.21,2.24,132.85,0,123v-8c2.63-10.22,9.94-16,18.66-21.1C65.36,66.6,111.89,39.1,158.47,11.69,166.31,7.08,173.88,1.92,183,0Zm4.38,222c3.32-1.24,6.6-2,9.36-3.57q77.88-45.67,155.64-91.55c7.25-4.28,7.2-11.13-.09-15.43Q274.67,65.76,197,20.07c-6.51-3.84-12.84-3.75-19.31.06q-77.47,45.65-155,91.24c-7.68,4.52-7.66,11.25.08,15.81q77.48,45.63,155,91.15C180.68,220,184.06,220.78,187.38,222Zm0,136.29c3.36-1.28,6.75-2.06,9.62-3.74q77.58-45.48,155-91.18c7.69-4.53,7.63-11.25-.07-15.82-8.07-4.79-16.26-9.39-24.23-14.33-2.45-1.51-4.12-1.37-6.52.05-38.1,22.48-76.32,44.75-114.39,67.28-13.15,7.79-25.8,7.79-39,0C129.73,278,91.4,255.64,53.19,233.11c-2.17-1.28-3.72-1.33-5.88,0-8.12,5-16.38,9.65-24.55,14.51-7.68,4.56-7.72,11.28,0,15.82q77.48,45.66,155,91.18C180.66,356.29,184.05,357.06,187.4,358.33Zm0-68.14c3.37-1.3,6.86-2.14,9.83-3.88q77.43-45.39,154.74-91c7.88-4.65,7.77-11.26-.2-16-7.65-4.53-15.43-8.87-22.95-13.62-3-1.92-5.21-2-8.44-.11-37.85,22.42-75.86,44.57-113.73,67-13,7.71-25.62,7.63-38.64-.07C129.93,210,91.71,187.7,53.62,165.21c-2.58-1.52-4.35-1.47-6.82.06-8.09,5-16.38,9.65-24.53,14.54-7,4.22-7,11,.06,15.21Q100.12,240.88,178,286.59C180.75,288.21,184,288.93,187.39,290.19Z"/></svg>