<?xml version="1.0" encoding="utf-8"?>
<!-- Generator: Adobe Illustrator 22.1.0, SVG Export Plug-In . SVG Version: 6.00 Build 0)  -->
<svg version="1.1" id="圖層_1" xmlns="http://www.w3.org/2000/svg" xmlns:xlink="http://www.w3.org/1999/xlink" x="0px" y="0px"
	 viewBox="0 0 20.2 42.1" style="enable-background:new 0 0 20.2 42.1;" xml:space="preserve">
<style type="text/css">
	.st0{fill:#FFFFFF;}
</style>
<title>大型家電2</title>
<g id="f993c890-4096-4f23-8abd-3c468e0102cb">
	<g id="_x31_7b0f1ef-357b-4c6d-8ab4-596c5dc70a7e">
		<g>
			<path class="st0" d="M20.2,4.3v-1c0-1.8-1.5-3.3-3.3-3.3H3.3C1.5,0,0,1.5,0,3.3v36.8c0,1.1,0.9,2,2,2h16.2c1.1,0,2-0.9,2-2v-9.5
				 M1.3,32.1v-4.8 M1.3,27.2h1.4l0,0V32l0,0H1.3 M1.3,15.7h1.4l0,0v4.7l0,0H1.3V15.7z M18.9,40.1c0,0.4-0.3,0.7-0.7,0.7l0,0H2
				c-0.4,0-0.7-0.3-0.7-0.7l0,0v-6.8h1.4c0.7,0,1.3-0.6,1.3-1.3c0,0,0,0,0-0.1v-4.7C4,26.6,3.4,26,2.7,26c0,0,0,0,0,0H1.3v-1.5h17.4
				c0.3,0,0.6-0.3,0.6-0.6c0-0.3-0.3-0.6-0.6-0.6H1.3v-1.4h1.4c0.7,0,1.3-0.6,1.3-1.3c0,0,0,0,0,0v-4.7c0-0.7-0.6-1.3-1.3-1.3
				c0,0,0,0,0,0H1.3V3.3c0-1.1,0.9-2.1,2.1-2.1l0,0h13.5c1.1,0,2.1,0.9,2.1,2.1v19.9h-0.7c-0.3,0-0.6,0.3-0.6,0.6
				c0,0.3,0.3,0.6,0.6,0.6h0.7V40.1z M20.2,29.4V5.6"/>
			<path class="st0" d="M15.8,3.3h-2.7c-0.7,0-1.3,0.6-1.3,1.3v0v1.3c0,0.7,0.6,1.3,1.3,1.3h2.7c0.7,0,1.3-0.6,1.3-1.3v0V4.6
				C17.1,3.8,16.5,3.3,15.8,3.3z M15.8,5.9h-2.7l0,0V4.6l0,0h2.7V5.9z"/>
			<rect x="11.4" y="24.2" class="st0" width="1.3" height="16.6"/>
		</g>
	</g>
</g>
</svg>
