<?xml version="1.0" encoding="utf-8"?>
<!-- Generator: Adobe Illustrator 22.1.0, SVG Export Plug-In . SVG Version: 6.00 Build 0)  -->
<svg version="1.1" id="圖層_1" xmlns="http://www.w3.org/2000/svg" xmlns:xlink="http://www.w3.org/1999/xlink" x="0px" y="0px"
	 viewBox="0 0 45 45" style="enable-background:new 0 0 45 45;" xml:space="preserve">
<style type="text/css">
	.st0{fill:#333333;}
</style>
<title>廚房家電1</title>
<g id="c16e7186-065e-49c5-b5a4-9bd92d298f27">
	<g id="_x33_e16142c-91cd-48b8-ad9e-feef4cb03a72">
		<g>
			<path class="st0" d="M37.2,36.2L37.2,36.2l-1.7-7.9c-0.1-0.3-0.4-0.5-0.9-0.5h-0.9v-1.9c0-0.3-0.4-0.6-0.9-0.6l0,0h-0.7l1.6-15.7
				h1c0.5,0,0.9-0.3,0.9-0.6l0,0c0-1.7-2-3.2-4.3-3.2l0,0h-2.7V3.6c0-0.3-0.4-0.6-0.9-0.6l0,0H17.4c-0.5,0-0.9,0.3-0.9,0.6l0,0v2
				h-2.6c-2.5,0-4.4,1.4-4.4,3.2l0,0c0,0.3,0.4,0.6,0.9,0.6l0,0h1L13,25.1h-0.9c-0.5,0-0.9,0.3-0.9,0.6l0,0v1.9h-0.9
				c-0.4,0-0.7,0.2-0.9,0.5l-1.7,7.8V36l0,0v2.6c0,0.3,0.4,0.6,0.9,0.6l0,0h0.9v1.9c0,0.3,0.4,0.6,0.9,0.6H14c0.5,0,0.9-0.3,0.9-0.6
				l0,0v-1.7h15.6v1.9c0,0.3,0.4,0.6,0.9,0.6h3.4c0.5,0,0.9-0.3,0.9-0.6l0,0v-1.9h0.9c0.5,0,0.9-0.3,0.9-0.6l0,0L37.2,36.2
				L37.2,36.2z M18.2,4.3h8.7v1.3h-8.7V4.3z M13.9,6.9h17.3c1.1,0,2.1,0.5,2.5,1.3H11.5C11.8,7.4,12.8,6.9,13.9,6.9z M21.8,9.6h1.7
				v4.7h-1.8L21.8,9.6z M17,25.1h-2.3L13.1,9.4H20v5.5c0,0.3,0.4,0.6,0.9,0.6l0,0h3.4c0.5,0,0.9-0.3,0.9-0.6l0,0V9.5h6.9l-1.6,15.7
				H28 M25.1,25.2H20 M12.9,26.4H32v1.3H12.9V26.4z M9.6,35.6l1.5-6.6h22.8l1.5,6.6l0.2,1v1.9h-26v-2.5C9.6,35.9,9.6,35.6,9.6,35.6z
				 M12.9,40.8h-1.7v-1.3h1.7V40.8z M33.8,40.8h-1.7v-1.3h1.7V40.8z"/>
			<ellipse class="st0" cx="18.2" cy="34.3" rx="1.3" ry="1"/>
			<ellipse class="st0" cx="22.5" cy="34.3" rx="1.3" ry="1"/>
			<ellipse class="st0" cx="26.9" cy="34.3" rx="1.3" ry="1"/>
		</g>
	</g>
</g>
</svg>
