<?xml version="1.0" encoding="utf-8"?>
<!-- Generator: Adobe Illustrator 22.1.0, SVG Export Plug-In . SVG Version: 6.00 Build 0)  -->
<svg version="1.1" id="圖層_1" xmlns="http://www.w3.org/2000/svg" xmlns:xlink="http://www.w3.org/1999/xlink" x="0px" y="0px"
	 viewBox="0 0 45 45" style="enable-background:new 0 0 45 45;" xml:space="preserve">
<style type="text/css">
	.st0{fill:#333333;}
</style>
<title>大型家電1</title>
<g id="bf986cbd-eac9-4707-aa9e-e897cf4ea740">
	<g id="a77679c4-0a2f-463a-a003-9eacd0caacbc">
		<g>
			<path class="st0" d="M32.2,6.4v-1c0-1.7-1.4-3.2-3.2-3.2H15.9c-1.7,0-3.2,1.4-3.2,3.2v35.5c0,1.1,0.9,1.9,1.9,1.9h15.6
				c1.1,0,1.9-0.9,1.9-1.9v-9.2 M14,33.1v-4.6 M14,28.4h1.3l0,0v4.6l0,0H14 M14,17.3h1.3l0,0v4.5l0,0H14V17.3z M31,40.9
				c0,0.4-0.3,0.7-0.7,0.7l0,0H14.7c-0.4,0-0.7-0.3-0.7-0.7l0,0v-6.6h1.3c0.7,0,1.3-0.6,1.3-1.3c0,0,0,0,0-0.1v-4.5
				c0-0.6-0.6-1.2-1.3-1.2l0,0H14v-1.4h16.8c0.3,0,0.6-0.3,0.6-0.6c0-0.3-0.3-0.6-0.6-0.6H14v-1.3h1.3c0.7,0,1.3-0.6,1.3-1.3l0,0
				v-4.5c0-0.7-0.6-1.3-1.3-1.3l0,0H14V5.4c0-1.1,0.9-2,2-2l0,0h13c1.1,0,2,0.9,2,2v19.2h-0.7c-0.3,0-0.6,0.3-0.6,0.6
				c0,0.3,0.3,0.6,0.6,0.6h0.7L31,40.9L31,40.9z M32.2,30.5V7.6"/>
			<path class="st0" d="M28,5.4h-2.6c-0.7,0-1.3,0.6-1.3,1.3l0,0v1.3c0,0.7,0.6,1.3,1.3,1.3H28c0.7,0,1.3-0.6,1.3-1.3l0,0V6.6
				C29.2,5.9,28.7,5.4,28,5.4z M28,7.9h-2.6l0,0V6.6l0,0H28V7.9z"/>
			<rect x="23.8" y="25.5" class="st0" width="1.3" height="16"/>
		</g>
	</g>
</g>
</svg>
