<?xml version="1.0" encoding="utf-8"?>
<!-- Generator: Adobe Illustrator 22.1.0, SVG Export Plug-In . SVG Version: 6.00 Build 0)  -->
<svg version="1.1" id="圖層_1" xmlns="http://www.w3.org/2000/svg" xmlns:xlink="http://www.w3.org/1999/xlink" x="0px" y="0px"
	 viewBox="0 0 45 45" style="enable-background:new 0 0 45 45;" xml:space="preserve">
<style type="text/css">
	.st0{fill:#333333;}
</style>
<title>生活家電1</title>
<g id="_x39_c9ccd50-0b44-4812-981a-752db827b1ba">
	<g id="_x31_517579f-9806-4b15-94eb-3c21883df172">
		<g>
			<path class="st0" d="M15,26.4L14.7,29c-0.1,0.6,0.1,1.1,0.5,1.6c0.4,0.5,0.9,0.7,1.5,0.7H19c0.6,0,1.2-0.2,1.6-0.7s0.5-1,0.5-1.6
				l-0.4-2.6c-0.1-1-1-1.7-2-1.7h-1.7C16,24.7,15.2,25.4,15,26.4z M19.3,26.5l0.4,2.6c0.1,0.2,0,0.4-0.1,0.6
				c-0.2,0.1-0.4,0.2-0.6,0.2h-2.3c-0.2,0-0.4-0.1-0.6-0.2c-0.1-0.2-0.2-0.4-0.1-0.6l0.3-2.6c0-0.4,0.3-0.6,0.7-0.6h1.7
				C19,26,19.3,26.3,19.3,26.5z"/>
			<path class="st0" d="M33.3,37.2h-0.4c0-0.2,0.1-0.5,0.1-0.7v-1.3c0-0.4-0.2-0.7-0.6-0.7h-0.1h-0.7V10.6c0-4.4-3.6-8-8-8
				s-8,3.6-8,8v3.9c-0.4,0-0.7,0.3-0.7,0.6v0.1v2.5c-2.8,1.1-4.6,3.8-4.6,6.8v8H9.8c-1,0-2,0.8-2,1.9v0.1v4.7c0,1,0.8,2,1.9,2h0.1
				h0.8c0.3,0.8,1,1.3,2,1.3h23.9c0.4,0,0.7-0.3,0.8-0.7v-1.1C37.1,38.7,35.4,37.1,33.3,37.2z M29.5,38.5L29.5,38.5
				c-0.7,0-1.2-0.4-1.5-0.9c0-0.1-0.1-0.1-0.2-0.2c-0.1-0.3-0.2-0.6-0.1-0.9v-0.7h3.9v0.7c0,0.3-0.1,0.7-0.2,0.9v0.1
				c-0.4,0.6-0.9,0.9-1.6,0.9L29.5,38.5L29.5,38.5z M17.8,19.9c-0.8,0-1.3-0.6-1.3-1.3v-2.7h2.6v2.5C19.1,19.1,18.6,19.8,17.8,19.9
				L17.8,19.9z M19.8,14.5v-3.9c0-2.2,1.8-3.9,3.9-3.9s3.9,1.8,3.9,3.9v23.9c0-1-0.8-2-1.9-2h-0.1H25v-8c0-3-1.9-5.7-4.6-6.8v-2.4
				C20.5,14.9,20.2,14.5,19.8,14.5C19.9,14.5,19.8,14.5,19.8,14.5z M25.6,37.1h-0.5v-3.3h0.7c0.4,0,0.7,0.3,0.7,0.6c0,0,0,0,0,0.1
				v2.6L25.6,37.1L25.6,37.1z M17.1,10.6c0.2-3.7,3.2-6.5,6.9-6.4c3.5,0.1,6.3,2.9,6.4,6.4v23.9h-1.3V10.6c0-2.9-2.3-5.4-5.3-5.4
				s-5.4,2.3-5.4,5.4v3.9h-1.3V10.6L17.1,10.6z M9.2,39.1v-4.7c0-0.4,0.3-0.7,0.6-0.7c0,0,0,0,0.1,0h0.7v6H9.8
				C9.5,39.8,9.2,39.5,9.2,39.1L9.2,39.1z M14.5,41.1h-2c-0.4,0-0.7-0.3-0.7-0.6v-0.1v-16c0-2.3,1.3-4.4,3.4-5.4l0,0
				c0.1,0.3,0.2,0.6,0.4,0.8c0.1,0.2,0.2,0.3,0.4,0.5c0.6,0.6,1.2,0.8,2,0.8c0.2,0,0.5-0.1,0.7-0.1c0.7-0.2,1.2-0.7,1.6-1.3l0,0
				v-0.1v-0.1l0,0c0.1-0.1,0.1-0.3,0.1-0.5c2.2,0.9,3.5,3.1,3.5,5.4v13.4L23.7,38l-0.1,0.1l0,0c-0.6,0.5-0.8,1.1-1,1.8l0,0
				c0,0,0,0.1,0,0.2v0.1v0.1v0.1c0,0,0,0,0,0.1v0.7h-1.5 M19.8,41.1h-3.9 M35.7,41.1H23.8v-0.5c0.1-1.3,1.2-2.3,2.4-2.2h0.8
				c1.1,1.5,3.2,1.8,4.7,0.7c0.3-0.2,0.5-0.4,0.7-0.7h0.8c1.3-0.1,2.3,0.9,2.4,2.2V41.1L35.7,41.1z"/>
		</g>
	</g>
</g>
</svg>
