<?xml version="1.0" encoding="utf-8"?>
<!-- Generator: Adobe Illustrator 22.1.0, SVG Export Plug-In . SVG Version: 6.00 Build 0)  -->
<svg version="1.1" id="圖層_1" xmlns="http://www.w3.org/2000/svg" xmlns:xlink="http://www.w3.org/1999/xlink" x="0px" y="0px"
	 viewBox="0 0 45 45" style="enable-background:new 0 0 45 45;" xml:space="preserve">
<style type="text/css">
	.st0{fill:#333333;}
</style>
<title>大型家電1</title>
<g id="bf986cbd-eac9-4707-aa9e-e897cf4ea740_1_">
	<g id="a77679c4-0a2f-463a-a003-9eacd0caacbc_1_">
		<g>
			<path class="st0" d="M35.1,9.1V7.9c0-2.3-1.9-4.1-4.1-4.1H14c-2.3,0-4.1,1.9-4.1,4.1v30.9c0,1.4,1.1,2.5,2.5,2.5h20.3
				c1.4,0,2.5-1.1,2.5-2.5v-6.3 M11.5,32.2v-3.8 M11.5,28.2h1.8l0,0V32l0,0h-1.8 M11.5,16.4h1.8l0,0v3.3l0,0h-1.8V16.4z M33.5,38.7
				c0,0.5-0.4,0.9-0.9,0.9l0,0H12.4c-0.5,0-0.9-0.4-0.9-0.9l0,0v-5.1h1.8c0.9,0,1.6-0.8,1.6-1.6c0,0,0,0,0-0.1v-3.7
				c0-0.8-0.8-1.5-1.6-1.5l0,0h-1.8v-1.9h21.8c0.4,0,0.8-0.4,0.8-0.8c0-0.4-0.4-0.8-0.8-0.8H11.5v-1.8h1.8c0.9,0,1.6-0.8,1.6-1.6
				l0,0v-3.3c0-0.9-0.8-1.6-1.6-1.6l0,0h-1.8V7.9c0-1.4,1.1-2.6,2.6-2.6l0,0H31c1.4,0,2.6,1.1,2.6,2.6v15.3h-0.9
				c-0.4,0-0.8,0.4-0.8,0.8c0,0.4,0.4,0.8,0.8,0.8h0.9v14.1H33.5z M35.1,30.9V10.8"/>
			<path class="st0" d="M29.6,7.9h-3.4c-0.9,0-1.6,0.8-1.6,1.6l0,0v1.6c0,0.9,0.8,1.6,1.6,1.6h3.4c0.9,0,1.6-0.8,1.6-1.6l0,0V9.5
				C31.3,8.5,30.5,7.9,29.6,7.9z M29.6,11.1h-3.4l0,0V9.5l0,0h3.4V11.1z"/>
			<rect x="24.1" y="24.4" class="st0" width="1.6" height="15.2"/>
		</g>
	</g>
</g>
</svg>
