<?xml version="1.0" encoding="utf-8"?>
<!-- Generator: Adobe Illustrator 22.1.0, SVG Export Plug-In . SVG Version: 6.00 Build 0)  -->
<svg version="1.1" id="圖層_1" xmlns="http://www.w3.org/2000/svg" xmlns:xlink="http://www.w3.org/1999/xlink" x="0px" y="0px"
	 viewBox="0 0 45 45" style="enable-background:new 0 0 45 45;" xml:space="preserve">
<style type="text/css">
	.st0{fill:#333333;}
</style>
<title>行動通訊2</title>
<g id="_x39_9078534-fee1-4947-880e-c1eb2c75b4bd">
	<g id="e40abc5c-e389-4bc5-867a-da0d05c3871d">
		<g>
			<path class="st0" d="M24.4,6.1h-3.8c-0.5,0-0.8,0.4-0.8,0.8c0,0.5,0.4,0.8,0.8,0.8h3.8c0.5,0,0.8-0.4,0.8-0.8
				C25.2,6.4,24.8,6.1,24.4,6.1z"/>
			<path class="st0" d="M31.8,3H13.2c-1.3,0-2.5,1.1-2.5,2.5v34.1c0,1.4,1.1,2.5,2.5,2.5l0,0h18.5c1.4,0,2.5-1.1,2.5-2.5V5.4
				C34.2,4.1,33.1,3,31.8,3z M32.5,39.6c0,0.5-0.4,0.9-0.9,0.9l0,0H13.2c-0.5,0-0.9-0.4-0.9-0.9V5.4c0-0.5,0.4-0.9,0.9-0.9h18.5
				c0.5,0,0.9,0.4,0.9,0.9V39.6z"/>
			<g>
				<path class="st0" d="M23.5,18.5c-0.3-0.3-0.9-0.3-1.1,0l-4,4c-0.3,0.3-0.4,0.9,0,1.1l0,0c0.1,0.3,0.3,0.4,0.5,0.3
					c0.2,0,0.5-0.1,0.6-0.3l4-4C23.8,19.3,23.8,18.8,23.5,18.5z"/>
				<path class="st0" d="M25.9,20.8c-0.3-0.3-0.9-0.3-1.1,0l-1.6,1.6c-0.3,0.3-0.3,0.9,0,1.1c0.2,0.2,0.4,0.3,0.6,0.3
					s0.5-0.1,0.6-0.3l1.6-1.6C26.2,21.7,26.2,21.1,25.9,20.8z"/>
			</g>
			<path class="st0" d="M30.1,9.1H14.9c-0.4,0-0.8,0.3-0.8,0.8l0,0v23c0,0.4,0.3,0.8,0.8,0.8l0,0h15.2c0.4,0,0.8-0.4,0.8-0.8l0,0
				v-23C30.9,9.4,30.5,9.1,30.1,9.1C30.2,9.1,30.1,9.1,30.1,9.1z M29.3,32.2H15.7V10.7h13.7L29.3,32.2z"/>
			<circle class="st0" cx="22.5" cy="36.9" r="1.7"/>
		</g>
	</g>
</g>
</svg>
