<?xml version="1.0" encoding="utf-8"?>
<!-- Generator: Adobe Illustrator 22.1.0, SVG Export Plug-In . SVG Version: 6.00 Build 0)  -->
<svg version="1.1" id="圖層_1" xmlns="http://www.w3.org/2000/svg" xmlns:xlink="http://www.w3.org/1999/xlink" x="0px" y="0px"
	 viewBox="0 0 45 45" style="enable-background:new 0 0 45 45;" xml:space="preserve">
<style type="text/css">
	.st0{fill:#333333;}
</style>
<title>冷氣空調1</title>
<g id="e5bd5a57-238e-4a86-af11-49be5bed8682">
	<g id="_x37_65b2adb-5022-4d20-9bbd-47fdf761994f">
		<g>
			<path class="st0" d="M40.7,9.7H4.3c-1.1,0-2.1,0.9-2.1,2.1l0,0v13.5c0,1.1,0.9,2.1,2.1,2.1h36.5c1.1,0,2.1-0.9,2.1-2.1V11.7
				C42.8,10.6,41.9,9.7,40.7,9.7z M6.9,25.9v-1.3h31.2v1.3H6.9z M38.1,23.2H6.9v-1.3h31.2C38.1,21.9,38.1,23.2,38.1,23.2z
				 M41.5,25.3c0,0.4-0.3,0.7-0.7,0.7l0,0h-1.3v-5.5H5.7V26H4.3c-0.4,0-0.7-0.3-0.7-0.7V11.7c0-0.4,0.3-0.7,0.7-0.7l0,0h36.5
				c0.4,0,0.7,0.3,0.7,0.7l0,0V25.3z"/>
			<path class="st0" d="M15.7,14.4h13.5v1.4H15.7V14.4z"/>
			<path class="st0" d="M11.2,30.7l-4.3,3.9c-0.3,0.3-0.8,0.3-1-0.1l0,0c-0.3-0.3-0.3-0.8,0.1-1l4.3-3.9c0.3-0.2,0.8-0.2,1,0.1l0,0
				C11.6,30.1,11.5,30.5,11.2,30.7z"/>
			<path class="st0" d="M17.1,30.7l-4.3,3.9c-0.3,0.3-0.8,0.3-1-0.1l0,0c-0.3-0.3-0.3-0.8,0.1-1l4.3-3.9c0.3-0.3,0.8-0.3,1,0.1l0,0
				C17.4,30.1,17.4,30.5,17.1,30.7z"/>
			<path class="st0" d="M32,35.1l-4-4.4c-0.3-0.3-0.3-0.8,0.1-1l0,0c0.3-0.3,0.8-0.3,1,0.1l3.9,4.3c0.3,0.3,0.3,0.8-0.1,1l0,0
				C32.7,35.4,32.3,35.3,32,35.1z"/>
			<path class="st0" d="M37.8,35.1l-3.9-4.3c-0.3-0.3-0.3-0.8,0.1-1l0,0c0.3-0.3,0.8-0.3,1,0.1l3.9,4.3c0.3,0.3,0.3,0.8-0.1,1l0,0
				C38.6,35.4,38.1,35.3,37.8,35.1z"/>
		</g>
	</g>
</g>
</svg>
