<?xml version="1.0" encoding="utf-8"?>
<!-- Generator: Adobe Illustrator 22.1.0, SVG Export Plug-In . SVG Version: 6.00 Build 0)  -->
<svg version="1.1" id="圖層_1" xmlns="http://www.w3.org/2000/svg" xmlns:xlink="http://www.w3.org/1999/xlink" x="0px" y="0px"
	 viewBox="0 0 45 45" style="enable-background:new 0 0 45 45;" xml:space="preserve">
<style type="text/css">
	.st0{fill:#333333;}
</style>
<title>行動通訊2</title>
<g id="_x39_9078534-fee1-4947-880e-c1eb2c75b4bd">
	<g id="e40abc5c-e389-4bc5-867a-da0d05c3871d">
		<g>
			<path class="st0" d="M25.2,6.7H20c-0.7,0-1.1,0.5-1.1,0.9c0,0.6,0.5,0.9,1.1,0.9h5.2c0.7,0,1.1-0.5,1.1-0.9
				C26.3,7,25.7,6.7,25.2,6.7z"/>
			<path class="st0" d="M35.3,3.1H9.8C8.1,3.1,6.4,4.4,6.4,6v33c0,1.6,1.5,2.9,3.4,2.9l0,0h25.3c1.9,0,3.4-1.3,3.4-2.9v-33
				C38.6,4.4,37.1,3.1,35.3,3.1z M36.2,39c0,0.6-0.5,1-1.2,1l0,0H9.8c-0.7,0-1.2-0.5-1.2-1v-33c0-0.6,0.5-1,1.2-1h25.3
				c0.7,0,1.2,0.5,1.2,1v33.1h-0.1V39z"/>
			<g>
				<path class="st0" d="M23.9,17.3c-0.4-0.3-1.2-0.3-1.5,0L17,21.9c-0.4,0.3-0.5,1,0,1.3l0,0c0.1,0.3,0.4,0.5,0.7,0.3
					c0.3,0,0.7-0.1,0.8-0.3l5.5-4.6C24.3,18.3,24.3,17.7,23.9,17.3z"/>
				<path class="st0" d="M27.2,20c-0.4-0.3-1.2-0.3-1.5,0l-2.2,1.8c-0.4,0.3-0.4,1,0,1.3c0.3,0.2,0.5,0.3,0.8,0.3s0.7-0.1,0.8-0.3
					l2.2-1.8C27.6,21,27.6,20.3,27.2,20z"/>
			</g>
			<path class="st0" d="M33,10.1H12.2c-0.5,0-1.1,0.3-1.1,0.9l0,0v20.3c0,0.5,0.4,0.9,1.1,0.9l0,0H33c0.5,0,1.1-0.5,1.1-0.9l0,0V11
				C34.1,10.5,33.5,10.1,33,10.1C33.1,10.1,33,10.1,33,10.1z M31.9,30.5H13.3V12H32L31.9,30.5z"/>
			<ellipse class="st0" cx="22.6" cy="35.9" rx="2.3" ry="2"/>
		</g>
	</g>
</g>
</svg>
