<?xml version="1.0" encoding="utf-8"?>
<!-- Generator: Adobe Illustrator 22.1.0, SVG Export Plug-In . SVG Version: 6.00 Build 0)  -->
<svg version="1.1" id="圖層_1" xmlns="http://www.w3.org/2000/svg" xmlns:xlink="http://www.w3.org/1999/xlink" x="0px" y="0px"
	 viewBox="0 0 45 45" style="enable-background:new 0 0 45 45;" xml:space="preserve">
<style type="text/css">
	.st0{fill:#333333;}
</style>
<title>健康美容1</title>
<g id="d849e0cd-cef7-4d35-aa39-70c07d1fa5a3">
	<g id="b2b06201-bcb2-4292-accf-9a86ac46caf8">
		<g>
			<path class="st0" d="M28,37.5h4.1l2.1-10.9c5.3-1.1,8.5-6.3,7.5-11.6c-1-4.5-5-7.7-9.6-7.6c-5.7,0-18.8,4.5-20.2,4.9H6.6
				l-3.5-1.2v12.5l3.5-1.7h5.2c1,0.4,8.3,2.8,14.2,4.1l-1.7,6.7c-1.4,0.3-2.2,1.6-1.9,2.9c0.3,1.2,1.3,2,2.5,2h1.8 M11.2,20.5H6.3
				l-1.9,0.9V13l1.9,0.6h4.8L11.2,20.5L11.2,20.5z M12.6,20.7v-7.2c2.5-0.8,14.3-4.7,19.4-4.7c4.6,0.2,8.2,4,8.1,8.6
				c-0.2,4.4-3.6,7.9-8.1,8.1C27.4,25.5,15.1,21.5,12.6,20.7z M24.9,36.1c-0.6-0.1-1.1-0.6-1-1.3c0.1-0.5,0.5-1,1-1h0.5l2-7.7
				c1.5,0.4,3.1,0.5,4.6,0.6c0.3,0,0.5,0,0.8,0l-1.7,9.4C31.1,36.1,24.9,36.1,24.9,36.1z"/>
			<path class="st0" d="M21.2,16L21.2,16c0.6,0,1.3,0.5,1.3,1.3l0,0c0,0.6-0.5,1.3-1.3,1.3l0,0c-0.6,0-1.3-0.5-1.3-1.3l0,0
				C19.9,16.5,20.5,16,21.2,16z"/>
			<path class="st0" d="M17.4,16L17.4,16c0.6,0,1.2,0.5,1.2,1.3l0,0c0,0.6-0.5,1.3-1.3,1.3l0,0c-0.6,0-1.3-0.5-1.3-1.3l0,0
				C16.2,16.5,16.8,16,17.4,16z"/>
			<path class="st0" d="M31.9,23c-3.1,0-5.6-2.5-5.6-5.6s2.5-5.6,5.6-5.6s5.6,2.5,5.6,5.6l0,0C37.6,20.4,35,23,31.9,23z M31.9,13.8
				c-1.9,0-3.5,1.5-3.5,3.5s1.5,3.5,3.5,3.5s3.5-1.5,3.5-3.5C35.4,15.3,33.9,13.8,31.9,13.8z"/>
		</g>
	</g>
</g>
</svg>
