<?xml version="1.0" encoding="utf-8"?>
<!-- Generator: Adobe Illustrator 22.1.0, SVG Export Plug-In . SVG Version: 6.00 Build 0)  -->
<svg version="1.1" id="圖層_1" xmlns="http://www.w3.org/2000/svg" xmlns:xlink="http://www.w3.org/1999/xlink" x="0px" y="0px"
	 viewBox="0 0 45 45" style="enable-background:new 0 0 45 45;" xml:space="preserve">
<style type="text/css">
	.st0{fill:#333333;}
</style>
<title>冷氣空調1</title>
<g id="e5bd5a57-238e-4a86-af11-49be5bed8682">
	<g id="_x37_65b2adb-5022-4d20-9bbd-47fdf761994f">
		<g>
			<path class="st0" d="M39.1,8.3H5.8c-1,0-1.9,1-1.9,2.3l0,0v14.9c0,1.2,0.8,2.3,1.9,2.3h33.4c1,0,1.9-1,1.9-2.3v-15
				C41,9.3,40.2,8.3,39.1,8.3z M8.2,26.3v-1.4h28.5v1.4H8.2z M36.7,23.3H8.2v-1.4h28.5C36.7,21.8,36.7,23.3,36.7,23.3z M39.8,25.6
				c0,0.4-0.2,0.8-0.7,0.8l0,0H38v-6.1H7.1v6.1H5.8c-0.3,0-0.7-0.3-0.7-0.8v-15c0-0.4,0.2-0.8,0.7-0.8l0,0h33.4
				c0.3,0,0.7,0.3,0.7,0.8l0,0V25.6z"/>
			<path class="st0" d="M16.2,13.5h12.3V15H16.2V13.5z"/>
			<path class="st0" d="M12.2,31.6l-4,4.3c-0.2,0.3-0.7,0.3-0.9-0.1l0,0c-0.2-0.3-0.2-0.9,0.1-1.1l4-4.4c0.2-0.2,0.7-0.2,0.9,0.1
				l0,0C12.5,30.9,12.4,31.3,12.2,31.6z"/>
			<path class="st0" d="M17.5,31.6l-4,4.3c-0.2,0.3-0.7,0.3-0.9-0.1l0,0c-0.2-0.3-0.2-0.9,0.1-1.1l4-4.3c0.2-0.3,0.7-0.3,0.9,0.1
				l0,0C17.8,30.9,17.8,31.3,17.5,31.6z"/>
			<path class="st0" d="M31.1,36.4l-3.6-4.9c-0.2-0.3-0.2-0.9,0.1-1.1l0,0c0.2-0.3,0.7-0.3,0.9,0.1l3.6,4.8c0.2,0.3,0.2,0.9-0.1,1.1
				l0,0C31.8,36.8,31.4,36.6,31.1,36.4z"/>
			<path class="st0" d="M36.5,36.4l-3.6-4.7c-0.2-0.3-0.2-0.9,0.1-1.1l0,0c0.2-0.3,0.7-0.3,0.9,0.1l3.6,4.8c0.2,0.3,0.2,0.9-0.1,1.1
				l0,0C37.1,36.8,36.7,36.6,36.5,36.4z"/>
		</g>
	</g>
</g>
</svg>
