<?xml version="1.0" encoding="utf-8"?>
<!-- Generator: Adobe Illustrator 22.1.0, SVG Export Plug-In . SVG Version: 6.00 Build 0)  -->
<svg version="1.1" id="圖層_1" xmlns="http://www.w3.org/2000/svg" xmlns:xlink="http://www.w3.org/1999/xlink" x="0px" y="0px"
	 viewBox="0 0 45 45" style="enable-background:new 0 0 45 45;" xml:space="preserve">
<style type="text/css">
	.st0{fill:#333333;}
</style>
<title>健康美容1</title>
<g id="d849e0cd-cef7-4d35-aa39-70c07d1fa5a3">
	<g id="b2b06201-bcb2-4292-accf-9a86ac46caf8">
		<g>
			<path class="st0" d="M27.8,38.4h3.9l2-11.5c5-1.2,8.1-6.7,7.2-12.3c-0.9-4.8-4.7-8.2-9.2-8.1c-5.5,0-18,4.8-19.3,5.2h-5l-3.4-1.3
				v13.3l3.4-1.8h5c1,0.5,7.9,2.9,13.6,4.3l-1.7,7.1c-1.3,0.3-2.1,1.7-1.8,3.1c0.2,1.3,1.2,2.1,2.4,2.1h1.7 M11.7,20.4H7l-1.8,0.9
				v-8.9L7,13.1h4.6V20.4L11.7,20.4z M13,20.6V13C15.4,12.2,26.7,8,31.6,8c4.4,0.2,7.9,4.2,7.8,9.1c-0.2,4.7-3.5,8.3-7.8,8.6
				C27.2,25.7,15.4,21.4,13,20.6z M24.8,37c-0.6-0.1-1.1-0.6-1-1.4c0.1-0.5,0.5-1.1,1-1.1h0.5l1.9-8.1c1.4,0.5,3,0.5,4.4,0.6
				c0.2,0,0.5,0,0.7,0l-1.7,10C30.8,37,24.8,37,24.8,37z"/>
			<path class="st0" d="M21.3,15.6L21.3,15.6c0.6,0,1.2,0.5,1.2,1.4l0,0c0,0.6-0.5,1.4-1.2,1.4l0,0c-0.6,0-1.2-0.5-1.2-1.4l0,0
				C20,16.2,20.6,15.6,21.3,15.6z"/>
			<path class="st0" d="M17.6,15.6L17.6,15.6c0.6,0,1.2,0.5,1.2,1.4l0,0c0,0.6-0.5,1.4-1.2,1.4l0,0c-0.6,0-1.2-0.5-1.2-1.4l0,0
				C16.5,16.2,17,15.6,17.6,15.6z"/>
			<path class="st0" d="M31.5,23c-3,0-5.4-2.7-5.4-5.9s2.4-5.9,5.4-5.9s5.4,2.7,5.4,5.9l0,0C37,20.3,34.5,23,31.5,23z M31.5,13.3
				c-1.8,0-3.4,1.6-3.4,3.7s1.4,3.7,3.4,3.7c1.9,0,3.4-1.6,3.4-3.7S33.4,13.3,31.5,13.3z"/>
		</g>
	</g>
</g>
</svg>
