<?xml version="1.0" encoding="utf-8"?>
<!-- Generator: Adobe Illustrator 22.1.0, SVG Export Plug-In . SVG Version: 6.00 Build 0)  -->
<svg version="1.1" id="圖層_1" xmlns="http://www.w3.org/2000/svg" xmlns:xlink="http://www.w3.org/1999/xlink" x="0px" y="0px"
	 viewBox="0 0 45 45" style="enable-background:new 0 0 45 45;" xml:space="preserve">
<style type="text/css">
	.st0{fill:#333333;}
</style>
<title>電視影音1</title>
<g id="_x33_e5e5dbc-896c-4805-b53e-ece3cba357d1">
	<g id="_x30_c2fe277-14f5-4454-a88b-7e15260f9311">
		<g>
			<path class="st0" d="M41.1,7.5H4c-1.1,0-1.9,0.9-1.9,1.9v23c0,1.1,0.9,1.9,1.9,1.9h12.8L16.2,36h-2.8c-0.4,0-0.7,0.3-0.7,0.7l0,0
				c0,0.4,0.3,0.7,0.7,0.7l0,0h18.2c0.4,0,0.7-0.3,0.7-0.7l0,0c0-0.4-0.3-0.7-0.7-0.7l0,0h-2.8l-0.7-1.6H41c1.1,0,1.9-0.9,1.9-1.9
				v-23C43,8.4,42.1,7.5,41.1,7.5z M27.5,36h-9.8l0.7-1.6h8.5L27.5,36z M41.7,32.4c0,0.3-0.3,0.6-0.6,0.6H4c-0.3,0-0.6-0.3-0.6-0.6
				v-23c0-0.3,0.3-0.6,0.6-0.6l0,0h37.1c0.4-0.1,0.6,0.2,0.6,0.6l0,0V32.4z"/>
			<path class="st0" d="M12.2,15l-3.1,1.9c-0.3,0.1-0.6,0-0.8-0.2l0,0c-0.2-0.3-0.1-0.6,0.2-0.8l3.1-1.9c0.3-0.2,0.6-0.1,0.7,0.2
				l0,0C12.5,14.5,12.4,14.8,12.2,15z"/>
			<path class="st0" d="M11.6,18.1L8.5,20c-0.3,0.2-0.6,0.1-0.7-0.2l0,0c-0.2-0.3-0.1-0.6,0.2-0.7l3.1-1.9c0.3-0.2,0.6-0.1,0.7,0.2
				l0,0C12,17.6,11.9,17.9,11.6,18.1z"/>
			<rect x="12.3" y="36" class="st0" width="20.6" height="1.4"/>
			<path class="st0" d="M38.9,31.6H6.3C5.6,31.6,5,31,5,30.2l0,0V12.1c0-0.8,0.6-1.4,1.4-1.4l0,0h32.4c0.8,0,1.4,0.6,1.4,1.4v18.2
				C40.2,31,39.6,31.6,38.9,31.6z M6.4,30.1h32.3v-18H6.4V30.1z"/>
		</g>
	</g>
</g>
</svg>
