<?xml version="1.0" encoding="utf-8"?>
<!-- Generator: Adobe Illustrator 22.1.0, SVG Export Plug-In . SVG Version: 6.00 Build 0)  -->
<svg version="1.1" id="圖層_1" xmlns="http://www.w3.org/2000/svg" xmlns:xlink="http://www.w3.org/1999/xlink" x="0px" y="0px"
	 viewBox="0 0 45 45" style="enable-background:new 0 0 45 45;" xml:space="preserve">
<style type="text/css">
	.st0{fill:#333333;}
</style>
<title>電腦資訊1</title>
<g id="_x31_10d4eac-7191-49ea-b049-01157388138f">
	<g id="_x31_78ae1ff-526a-420c-ad3c-c8dcf1539578">
		<g>
			<g>
				<path class="st0" d="M30.3,15.9c-0.3-0.3-0.7-0.3-1,0l0,0l-3.5,3.5c-0.3,0.3-0.3,0.7,0,1l0,0c0.3,0.3,0.7,0.3,1,0l0,0l3.5-3.5
					C30.7,16.7,30.7,16.2,30.3,15.9C30.4,15.9,30.4,15.9,30.3,15.9z"/>
				<path class="st0" d="M32.5,17.9c-0.3-0.3-0.7-0.3-1,0l0,0l-1.4,1.4c-0.3,0.3-0.3,0.7,0,1l0,0c0.3,0.3,0.7,0.3,1,0l0,0l1.4-1.4
					C32.7,18.6,32.7,18.2,32.5,17.9z"/>
			</g>
			<path class="st0" d="M41.3,32.4h-0.9v-21c0-1.5-1.2-2.7-2.7-2.7H7.4c-1.5,0-2.7,1.2-2.7,2.7v21.1H3.7c-0.6,0-1,0.5-1,1v1.9
				c0,0.6,0.5,1,1,1l0,0h37.5c0.6,0,1-0.5,1-1v-1.9C42.3,32.8,41.8,32.4,41.3,32.4z M6,11.3c0-0.7,0.7-1.4,1.4-1.4h30.3
				c0.7,0,1.4,0.7,1.4,1.4v21.1H26l-0.2,0.5c0,0.1-0.2,0.2-0.3,0.2h-5.2c-0.2,0-0.3-0.1-0.3-0.2l-0.2-0.5H6V11.3z M41,35.1H4v-1.3
				h14.9c0.3,0.4,0.8,0.7,1.3,0.7h5.2c0.6,0,1-0.3,1.3-0.7H41V35.1z"/>
			<path class="st0" d="M36.1,12.1H8.9v18.2h27.4L36.1,12.1L36.1,12.1z M35,29.2H10v-16h25.1L35,29.2L35,29.2z"/>
		</g>
	</g>
</g>
</svg>
