<?xml version="1.0" encoding="utf-8"?>
<!-- Generator: Adobe Illustrator 22.1.0, SVG Export Plug-In . SVG Version: 6.00 Build 0)  -->
<svg version="1.1" id="圖層_1" xmlns="http://www.w3.org/2000/svg" xmlns:xlink="http://www.w3.org/1999/xlink" x="0px" y="0px"
	 viewBox="0 0 45 45" style="enable-background:new 0 0 45 45;" xml:space="preserve">
<style type="text/css">
	.st0{fill:#333333;}
</style>
<title>電視影音1</title>
<g id="_x33_e5e5dbc-896c-4805-b53e-ece3cba357d1">
	<g id="_x30_c2fe277-14f5-4454-a88b-7e15260f9311">
		<g>
			<path class="st0" d="M39.2,7.5H5.9c-1,0-1.7,0.9-1.7,1.9v23.2c0,1.1,0.8,1.9,1.7,1.9h11.5l-0.6,1.8h-2.6c-0.3,0-0.7,0.3-0.7,0.7
				l0,0c0,0.4,0.2,0.7,0.7,0.7l0,0h16.4c0.3,0,0.7-0.3,0.7-0.7l0,0c0-0.4-0.2-0.7-0.7-0.7l0,0h-2.6l-0.7-1.6H39c1,0,1.7-0.9,1.7-1.9
				V9.5C40.9,8.4,40.1,7.5,39.2,7.5z M27,36.2h-8.8l0.7-1.6h7.7L27,36.2z M39.8,32.6c0,0.3-0.2,0.6-0.6,0.6H5.9
				c-0.2,0-0.6-0.3-0.6-0.6V9.3c0-0.3,0.2-0.6,0.6-0.6l0,0h33.4c0.3-0.1,0.6,0.2,0.6,0.6l0,0V32.6z"/>
			<path class="st0" d="M13.2,15L10.4,17c-0.2,0.1-0.6,0-0.7-0.2l0,0c-0.2-0.3-0.1-0.6,0.2-0.8l2.8-1.9c0.2-0.2,0.6-0.1,0.7,0.2l0,0
				C13.5,14.5,13.4,14.8,13.2,15z"/>
			<path class="st0" d="M12.7,18.1L9.9,20c-0.2,0.2-0.6,0.1-0.7-0.2l0,0c-0.2-0.3-0.1-0.6,0.2-0.7l2.8-1.9c0.2-0.2,0.6-0.1,0.7,0.2
				l0,0C13,17.6,12.9,17.9,12.7,18.1z"/>
			<rect x="13.4" y="36.2" class="st0" width="18.5" height="1.4"/>
			<path class="st0" d="M37.2,31.7H7.9c-0.7,0-1.2-0.6-1.2-1.4l0,0V12.1c0-0.8,0.6-1.4,1.2-1.4l0,0h29.2c0.7,0,1.2,0.6,1.2,1.4v18.4
				C38.4,31.1,37.9,31.7,37.2,31.7z M8,30.3h29.1V12.1H8V30.3z"/>
		</g>
	</g>
</g>
</svg>
