<?xml version="1.0" encoding="utf-8"?>
<!-- Generator: Adobe Illustrator 22.1.0, SVG Export Plug-In . SVG Version: 6.00 Build 0)  -->
<svg version="1.1" id="圖層_1" xmlns="http://www.w3.org/2000/svg" xmlns:xlink="http://www.w3.org/1999/xlink" x="0px" y="0px"
	 viewBox="0 0 45 45" style="enable-background:new 0 0 45 45;" xml:space="preserve">
<style type="text/css">
	.st0{fill:#333333;}
</style>
<title>電腦資訊1</title>
<g id="_x31_10d4eac-7191-49ea-b049-01157388138f">
	<g id="_x31_78ae1ff-526a-420c-ad3c-c8dcf1539578">
		<g>
			<g>
				<path class="st0" d="M30,15.7c-0.3-0.3-0.7-0.3-0.9,0l0,0l-3.4,3.6c-0.3,0.3-0.3,0.7,0,1l0,0c0.3,0.3,0.7,0.3,0.9,0l0,0l3.4-3.6
					C30.4,16.5,30.4,16.1,30,15.7C30.1,15.7,30.1,15.7,30,15.7z"/>
				<path class="st0" d="M32.1,17.8c-0.3-0.3-0.7-0.3-0.9,0l0,0l-1.3,1.4c-0.3,0.3-0.3,0.7,0,1l0,0c0.3,0.3,0.7,0.3,0.9,0l0,0
					l1.3-1.4C32.3,18.5,32.3,18.1,32.1,17.8z"/>
			</g>
			<path class="st0" d="M40.6,32.5h-0.8V11.2c0-1.5-1.2-2.8-2.6-2.8h-29c-1.4,0-2.6,1.2-2.6,2.8v21.3h-1c-0.5,0-0.9,0.5-0.9,1.1v2
				c0,0.6,0.5,1,0.9,1l0,0h35.9c0.6,0,0.9-0.5,0.9-1v-2C41.5,32.9,41,32.5,40.6,32.5z M6.8,11.1c0-0.7,0.7-1.4,1.3-1.4h29
				c0.7,0,1.3,0.7,1.3,1.4v21.3H25.9L25.7,33c0,0.1-0.2,0.2-0.3,0.2h-5c-0.2,0-0.3-0.1-0.3-0.2L20,32.5H6.8V11.1z M40.2,35.2H4.8
				v-1.3h14.3c0.3,0.4,0.8,0.7,1.3,0.7h5c0.6,0,0.9-0.3,1.3-0.7h13.7L40.2,35.2L40.2,35.2z"/>
			<path class="st0" d="M35.5,11.9H9.5v18.4h26.2L35.5,11.9L35.5,11.9z M34.5,29.3h-24V13.1h24L34.5,29.3L34.5,29.3z"/>
		</g>
	</g>
</g>
</svg>
