<?xml version="1.0" encoding="utf-8"?>
<!-- Generator: Adobe Illustrator 22.1.0, SVG Export Plug-In . SVG Version: 6.00 Build 0)  -->
<svg version="1.1" id="圖層_1" xmlns="http://www.w3.org/2000/svg" xmlns:xlink="http://www.w3.org/1999/xlink" x="0px" y="0px"
	 viewBox="0 0 45 45" style="enable-background:new 0 0 45 45;" xml:space="preserve">
<style type="text/css">
	.st0{fill:#333333;}
</style>
<title>廚房家電1</title>
<g id="c16e7186-065e-49c5-b5a4-9bd92d298f27">
	<g id="_x33_e16142c-91cd-48b8-ad9e-feef4cb03a72">
		<g>
			<path class="st0" d="M34.5,37.3L34.5,37.3l-1.4-8.6c-0.1-0.3-0.3-0.6-0.7-0.6h-0.7V26c0-0.4-0.3-0.7-0.7-0.7l0,0h-0.6l1.3-17h0.8
				c0.4,0,0.7-0.3,0.7-0.7l0,0c0-1.9-1.6-3.5-3.5-3.5l0,0h-2.2V2c0-0.4-0.3-0.7-0.7-0.7l0,0h-8.5c-0.4,0-0.7,0.3-0.7,0.7l0,0v2.1
				h-2.1c-2,0-3.6,1.5-3.6,3.5l0,0c0,0.4,0.3,0.7,0.7,0.7l0,0h0.8l1.3,17H14c-0.4,0-0.7,0.3-0.7,0.7l0,0v2.1h-0.7
				c-0.3,0-0.6,0.2-0.7,0.6l-1.4,8.5v0.1l0,0v2.8c0,0.4,0.3,0.7,0.7,0.7l0,0h0.7v2.1c0,0.4,0.3,0.7,0.7,0.7h2.9
				c0.4,0,0.7-0.3,0.7-0.7l0,0v-2.1h12.7v2.1c0,0.4,0.3,0.7,0.7,0.7h2.8c0.4,0,0.7-0.3,0.7-0.7l0,0v-2.1h0.7c0.4,0,0.7-0.3,0.7-0.7
				l0,0V37.3L34.5,37.3z M19,2.7h7.1v1.4H19V2.7z M15.5,5.5h14.1c0.9,0,1.7,0.6,2,1.4H13.5C13.8,6.1,14.6,5.5,15.5,5.5z M21.9,8.4
				h1.4v11.5h-1.5L21.9,8.4z M18,25.3h-1.9l-1.3-17h5.6v12.3c0,0.4,0.3,0.7,0.7,0.7l0,0h2.8c0.4,0,0.7-0.3,0.7-0.7l0,0V8.4h5.6
				l-1.3,17H27 M24.6,25.4h-4.2 M14.7,26.7h15.6v1.4H14.7V26.7z M12,36.6l1.2-7.1h18.6l1.2,7.1l0.2,1v2.1H12V37V36.6z M14.7,42.3
				h-1.4v-1.4h1.4V42.3z M31.7,42.3h-1.4v-1.4h1.4V42.3z"/>
			<circle class="st0" cx="19" cy="35.2" r="1.1"/>
			<circle class="st0" cx="22.5" cy="35.2" r="1.1"/>
			<circle class="st0" cx="26.1" cy="35.2" r="1.1"/>
		</g>
	</g>
</g>
</svg>
