<svg width="91" height="91" viewBox="0 0 91 91" fill="none" xmlns="http://www.w3.org/2000/svg">
<path fill-rule="evenodd" clip-rule="evenodd" d="M87.6544 41.2152C87.6544 41.2152 88.6946 5.39238 53.3011 6.47085C53.273 6.47085 53.2449 6.47085 53.2167 6.4417C53.2167 6.4417 53.2449 6.4417 53.2449 6.47085C53.1043 6.47085 52.9637 6.47085 52.8232 6.47085C52.8232 6.47085 53.0762 6.5 53.4698 6.58744C55.1003 7.49103 64.0681 13.1457 57.0963 25.3587C57.0963 25.3587 65.8392 16.7309 72.9235 21.657C74.5541 23.3184 76.1565 25.3879 77.6464 27.9821C77.787 28.3027 77.9275 28.6233 78.0681 28.9731C78.0681 28.9731 78.0119 28.7691 77.9557 28.5067C79.3613 31.1009 80.5982 34.2489 81.6103 37.8924L54.791 55.9641C54.6505 54.5359 53.9196 53.0202 51.3894 50.4843C51.3894 50.4843 54.3694 53.4282 52.5139 55.935C50.6585 58.4417 47.6505 61.1233 47.1164 62.7556C46.5822 64.3879 44.1646 66.4865 43.7148 66.8363C43.265 67.1861 43.0963 68.0897 42.5903 68.8767C42.0561 69.6637 40.5662 71.4417 39.4698 72.9574C38.3734 74.4731 37.4457 78.4955 37.4738 79.778C37.5019 81.0605 36.7148 87.1816 38.0361 91C38.0361 91 38.7951 82.5471 41.1565 79.4282C41.1565 79.4282 38.1766 80.6233 39.7509 77.3879C41.3252 74.1525 42.6465 72.4619 43.1525 71.9372C43.6585 71.4125 44.9798 73.1906 44.277 74.3274C43.5742 75.435 43.1525 77.3879 43.1525 77.3879C43.1525 77.3879 44.0521 75.2601 45.9919 73.9776C47.9316 72.6951 46.3573 70.5964 48.5501 69.2265C50.7429 67.8565 51.6143 68.6143 50.8272 69.8969C50.0119 71.1794 54.9316 66.6906 54.5099 61.7354C54.4537 60.9484 54.4537 60.2489 54.5099 59.6368L82.4255 40.6031C82.9878 42.4978 83.9155 46.6951 81.5821 47.7152C81.5821 47.7152 82.8191 55.6143 90.9998 60.2197C91.0279 60.2489 88.1042 51.7377 87.6544 41.2152ZM51.6987 34.6278C51.8955 34.8901 52.0641 35.1233 52.2609 35.3856C52.0079 34.8901 51.6987 34.6278 51.6987 34.6278ZM37.783 66.9821C38.1204 65.6413 40.1164 63.6592 38.0361 62.4641C35.759 61.1525 37.5019 59.7534 38.7389 58.7332C39.9758 57.713 37.4457 61.5897 41.4658 59.1704C45.4858 56.7511 43.0963 58.4126 45.1485 57.4798C47.2007 56.5179 46.02 53.8655 48.5501 52.0291C51.0802 50.1928 42.7871 54.9439 45.5421 50.6592C48.2409 46.4619 51.3332 41.3318 51.1083 45.1211C50.8834 48.9103 53.526 46.5202 52.2328 49.639C52.2328 49.639 58.1364 43.4596 52.2328 35.4148C52.5139 36.0269 52.6545 36.9888 51.9517 38.3879C50.6866 41.0112 48.8874 39.7578 47.9878 42.4686C47.0882 45.1794 46.3011 47.1614 44.024 48.2399C41.7469 49.3475 41.9437 50.3386 40.3413 52.3206C39.4979 53.37 38.0642 55.0022 36.9678 56.8386L9.38954 37.8924C11.6666 29.6144 15.2369 24.3094 18.8634 20.9283C25.6666 17.722 33.4256 25.3587 33.4256 25.3587C27.0441 14.1951 33.9598 8.51121 36.4618 6.90807C37.4738 6.52915 38.2047 6.4417 38.2047 6.4417C37.8955 6.4417 37.5863 6.4417 37.277 6.4417H37.3051C37.277 6.4417 37.2489 6.4417 37.2208 6.4417C2.33333 5.713 3.37349 41.1861 3.37349 41.1861C2.92369 51.7085 0 60.2197 0 60.2197C8.1807 55.6143 9.41765 47.7152 9.41765 47.7152C7.08432 46.6659 8.04014 42.4395 8.60239 40.574L35.7871 59.491C35.5622 60.278 35.4216 61.065 35.5341 61.852C35.9557 65.4664 34.9718 67.8565 38.3734 70.713C38.3453 70.713 37.4457 68.3229 37.783 66.9821ZM45.0642 10.8722C45.0642 10.8722 52.3171 16.5269 47.0039 25.3587L47.2569 25.3004C46.3011 26.1457 45.1766 26.9619 43.8272 27.7489C34.3252 33.287 38.6264 39.4081 38.6264 39.4081L38.3453 40.778L37.2208 42.148C37.2208 42.148 37.3332 46.3161 37.5019 49.5224C37.5019 49.5224 38.9638 46.4619 39.4979 45.9081C40.0039 45.3543 39.779 46.9282 39.779 46.9282L42.6184 42.4978C42.6184 42.4978 40.7911 43.3722 41.2128 42.148C41.6344 40.9238 43.8834 36.5224 48.2971 35.0067C48.2971 35.0067 47.9597 36.639 46.02 38.0673C46.02 38.0673 47.8192 39.7287 51.1364 32.9664C53.8352 27.4282 50.0401 32.2377 50.6585 28.2152C51.1083 25.3879 55.2971 23.1726 53.5822 17.5471C53.3011 15.3318 52.4577 12.5919 50.518 9.26906L45.0923 0L34.2128 22.1525C34.1847 22.1525 42.3654 13.5247 45.0642 10.8722Z" fill="black"/>
</svg>
