<?xml version="1.0" encoding="UTF-8"?><svg id="_圖層_1" xmlns="http://www.w3.org/2000/svg" viewBox="0 0 455.42 449.29"><path d="M268.43,444.99c7.7-4.73,17.64-6.6,21.73-16.36-2.46-1.26-4.74-2.43-7.01-3.6,6.84-1.14,11.39-4.86,14.53-10.52,3.81-6.88,3.01-14.09-2.49-19.72-7.01-7.17-15.14-11.91-25.39-13.64-4.9-.83-9.88-4.12-13.76-7.5-13.44-11.7-19.53-26.39-18.64-44.64,1.05-21.59,11.22-38.23,25.61-52.94,9.78-10,9.38-20.9,4.17-32.85,5.93-3.88,9.79-.14,13.82,4.04,1.64-2.06,3.33-3.69,4.44-5.65,7.89-13.98,12.39-28.97,12.59-45.07.07-6.1-1.69-11.78-5.77-16.59-1.73-2.04-.04-5.68,2.72-6.13,7.93-1.29,13.08,1.72,15.96,9.34.28.73.49,1.48,1.07,3.26,1.69-3.05,2.95-5.27,4.16-7.51,16.11-29.87,30.9-60.29,40.16-93.14,4.17-14.79,5.1-29.73,3.71-44.88-.84-9.13-4.76-13.3-14.52-15.64,7.89-3.43,15.27-3.5,22.47-1.51,20.85,5.78,32.22,20.84,37.71,40.75,5.08,18.43,1.39,36.3-5.42,53.63-7.11,18.11-17.31,34.36-30.13,49.02-13.79,15.77-25.33,32.92-30.75,53.54-.24.92-.3,1.89-.64,4.11,11.6-20.11,26.97-35.33,43.49-49.2,19.07-16.01,29.73-36.57,36.47-59.89,3.82-13.19,5.28-26.32,1.99-39.83-.55-2.25.21-4.81.36-7.23.43-.07.86-.14,1.29-.22,5.97,14.29,13.1,28.22,17.64,42.95,7.77,25.2,6.01,49.68-10.95,71.41-8.66,11.1-19.69,19.22-32.5,24.97-22.33,10.02-35.56,27.69-42.34,50.66-.73,2.46-.1,5.32-.1,7.99.51.04,1.03.08,1.54.11.58-2.92.94-5.9,1.79-8.74,3.04-10.2,9.77-17.89,18.25-23.65,8.06-5.47,16.66-10.34,25.53-14.34,16.53-7.45,30.67-18.12,42.83-31.2,4-4.3,5.24-11.2,7.62-16.96.6-1.45.73-3.1,1.29-5.59,3.31,13.19,3.3,25.25-.2,37.29-2.45,8.42-7.52,15.17-13.63,21.13-9.68,9.45-20.34,17.56-32.82,23.15-13.42,6.02-23.25,15.59-27.92,30.1,17.74-18.28,41.25-26.77,63.49-37.41-.1.43-.13,1.37-.54,2.1-9.11,16.18-18.45,32.01-37.2,39.24-6.4,2.47-12.2,6.5-18.11,10.54,16.28-4.36,32.01-2.66,48.03,2.42-18.65,12.03-38.48,18.26-60.49,18.17,11.55.85,20.96,5.8,30.79,12.82-9.79,1.3-18.49,3.55-27.09,3.19-5.54-.24-10.76-.22-16.05,1.05-1.49.36-2.88,1.16-4.34,2.54,9.94,3.35,21.07,2.64,29.41,11.42-4.75.12-9.5.49-14.23.29-4.79-.21-9.55-1-14.13-1.51,1.28,3,2.93,5.82,3.65,8.87.67,2.85-.77,4.6-4.02,3.22-2.99-1.27-5.93-2.65-9.52-4.26,3.12,6.11,4.67,11.83,2.55,19.41-2.39-3.12-4.11-5.38-6.01-7.87-1.38,4.46-3.82,4.52-6.89,1.48-2.48-2.46-5.42-4.57-7.43-7.36-8.47-11.76-34.33-15.19-48.81-6.59-11.32,6.73-11.14,20.69-.21,28.06,8.37,5.65,16.64,11.65,24.05,18.48,8.38,7.72,9.9,23.57,4.6,34.95-5.48,11.77-16.79,19.12-28.94,18.26-4.2-.3-8.33-1.78-12.48-2.71-.01-.51-.03-1.01-.04-1.52Z" style="fill:#000; stroke-width:0px;"/><path d="M51.49,325.22c9.47-6.5,18.77-11.78,30.42-12.38-22.07.03-41.95-6.17-61.49-18.89,9.1-1.49,17.03-3.54,25.02-3.86,7.84-.32,15.75,1.12,24,1.82-2.2-1.45-4.33-3.08-6.66-4.34-4.96-2.69-9.92-5.42-15.06-7.73-17.3-7.78-25.87-23.14-34.08-38.85-.11-.21.11-.6.08-.46,10.55,4.82,21.59,8.92,31.66,14.72,11.15,6.43,21.41,14.4,31.76,21.5-.54-1.33-1.25-3.57-2.32-5.63-5.84-11.26-15.11-18.73-26.47-23.94-14.25-6.55-26.48-15.89-36.64-27.8C1.62,207.54-1.27,193.55.48,178.37c.43-3.72.91-7.43,2.13-11.24.34,1.38.78,2.73,1.01,4.13,1.37,8.49,4.91,15.7,11.45,21.53,12.84,11.44,26.41,21.48,42.41,28.47,9.6,4.19,18.58,10.32,26.87,16.82,10.14,7.94,13.58,15.79,16.27,28.32.31-2.25,1.35-4.71.81-6.73-6.2-22.97-19.01-40.88-40.98-51.11-21.39-9.96-38.08-24.38-45.66-47.35-6.31-19.11-4.11-38.22,2.68-56.71,3.34-9.1,8.38-17.56,12.54-26.37,1.33-2.8,2.31-5.77,3.96-9.95.41,3.09,1.33,5.31.86,7.18-5.81,22.78,1.78,43.36,10.47,63.66,5.84,13.63,15.05,24.73,25.94,34.93,13.43,12.57,25.73,26.36,38.32,39.82,2.54,2.72,4.18,6.29,7.08,9.19-.98-3.34-1.79-6.75-2.97-10.02-6.28-17.49-16.76-32.36-28.79-46.3-17.42-20.19-30.62-42.72-35.74-69.17-4.89-25.22.42-47.72,20.76-64.93,10.65-9.01,23.09-12.06,36.84-8.6.74.19,1.44.57,1.33.53-3.41,2.76-8.06,4.97-10.13,8.63-2.22,3.91-2.46,9.17-2.78,13.89-2.47,36.59,13.38,68.19,27.82,100.08,5.94,13.12,13.02,25.72,20.06,39.48,1.03-2.47,1.59-3.92,2.24-5.34,2.8-6.09,9.5-9.33,15.74-7.17,1.45.5,2.32,2.69,3.55,4.21-7.4,7.97-8.8,17.62-6.55,27.47,2.42,10.62,5.88,21.04,9.48,31.34,1.3,3.72,4.33,6.83,6.9,10.71,3.91-5.11,7.78-7.79,13.71-4.9-.72,2.22-1.44,4.35-2.09,6.5-3.22,10.51-.75,19.19,6.94,27.32,11.35,12,21.11,25.03,23.91,42.22,3.28,20.13.14,38.11-15.07,52.7-5.43,5.21-11.51,9.13-19.42,10.31-9.75,1.45-17.49,7.16-23.68,14.62-8.24,9.92.2,27.23,14.77,27.41-3.42,2.03-5.63,3.34-8.18,4.85,4.02,9.57,14.08,11.52,22.08,16.43-18.21,10.22-40.37-.62-44.02-21.02-2.38-13.28.49-24.82,11.85-33.2,6.28-4.63,12.53-9.34,19.07-13.58,11.18-7.24,10.86-21.73-.87-28.3-13.96-7.81-39.35-5.17-48.36,7.03-2.14,2.9-5.12,5.21-7.84,7.66-3.07,2.77-5.33,2.42-6.13-2.08-1.94,2.48-3.79,4.86-5.64,7.23-.71-.26-1.43-.52-2.14-.78.92-5.79,1.84-11.57,2.72-17.06-3.09,1.3-6.94,2.92-10.99,4.63-2.7-5.58-.2-9.13,3.35-12.75-9.96.52-19.49,1.02-29.02,1.52-.11-.73-.23-1.45-.34-2.18,8.32-7.01,19.1-7.01,29.24-8.83.46-.68.92-1.35,1.37-2.03-1.09-.32-2.17-.66-3.27-.95-5.72-1.5-11.33-3.82-17.45-1.56-1.48.55-3.33.54-4.93.28-7.29-1.2-14.54-2.59-22.49-4.03Z" style="fill:#000; stroke-width:0px;"/><path d="M185.94,57.39c10.38,5.69,20.76,11.38,32.03,17.57,1.12-9.36,2.31-17.97,3.16-26.62,1.36-13.73,2.44-27.48,3.8-41.21.23-2.37,1.25-4.66,1.91-6.99.56-.04,1.12-.09,1.68-.13.77,2.99,1.94,5.95,2.26,8.99,1.89,18.51,3.57,37.05,5.37,55.58.3,3.13.82,6.24,1.36,10.31,10.89-5.94,21.37-11.67,31.86-17.39l.68.65c-6.79,10.44-13.59,20.89-21.27,32.7,9.2,2.17,17.49,4.11,25.78,6.07,5.85,1.39,11.7,2.81,17.54,4.21.07.8.14,1.61.22,2.41-4.3,1.61-8.49,3.73-12.93,4.73-7.88,1.76-15.91,2.83-24.89,4.36,5.71,8.82,10.69,16.52,15.67,24.21-.2.19-.4.38-.6.56-9.97-5.46-19.94-10.92-30.64-16.78-1.31,9.91-2.76,19.08-3.7,28.3-1.61,15.71-2.85,31.45-4.4,47.16-.32,3.19-1.34,6.31-2.03,9.46-.57.04-1.14.08-1.71.12-.74-2.31-1.89-4.58-2.14-6.95-2.33-21.98-4.48-43.97-6.75-65.96-.39-3.77-1.14-7.49-1.85-12.05-10.52,5.76-20.45,11.2-30.38,16.64-.24-.18-.47-.36-.71-.55,4.97-7.66,9.94-15.32,14.87-22.92-11.66-6.63-25.97-2.4-37.94-11.91,6.09-1.85,11.08-3.66,16.22-4.85,8.96-2.08,18.02-3.77,28.42-5.91-7.83-12.07-14.68-22.63-21.54-33.2.22-.2.43-.4.65-.6Z" style="fill:#000; stroke-width:0px;"/></svg>