<svg xmlns="http://www.w3.org/2000/svg" width="48" height="56" fill="none"><path fill="#000" d="M28.66 56H0s.503-11.023 1.257-16.595c1.182-6.774 13.33-11.183 13.33-11.183l3.025-.864c.59.205 4.222 1.314 6.763 1.304 2.29-.01 5.48-1.12 6.012-1.304l3.026.864s12.576 4.409 13.33 11.183C47.497 44.977 48 56 48 56H28.66Zm-3.718-32.043H22.87s-7.788-1.71-7.788-5.583c0-7.11-2.011-10.33 0-13.37C17.211.887 21.371.11 22.869.017V.001h.392c.069-.002.11 0 .11 0h.204c.07-.002.11 0 .11 0h.44s.042-.002.111 0h.203s.042-.002.112 0h.391v.015c2.294.093 5.658.87 8.042 4.989 1.758 3.038 0 6.26 0 13.369 0 3.872-8.042 5.583-8.042 5.583Z"/></svg>