<svg xmlns="http://www.w3.org/2000/svg" width="67" height="43" fill="none"><path fill="#000" d="M0 38.373C0 40.861 9.777 43 21.836 43c2.951 0 5.774-.128 8.354-.358a25.002 25.002 0 0 1-4.86-6.211c-1.138.037-2.305.057-3.494.057C9.776 36.488 0 34.47 0 31.982v6.391ZM23.423 31.968c-.524.008-1.053.012-1.587.012C9.776 31.98 0 29.963 0 27.476v-6.392c0 2.488 9.777 4.505 21.836 4.505l.51-.001c.07 2.212.443 4.35 1.077 6.38ZM22.578 21.377c-.247.002-.494.003-.742.003C9.776 21.38 0 19.364 0 16.876v-6.391c0 2.488 9.777 4.504 21.836 4.504.882 0 1.753-.01 2.609-.032a23.925 23.925 0 0 0-1.867 6.42ZM27.096 10.435c-1.687.1-3.45.154-5.26.154C9.776 10.589 0 8.219 0 5.294 0 2.37 9.777 0 21.836 0c6.579 0 12.518.705 16.558 1.821-4.565 1.789-8.477 4.801-11.297 8.614ZM43.741 20.545l-2.907-2.363v4.828s3.79.773 5.88 2.164v-7.018l-2.973 2.389Z"/><path fill="#000" fill-rule="evenodd" d="M48.103 43C58.539 43 67 34.855 67 24.808 67 14.76 58.54 6.615 48.103 6.615c-10.437 0-18.898 8.145-18.898 18.193C29.205 34.855 37.665 43 48.103 43ZM42.75 28.146v-1.9h-4.955v4.263s.226 2.212 3.766 2.568h3.37s1.878-.055 3.205-1.101c1.326 1.046 3.138 1.1 3.138 1.1h5.815v-13.61s.004-.616.991-.616h.33v-2.311h-3.237s-.955.061-1.124.667v14.227h-2.313c-1.699-.352-2.113-1.9-2.113-1.9V16.538H45.79l-2.114 1.695-1.983-1.695H38.72l-.925.72v7.19c6.84.6 8.396 2.337 8.818 2.808l.036.04v3.059s-.335 1.078-1.586 1.078h-2.51c-1.832-.426-1.719-1.797-1.719-1.797v-1.49h1.916Z" clip-rule="evenodd"/></svg>