<?xml version="1.0" encoding="UTF-8"?><svg id="_圖層_1" xmlns="http://www.w3.org/2000/svg" viewBox="0 0 16.51 24.03"><path d="M6.02,10.94c2.85,0,4.7-1.6,4.7-5.15,0-3.1-1.41-4.7-3.87-4.7-.32,0-.67.03-1.06.1l-.61,3.14c-.29,1.57-1.28,2.11-2.4,2.11-.77,0-1.44-.35-1.79-.96C1.09,1.63,4.45,0,8.32,0c5.09,0,7.49,2.34,7.49,5.66,0,2.72-1.63,4.86-6.05,5.73,4.99.74,6.75,2.98,6.75,6.08,0,3.87-3.33,6.56-8.8,6.56-4.86,0-7.42-2.11-7.71-5.7.32-1.02,1.15-1.44,1.98-1.44,1.28,0,2.08.61,2.37,2.75l.51,3.14c.38.1.74.13,1.18.13,3.33,0,5.15-1.79,5.15-5.38s-1.76-5.34-5.02-5.34h-1.25v-1.25h1.09Z" style="fill:#000; stroke-width:0px;"/></svg>