<?xml version="1.0" encoding="UTF-8"?><svg id="_圖層_1" xmlns="http://www.w3.org/2000/svg" viewBox="0 0 16.25 24.03"><path d="M5.28,12.96C2.11,11.42.48,9.18.48,6.4.48,2.5,3.81,0,8.26,0c4.9,0,7.2,2.34,7.2,5.15,0,2.05-1.34,3.87-4.8,5.31,3.81,1.82,5.6,4.1,5.6,7.07,0,3.94-3.01,6.5-8.64,6.5-5.15,0-7.62-2.21-7.62-5.25,0-2.72,1.86-4.58,5.28-5.82ZM4.19,17.95c0,3.36,1.44,4.96,3.87,4.96,2.3,0,3.58-1.41,3.58-3.74s-1.31-3.97-5.63-5.86c-1.25,1.38-1.82,2.69-1.82,4.64ZM11.42,5.28c0-2.46-1.22-4.16-3.26-4.16-1.79,0-3.42,1.34-3.42,3.52,0,1.89.96,3.58,5.22,5.5,1.02-1.5,1.47-3.07,1.47-4.86Z" style="fill:#000; stroke-width:0px;"/></svg>