<?xml version="1.0" encoding="UTF-8"?><svg id="_圖層_1" xmlns="http://www.w3.org/2000/svg" viewBox="0 0 29.12 25.37"><path d="M0,7.42C0,2.24,2.5,0,5.38,0s5.41,2.24,5.41,7.42-2.56,7.36-5.41,7.36S0,12.54,0,7.42ZM7.52,7.42c0-5.25-.96-6.59-2.14-6.59s-2.08,1.31-2.08,6.59.93,6.53,2.08,6.53,2.14-1.31,2.14-6.53ZM5.73,24.64L22.27.29l1.09.74L6.82,25.37l-1.09-.74ZM18.33,17.21c0-5.18,2.53-7.42,5.41-7.42s5.38,2.24,5.38,7.42-2.56,7.36-5.38,7.36-5.41-2.24-5.41-7.36ZM25.85,17.21c0-5.25-.96-6.59-2.11-6.59s-2.11,1.31-2.11,6.59.93,6.53,2.11,6.53,2.11-1.31,2.11-6.53Z" style="fill:#000; stroke-width:0px;"/></svg>