<?xml version="1.0" encoding="UTF-8"?><svg id="_圖層_1" xmlns="http://www.w3.org/2000/svg" viewBox="0 0 59 76"><path d="M49,33s-2.3-14.06-10-13.9c0,0-3.13-4.37-19.9-4l-1-2s6.26-.17,12-1c5.55.95,11.14,3.39,13.9,5,0,0-1.19-2.23-4-5-1.91-.37-4.73-1-7-1-2.14,0-2.99-1-4.9-1-2.05,0-2.82,1-5,1h-5.1S13.46,6.03,3.1,5.1c0,0,2.92-5.1,17-5.1,15.26,0,17.64,2.53,23.9,7.1,5.26,5.49,7.63,17.43,8.1,21,2.44,5.95,3.7,10.53,6.9,14,0,0-6.43.86-10-9.1ZM13.1,15.1l20,18.9s-11.65-12.64-15-16.9c0,0,9.52-.44,16.9,1,7.38,3.24,11.42,14.18,10.1,20.9l-3.1,2.1h3.1s-1.99,5.63-1.1,6c0,0,8.29,7.34,15,8.9,0,0-.31,1.79-5,0h-9s-2.09-1.87-2-5-3.06-9.34-4-2.9v5s-3.37,7.49-8.9,11.9c0,0-5.01-6.16-7-9,0,0-.23,2.67,6.9,10,0,0-9.39,9.8-12,10v-24s7.14-.1,10-3.9c1.65-.77,3.71-3.16,4-6,.26-.83-3.39-.34-5.9-1-2,1.33-3.65,1.7-7,2.9-1.67,1.25-5.51,2.66-8,4.1,0,0-6.01-9.35-10-7l-1.1,2.9v-11s1.78.22,8.1,4.1c0,0-5.78-4.19-8-7,0,0,5.66-8.04,13-15ZM3.1,42.1s.04,10.82,4,10.9v22s-6-8.36-6-15v-16s1.53-1.13,2-1.9Z" style="fill:#000; fill-rule:evenodd; stroke-width:0px;"/></svg>