<svg width="89" height="89" viewBox="0 0 89 89" fill="none" xmlns="http://www.w3.org/2000/svg">
<path fill-rule="evenodd" clip-rule="evenodd" d="M6.56681 6.11289L4.20639 8.47331L4.38796 10.5311L5.90105 10.168L6.38524 9.68378L11.9534 15.252L15.9782 15.5243L16.069 15.6151L16.0388 15.5243H16.1598L16.0085 15.373L15.2217 11.9534L9.65352 6.38524L10.1377 5.90105L10.5009 4.38796L8.44305 4.20639L6.6576 5.99184L6.56681 6.11289ZM5.6287 5.14451L7.051 3.7222L4.81163 1.48283L3.44985 2.84461L1.54335 4.7511L3.78273 6.99048L5.6287 5.14451ZM80.4359 30.1408C80.4359 30.1408 80.7083 36.0116 78.5294 41.6705C78.5294 41.6705 74.0507 4.3577 34.68 9.3509C34.68 9.3509 55.8028 10.4101 62.3696 22.424C68.9667 34.438 60.8262 45.5138 60.8262 45.5138C60.8262 45.5138 68.7851 43.0323 69.2996 34.7406C69.2996 34.7406 74.8375 62.8235 43.1533 65.5168C43.1533 65.5168 48.2979 67.7259 60.1 65.1234C60.1 65.1234 52.2622 73.627 39.5219 75.3822C37.9786 73.5362 36.9497 70.9034 36.8286 67.1812C37.797 58.0422 31.4723 53.2305 31.4723 53.2305C37.8273 67.8773 28.8395 65.1537 23.6345 62.642C22.9687 58.9198 20.8201 54.4713 14.4651 52.8371C3.26828 49.9623 8.5641 34.68 8.98776 33.5301C9.50221 33.7117 9.89561 33.8932 10.0772 33.984C10.0772 33.984 7.17205 30.6552 8.59436 28.7487C10.0167 26.812 15.6756 21.6675 15.6756 21.6675L15.373 29.8382L21.0925 30.8671L18.2781 28.0527L19.5794 26.7514L54.5015 59.2829C56.8014 57.9211 58.5869 56.3475 59.9487 54.8949L26.933 19.3373L28.0527 18.2176L30.8671 21.032L29.8382 15.3125L21.6675 15.6151C21.6675 15.6151 26.812 9.95614 28.7487 8.53383C30.6855 7.11153 33.984 10.0167 33.984 10.0167C33.3485 8.89698 30.5342 0 30.5342 0C30.7157 2.99592 29.4145 4.50901 29.4145 4.50901C25.2081 9.7443 16.7045 11.5903 16.7045 11.5903L17.7637 17.2795L22.9082 17.7334L23.0595 23.0292L17.7637 22.8779L17.3098 17.7334L11.5903 16.7045C11.5903 16.7045 9.7443 25.2081 4.50901 29.4145C4.50901 29.4145 3.02618 30.746 0 30.5342C0 30.5342 6.20367 32.5012 8.89697 33.5301C8.17069 34.4985 2.45121 42.2758 5.20503 51.2333C5.47739 52.1411 5.65896 52.8674 5.78001 53.5634C5.81027 53.8358 5.84053 54.1384 5.93132 54.4107C6.53655 59.7973 1.78545 56.9225 1.78545 56.9225C1.78545 56.9225 4.20639 60.7355 8.35226 58.4961C12.6494 63.3077 20.7596 67.0602 20.7596 67.0602V67.0299C27.3567 69.9048 28.1132 73.5362 28.083 75.0796C23.6647 74.202 18.9439 72.4165 13.8902 69.3601C13.8902 69.3601 29.3237 86.5488 54.4713 80.8596L53.8963 80.9201C53.8963 80.9504 87.3356 75.4124 80.4359 30.1408ZM9.71404 57.558C9.80483 57.4672 9.89561 57.4067 10.0167 57.3461C13.2547 54.5621 17.4308 57.0133 20.3359 60.9473L20.3057 60.917L20.3662 61.0078C16.1296 62.188 12.3771 59.9789 9.71404 57.558ZM57.8001 73.627C65.8194 70.1166 71.1455 60.2815 71.1455 60.2815C67.3325 64.5787 62.5814 65.0326 62.5814 65.0326C72.2047 57.7093 75.9269 44.0612 75.9269 44.0612C79.3767 70.0864 57.8001 73.627 57.8001 73.627ZM89 88.5158L86.6396 86.1554L80.8596 77.561L75.4125 71.66C74.202 73.052 72.8402 74.2322 71.5087 75.2006L77.561 80.8596L86.1554 86.6396L88.5158 89L87.5474 87.5777L89 88.5158Z" fill="black"/>
</svg>
