<svg xmlns="http://www.w3.org/2000/svg" width="70" height="54" fill="none"><path fill="#000" d="M66.493.131 64.185 0v3.454h-3.507V0h-2.352v3.454l-3.551-.437V0H52.51v6.909h13.982V.13ZM64.23 9.182H52.555v2.274H64.23V9.182ZM52.51 47.135v2.318H70v-2.318H52.511Zm13.494-15.478c-1.997-6.559-2.086-11.281-2.086-11.281l.266-6.559H52.511v31.044h16.335c0-.043-.222-4.59-2.84-13.204Zm-5.282-5.204h-4.705v-6.908h4.705v6.908ZM17.533 0H15.27v3.017l-3.55.437V0H9.366v3.454H5.859V0L3.595.131l-.044 6.777h13.982V0ZM5.86 11.5h11.674V9.182H5.86V11.5ZM0 49.409h17.489v-2.317H0v2.317Zm17.533-35.592H5.86l.267 6.559s-.09 4.766-2.087 11.28C1.42 40.315 1.2 44.863 1.2 44.863h16.334V13.816Zm-3.506 12.636H9.32v-6.908h4.706v6.908Zm6.969-15.96h28.008V8.046H20.996v2.449Zm0 43.507h9.365l-.044-11.937c0-2.755 2.13-4.985 4.705-4.985s4.75 2.274 4.75 4.985L39.682 54h9.322V12.636H20.996V54ZM40.88 20.682h4.661v6.908h-4.66v-6.908Zm-8.211 0h4.66v6.908h-4.66v-6.908Zm-8.168 0h4.661v6.908h-4.66v-6.908Z"/></svg>