<svg width="73" height="92" viewBox="0 0 73 92" fill="none" xmlns="http://www.w3.org/2000/svg">
<path fill-rule="evenodd" clip-rule="evenodd" d="M33.2628 38.6429C25.5587 38.6429 18.9975 43.6487 16.46 50.6428C14.151 55.555 12.0706 63.9994 18.3803 72.8414C18.3803 72.8414 16.5514 68.4204 16.7572 64.1398C19.5005 70.6894 25.8558 75.2742 33.24 75.2742C40.3498 75.2742 46.4765 70.9935 49.3799 64.8415C56.9926 51.789 47.4367 40.1634 47.4367 40.1634C49.4256 43.0171 49.6771 46.4323 49.4027 49.099C46.5451 42.947 40.3955 38.6429 33.2628 38.6429ZM28.5535 71.7186C22.4953 69.6836 18.0831 63.8591 18.0831 56.9819C18.0831 51.0171 21.3979 45.8241 26.2673 43.2277C25.0329 45.5902 24.1184 49.0756 25.4443 53.5434C25.0328 54.5726 24.8042 55.7188 24.8042 56.8884C24.8042 61.8942 28.7592 65.9643 33.6515 65.9643C36.7834 65.9643 39.5268 64.2801 41.1042 61.7538C40.4869 64.7479 38.0179 71.3912 28.5535 71.7186ZM40.5555 70.5725C41.7214 68.3269 42.5216 65.1222 41.4699 61.0521C42.1101 59.8123 42.4987 58.4088 42.4987 56.9118C42.4987 51.906 38.5437 47.8358 33.6515 47.8358C29.948 47.8358 26.7703 50.175 25.4672 53.4732C25.5587 52.3738 26.7017 42.7131 37.9036 42.2218C41.5157 43.4148 44.5562 45.9411 46.4308 49.2627C47.711 51.5317 48.4426 54.1749 48.4426 56.9585C48.4197 62.8298 45.242 67.9292 40.5555 70.5725ZM68.3545 40.1634C68.3545 40.1634 69.7262 28.3506 59.0272 21.5437C59.0272 21.5437 55.0723 17.8946 55.3009 13.6607C55.3009 13.6607 51.3231 17.8244 56.6497 25.4267C60.8333 31.4383 64.994 28.7951 68.3545 40.1634ZM72.2181 42.6429C72.058 46.9469 70.755 50.2451 69.5662 52.444C67.3487 39.6721 59.4845 31.602 49.7685 26.4559C38.2694 20.3507 34.2687 6.83035 36.2576 0C36.2576 0 26.9532 23.1577 47.0709 33.9646C68.9718 45.7306 61.3591 67.9292 61.3591 67.9292C61.3591 67.9292 62.5021 56.7012 57.4955 50.1516C57.4955 50.1516 63.1651 71.0871 46.568 82.3384C46.4079 82.4554 46.2936 82.5256 46.2936 82.5256C46.3851 82.4554 46.4765 82.3852 46.568 82.3384C47.551 81.6133 51.0487 78.6192 51.3231 72.2566C51.3231 72.2566 45.0363 85.6834 30.8624 83.7185C14.7911 81.4729 5.07515 67.3912 9.25873 49.7539C9.25873 49.7539 5.76098 56.8182 5.78385 65.5433C5.78385 65.5433 -2.21752 39.9762 25.0786 24.0933C25.0786 24.0933 0 31.4149 0 56.0697C0 80.0694 18.8375 92.1161 35.8918 91.9992C47.871 91.9056 57.8613 86.5723 63.9195 78.5958V78.6192C76.7674 65.0988 72.2181 42.6429 72.2181 42.6429Z" fill="black"/>
</svg>
