<svg width="38" height="59" viewBox="0 0 38 59" fill="none" xmlns="http://www.w3.org/2000/svg">
<path d="M31.8463 0.129673L28.1631 0V3.54433H24.4799V0H20.8416V3.54433L17.2033 3.58755L17.1584 0H13.4752V3.54433L9.8818 3.58755L9.79196 0H6.10875V7.04543H31.8463V0.129673ZM29.3759 13.0103L30.5887 9.46594H7.32151L8.53428 13.0103H29.3759ZM0 55.4557V59H38V55.4557H0ZM14.6879 41.2784H23.2671V53.0784H36.7423C36.7423 53.0784 36.4279 47.6755 32.7447 37.0425C29.9598 29.0029 29.8251 23.1245 29.8251 23.1245L29.4208 15.3443H8.5792L7.99527 23.1245C7.99527 23.1245 7.86052 28.9597 5.07565 37.0425C1.39243 47.6755 1.07801 53.2945 1.07801 53.2945L14.6879 53.0784V41.2784ZM15.9007 21.2227H22.0095V29.4784H15.9007V21.2227Z" fill="black"/>
</svg>
