<svg xmlns="http://www.w3.org/2000/svg" width="68" height="59" fill="none"><path fill="#000" d="m58.444 11.265-.145-4.582h-1.92v1.91h-1.97l.049-1.91h-1.921l.096 1.91h-2.017v-1.91h-1.921l-.048 1.91v2.72l-.096 9.69h9.748l.145-9.738Zm-3.122 6.731h-3.458v-4.63h3.458v4.63ZM6.627 23.82v1.909H63.15v-1.91H6.627Zm17-9.452.24 6.588H45.91v-6.683h-2.882v2.482l-3.745.382.047-2.864h-2.88l-.049 2.864h-3.938v-2.864h-2.881v2.864l-2.881-.382v-2.482l-3.074.095Zm-2.497-3.103-.144-4.582h-1.921v1.91h-1.969l.048-1.91h-1.92l.095 1.91h-2.017v-1.91h-1.92l-.049 1.91v2.72l.048 9.69h9.749v-9.738Zm-6.627 2.1h3.457v4.631h-3.457v-4.63ZM34.384 0 22.907 12.363H46.87L34.384 0ZM56.86 50.646c.864.287.864.669 1.825 1.05v-19.81l3.457-4.295-26.028-.191h-3.074l-25.451.19 2.929 4.297v19.332c.528-.19.096-.382.576-.573.913-.334 1.825-.62 2.69-.859v-15.99c0-.908.72-1.624 1.584-1.624.865 0 1.585.716 1.585 1.623V48.88a65.19 65.19 0 0 1 3.938-.859V33.796c0-.907.72-1.623 1.585-1.623.864 0 1.584.716 1.584 1.623v13.7c1.441-.191 2.93-.334 4.37-.43v-11.6c0-3.436 2.738-6.252 6.1-6.252 3.36 0 6.098 2.816 6.098 6.253v11.695c1.537.143 3.074.334 4.61.573V33.796c0-.907.72-1.623 1.585-1.623.864 0 1.585.716 1.585 1.623v14.511c1.296.287 2.593.573 3.938.955V33.796c0-.907.72-1.623 1.584-1.623.865 0 1.585.716 1.585 1.623v16.42c.528.192.913.287 1.345.43Zm-2.69 2.196C47.014 50.408 40.82 49.548 34 49.501h-.096c-6.82 0-13.062.859-20.17 3.341C9.701 54.227 3.747 57.042 0 59l7.972-.286s4.802-3.199 10.277-5.347c5.906-2.339 11.38-2.673 15.751-2.816 4.37.143 10.805.477 16.712 2.816 5.474 2.196 10.277 5.347 10.277 5.347L68 59c-3.842-1.957-9.797-4.773-13.83-6.158Z"/></svg>