<svg width="91" height="84" viewBox="0 0 91 84" fill="none" xmlns="http://www.w3.org/2000/svg">
<path fill-rule="evenodd" clip-rule="evenodd" d="M22.0781 45.4159C28.0058 55.0923 25.1675 66.3247 25.1675 66.3247L32.1502 70.7496L31.3715 49.4518L22.0781 45.4159ZM27.5034 27.7407L36.4201 23.7291V4.03589H0C0 4.03589 2.68755 8.75253 5.02346 12.8857L27.4783 22.9268V27.7407H27.5034ZM10.4488 9.23878H27.4783V16.8729L10.4488 9.23878ZM25.1675 24.5314L14.7187 21.3221V32.9679L25.1675 28.543V24.5314ZM54.605 4.01158V23.7048L63.5217 27.7164V22.9025L85.9765 12.8614C88.3376 8.72822 91 4.01158 91 4.01158H54.605ZM63.4966 16.8973V9.2631H80.5261L63.4966 16.8973ZM60.0304 49.4518L59.2517 70.7496L66.2343 66.3247C66.2343 66.3247 63.3961 55.0923 69.3238 45.4159L60.0304 49.4518ZM51.8924 0H45.6884H45.3116H39.1076V26.136L15.4723 35.3748L16.6277 41.4043L31.3464 46.2182V40.602L22.4298 38.1951L39.9868 30.9013L33.6823 37.7818V53.0501L37.5504 54.4602V71.1386C39.9365 76.0984 41.4184 84 41.4184 84V62.7265H49.5564V84C49.5564 84 51.0384 76.0984 53.4245 71.1386V54.4602L57.2926 53.0501V37.7818L50.9881 30.9013L68.5451 38.1951L59.6285 40.602V46.2182L74.3472 41.4043L75.5026 35.3748L51.8672 26.136V0H51.8924ZM49.5564 54.2657V55.8703V60.2709H41.4184V55.8703V54.2657V30.3178L45.4874 28.6402L49.5564 30.3178V54.2657ZM65.8325 28.543L76.2813 32.9679V21.2978L65.8325 24.5071V28.543Z" fill="black"/>
</svg>
