<svg xmlns="http://www.w3.org/2000/svg" width="38" height="59" fill="none"><path fill="#000" d="M31.846.13 28.163 0v3.544H24.48V0h-3.638v3.544l-3.639.044L17.158 0h-3.683v3.544l-3.593.044L9.792 0H6.109v7.045h25.737V.13Zm-2.47 12.88 1.213-3.544H7.322l1.212 3.544h20.842ZM0 55.456V59h38v-3.544H0Zm14.688-14.178h8.58v11.8h13.474s-.314-5.403-3.997-16.036c-2.785-8.04-2.92-13.918-2.92-13.918l-.404-7.78H8.579l-.584 7.78s-.134 5.836-2.92 13.918C1.393 47.675 1.079 53.294 1.079 53.294l13.61-.216v-11.8ZM15.9 21.223h6.108v8.255h-6.108v-8.255Z"/></svg>