<svg xmlns="http://www.w3.org/2000/svg" width="67" height="43" fill="none"><path fill="#000" d="M0 38.373C0 40.861 8.971 43 20.038 43c3.918 0 7.589-.268 10.696-.725a24.9 24.9 0 0 1-4.45-6.01c-1.97.145-4.07.223-6.246.223C8.971 36.488 0 34.47 0 31.982v6.391ZM24.483 31.869c-1.432.073-2.92.11-4.445.11C8.971 31.98 0 29.965 0 27.477v-6.392c0 2.488 8.971 4.505 20.038 4.505 1.165 0 2.309-.022 3.422-.065a24.483 24.483 0 0 0 1.023 6.345ZM23.698 21.305c-1.188.05-2.411.075-3.66.075C8.971 21.38 0 19.364 0 16.876v-6.391c0 2.488 8.971 4.504 20.038 4.504 1.916 0 3.773-.06 5.533-.173a24.394 24.394 0 0 0-1.873 6.49ZM28.326 10.119c-2.533.302-5.34.47-8.288.47C8.971 10.589 0 8.219 0 5.294 0 2.37 8.971 0 20.038 0c7.337 0 13.807 1.042 17.335 2.596a25.156 25.156 0 0 0-9.047 7.523Z"/><path fill="#000" fill-rule="evenodd" d="M48.575 43C58.751 43 67 34.855 67 24.808 67 14.76 58.75 6.615 48.575 6.615c-10.176 0-18.425 8.145-18.425 18.193C30.15 34.855 38.4 43 48.575 43Zm-7.16-8.648 11.113-21.121 3.208 2.032-11.113 21.122-3.209-2.033Zm.992-18.146c1.772 1.123 2.379 3.609 1.356 5.553s-3.288 2.61-5.06 1.488c-1.772-1.123-2.379-3.609-1.356-5.553s3.288-2.61 5.06-1.488Zm17.396 15.715c1.023-1.944.416-4.43-1.356-5.552-1.772-1.123-4.037-.457-5.06 1.487-1.023 1.944-.416 4.43 1.356 5.553 1.772 1.122 4.037.456 5.06-1.488Z" clip-rule="evenodd"/></svg>