<svg xmlns="http://www.w3.org/2000/svg" width="57" height="63" fill="none"><path fill="#000" d="M0 0v4.598h5.79v58.398l3.563-2.732V4.598h38.294v55.67L51.271 63V4.598H57V0H0Zm13.394 7.306v49.645L28.5 42.895 43.606 56.95V7.656a27.388 27.388 0 0 1-14.822 4.347c-5.465 0-11-1.73-15.394-4.697h.004Zm16.214 6.324c.251.692.328 1.424.462 2.14.406 2.203.816 4.407 1.193 6.61.187 1.094.844 1.897 2.159 2.315 1.919.612 3.846 1.209 5.79 1.774.657.19 1.444.25 1.493.934.057.76-.8.828-1.469 1.035-1.992.608-3.98 1.22-5.96 1.849-1.222.386-1.818 1.15-1.997 2.144-.332 1.841-.67 3.687-1.006 5.528-.203 1.102-.398 2.203-.629 3.301-.04.183-.479.648-.913.645-.414 0-.823-.47-.86-.645-.231-1.097-.426-2.2-.629-3.3-.34-1.842-.673-3.688-1.006-5.53-.179-.994-.78-1.753-1.996-2.143a573.91 573.91 0 0 0-5.96-1.85c-.666-.202-1.527-.27-1.47-1.034.053-.684.836-.743 1.494-.934 1.943-.565 3.87-1.162 5.79-1.774 0 0 .876-.605 1.298-1.63l2.053-7.295c.13-.716.211-1.448.463-2.14.069-.187.458-.668.852-.668.393 0 .783.481.852.668h-.004Z"/></svg>