<?xml version="1.0" encoding="UTF-8"?><svg id="_圖層_1" xmlns="http://www.w3.org/2000/svg" viewBox="0 0 67.99 86.99"><path d="M35.97,0c.48,3.07.96,6.15,1.57,10.01,7.49,0,15.42-.15,23.34.1,2.12.07,4.19,1.34,6.29,2.06-2.04.6-4.08,1.67-6.14,1.73-7.8.21-15.61.08-23.96.08v8.73h-5.87v-8.73c-8.11,0-15.71,0-23.32,0-1.33,0-2.72.23-3.98-.08-1.12-.27-2.1-1.14-3.15-1.74,1.1-.72,2.18-2.03,3.29-2.06,8.16-.18,16.33-.1,24.5-.12.64,0,1.28-.13,1.87-.2C30.96,6.4,31.46,3.2,31.97,0c1.33,0,2.67,0,4,0Z" style="fill:#000; stroke-width:0px;"/><path d="M31.97,86.99c-.29-8.35-.59-16.7-.88-25.05,1.68-.17,3.36-.33,5.04-.5-.05,8.52-.1,17.03-.15,25.55h-4Z" style="fill:#000; stroke-width:0px;"/><path d="M36.12,61.44c-1.68.17-3.36.33-5.04.5-4.82,3.04-9.64,6.08-14.81,9.35V20.05c11.77,5.35,23.62,5.52,35.5-.14v51.43c-5.44-3.44-10.54-6.66-15.65-9.89ZM37.89,42.58c2.36-.39,4.21-.69,6.05-1,.02-.25.04-.49.06-.74-1.92-.44-3.84-.88-6.08-1.4,1.41-2.06,2.56-3.73,3.71-5.41-.16-.14-.32-.28-.47-.42-1.72,1.12-3.43,2.24-5.6,3.65-.38-2.38-.68-4.23-.97-6.08-.24-.03-.48-.06-.72-.09-.46,1.92-.92,3.85-1.44,6.01-1.88-1.12-3.44-2.05-6.05-3.6,1.66,2.73,2.64,4.32,3.68,6.04-2.3.47-4.15.84-5.99,1.22.03.28.06.55.09.83,1.85.3,3.69.6,6.03.98-1.2,1.97-2.15,3.51-3.76,6.14,2.8-1.66,4.41-2.61,6.14-3.64.41,2.27.74,4.11,1.07,5.96.31-.03.61-.06.92-.1.31-1.84.61-3.68.98-5.89,1.96,1.11,3.52,2,6.22,3.54-1.72-2.66-2.66-4.12-3.87-6Z" style="fill:#000; stroke-width:0px;"/><path d="M8.16,77.34V15.79c3.42.65,4.89,2.19,4.85,5.76-.17,16.63-.18,33.26,0,49.88.04,3.6-1.57,5.02-4.86,5.9Z" style="fill:#000; stroke-width:0px;"/><path d="M59.77,15.66v61.53c-3.45-.63-4.88-2.24-4.84-5.78.16-16.63.17-33.26,0-49.88-.04-3.61,1.59-5,4.85-5.87Z" style="fill:#000; stroke-width:0px;"/></svg>