<svg xmlns="http://www.w3.org/2000/svg" width="68" height="48" fill="none"><path fill="#000" fill-rule="evenodd" d="M14.96 18.667c2.286 5.316 8.16 6.665 8.16 6.665-2.18-9.808-9.52-14.667-9.52-14.667 2.146 6.87 1.36 8.002 1.36 8.002Zm38.08 0s-.785-1.131 1.36-8.002c0 0-7.34 4.87-9.52 14.667 0 .011 5.874-1.35 8.16-6.665Zm12.24-8.002c-1.5 0-2.72 1.19-2.72 2.664 0 .217.035.423.082.629-3.681 2.137-9.063 6.15-12.322 12.711-.575.275-4.42 4.264-6.8 0S34 9.328 34 9.328s-7.14 13.077-9.52 17.341c-2.38 4.264-6.226.275-6.8 0-3.26-6.55-8.64-10.574-12.322-12.711a2.8 2.8 0 0 0 .082-.63c0-1.474-1.22-2.663-2.72-2.663-1.5 0-2.72 1.19-2.72 2.664 0 1.474 1.22 2.663 2.72 2.663a2.65 2.65 0 0 0 1.278-.331C15.945 33.322 14.96 48 14.96 48h38.08s-.985-14.666 10.962-32.34c.387.207.82.332 1.278.332 1.5 0 2.72-1.189 2.72-2.663 0-1.463-1.22-2.664-2.72-2.664ZM34 8.002c2.251 0 4.08-1.795 4.08-4.001C38.08 1.795 36.251 0 34 0c-2.251 0-4.08 1.795-4.08 4 0 2.207 1.829 4.002 4.08 4.002Z" clip-rule="evenodd"/></svg>