<svg width="62" height="30" viewBox="0 0 62 30" fill="none" xmlns="http://www.w3.org/2000/svg" preserveAspectRatio="none">
<g clip-path="url(#clip0_803_97975)">
<path d="M53.5952 2.02366L53.5952 2.0237L60.308 14.0236C60.6474 14.6303 60.6474 15.3697 60.308 15.9765L53.5952 27.9764L53.5951 27.9764C53.2417 28.6084 52.574 29 51.8497 29L10.1503 28.9999C9.42605 28.9999 8.7584 28.6084 8.40481 27.9763L1.69205 15.9764C1.69205 15.9764 1.69205 15.9764 1.69204 15.9764C1.35265 15.3696 1.35265 14.6302 1.69205 14.0235L8.40481 2.02359L7.53209 1.53538L8.40482 2.02359C8.75839 1.39154 9.42604 0.999999 10.1503 1L51.8497 1.00011C52.574 1.00012 53.2417 1.39167 53.5952 2.02366Z" fill="" stroke="#c2a779" stroke-width="1" vector-effect="non-scaling-stroke"/>
</g>
<defs>
<clipPath id="clip0_803_97975">
<rect width="62" height="30" fill="white"/>
</clipPath>
</defs>
</svg>
