<svg width="60" height="57" viewBox="0 0 60 57" fill="none" xmlns="http://www.w3.org/2000/svg">
<path fill-rule="evenodd" clip-rule="evenodd" d="M28.259 6.33333C16.1202 6.33333 6.27977 16.2577 6.27977 28.5C6.27977 40.7423 16.1202 50.6667 28.259 50.6667C33.8902 50.6667 39.0204 48.535 42.911 45.0231L47.0991 49.7423C42.1016 54.2533 35.4946 57 28.259 57C12.652 57 0 44.2401 0 28.5C0 12.7599 12.652 0 28.259 0C40.7868 0 51.4029 8.21957 55.1101 19.5945L49.1443 21.5721C46.259 12.7189 37.9943 6.33333 28.259 6.33333Z" fill="black"/>
<path d="M57.5206 33.2214L60 11.3677L39.879 20.2878L57.5206 33.2214Z" fill="black"/>
</svg>
